FantasqueSans.sfdir
StartChar: exclam
Encoding: 33 33 68
Width: 245
VWidth: 0
Flags: HW
HStem: 0 74<87 160>
VStem: 87 73<0 73> 97 57<152 653>
LayerCount: 2
Fore
SplineSet
87 74 m 29xc0
 161 73 l 29
 160 0 l 29
 87 0 l 29
 87 74 l 29xc0
96 653 m 25
 159 653 l 17
 156 484 156 322 154 151 c 9
 97 152 l 25xa0
 96 653 l 25
EndSplineSet
EndChar
StartChar: quotedbl
Encoding: 34 34 92
Width: 348
VWidth: 0
Flags: HW
HStem: 425 265
VStem: 101 57<538 681> 229 57<538 681>
LayerCount: 2
Fore
SplineSet
282 690 m 5
 282 690 286 661 286 646 c 0
 286 607 278 568 267 534 c 0
 251 486 232 448 204 425 c 1
 167 471 l 1
 175 477 199 511 212 551 c 0
 222 582 229 617 229 650 c 0
 229 661 227 681 227 681 c 1
 282 690 l 5
154 690 m 1
 154 690 158 661 158 646 c 0
 158 607 149 568 138 534 c 0
 122 486 103 448 75 425 c 1
 39 471 l 1
 47 477 70 511 83 551 c 0
 93 582 101 617 101 650 c 0
 101 661 98 681 98 681 c 1
 154 690 l 1
EndSplineSet
EndChar
StartChar: numbersign
Encoding: 35 35 93
Width: 515
VWidth: 0
Flags: HW
HStem: 108 55<60 136> 120 58<63 137 201 328 390 482> 310 55<64 162> 322 58<66 162 225 353 416 484> 552 10G<384 439>
VStem: 181 56<380 561>
LayerCount: 2
Fore
SplineSet
187 564 m 1xac
 241 561 l 1
 240 541 239 510 236 477 c 0
 236 470 228 407 225 379 c 1
 246 380 266 380 288 380 c 0
 324 380 329 380 360 380 c 1
 363 408 372 473 372 479 c 0
 375 512 382 542 385 562 c 1
 439 552 l 1
 434 531 430 501 427 470 c 1
 427 470 419 404 416 381 c 1
 484 381 l 1
 484 322 l 1
 484 322 451 323 408 323 c 1
 403 284 403 278 397 232 c 0
 394 208 392 202 390 179 c 1
 482 179 l 1
 482 120 l 1
 482 120 438 121 383 121 c 1
 376 63 365 -15 364 -28 c 1
 364 -29 l 1
 358 -64 357 -79 357 -79 c 1
 303 -75 l 1
 303 -75 304 -57 310 -21 c 0
 311 -9 321 67 328 120 c 1
 312 120 302 120 286 120 c 0x5c
 253 120 223 119 192 118 c 1
 186 65 178 -10 177 -22 c 1
 177 -23 l 1
 175 -59 171 -78 171 -78 c 1
 116 -68 l 2
 116 -68 119 -53 121 -17 c 1
 122 -5 131 67 137 115 c 1
 119 115 101 114 88 113 c 0
 73 111 63 108 63 108 c 2
 42 163 l 1
 54 168 65 168 81 169 c 0
 98 171 117 173 139 174 c 0
 140 174 142 174 144 174 c 1
 147 204 149 214 152 245 c 0
 157 285 157 283 162 318 c 1
 156 318 150 318 144 318 c 0
 123 317 106 316 91 315 c 0
 78 314 66 310 66 310 c 2
 45 365 l 1
 57 370 69 371 85 373 c 0
 101 374 120 375 142 376 c 0
 150 377 160 378 168 378 c 1
 173 413 181 482 181 482 c 1
 184 512 186 543 187 564 c 1xac
290 322 m 0
 265 322 241 321 217 321 c 1
 214 283 213 280 208 237 c 0
 205 210 204 204 201 177 c 1
 229 178 257 178 286 178 c 0
 311 178 311 178 334 178 c 1
 337 205 340 212 343 239 c 0
 348 284 348 284 353 322 c 1
 338 322 324 322 311 322 c 0
 304 322 297 322 290 322 c 0
EndSplineSet
EndChar
StartChar: dollar
Encoding: 36 36 94
Width: 508
VWidth: 0
Flags: HW
HStem: 2 56<254 298> 332 60<252 297> 509 10G<420 477> 591 56<252 295>
VStem: 34 56<135 217> 64 55<441 552> 197 56<-66 3 70 340 409 412 580 583 694 694 700 707> 424 53<517 550> 454 55<125 267>
LayerCount: 2
Fore
SplineSet
351 637 m 1xf6
 359 635 370 631 378 628 c 0
 425 611 467 575 477 518 c 1
 424 509 l 1xf7
 417 545 393 565 358 578 c 0
 356 578 353 579 351 580 c 1
 351 529 351 454 351 376 c 1
 369 371 387 365 404 358 c 0
 443 341 477 311 495 265 c 0
 503 241 509 217 509 195 c 0
 509 156 497 122 479 94 c 0
 449 49 402 22 356 11 c 0
 355 11 355 11 354 11 c 0
 355 -20 356 -49 357 -70 c 1
 303 -74 l 1
 302 -56 300 -28 298 3 c 1
 291 2 283 2 276 2 c 0
 269 2 261 2 254 3 c 1
 255 -24 257 -46 258 -66 c 1
 204 -70 l 1
 203 -49 200 -21 199 12 c 0
 199 12 197 12 196 12 c 0
 141 27 88 57 60 114 c 0
 36 164 34 207 34 218 c 0
 34 222 l 1
 89 217 l 2
 89 217 89 215 89 212 c 0xfa80
 89 201 92 174 109 138 c 0
 126 103 159 81 199 69 c 1
 198 85 197 104 197 129 c 1
 197 175 197 321 197 326 c 1
 197 341 197 338 197 353 c 1
 182 356 168 361 155 367 c 0
 117 383 85 410 70 455 c 0
 67 470 64 483 64 498 c 0
 64 534 79 567 102 591 c 0
 127 615 161 633 197 641 c 0
 197 641 197 642 197 643 c 0
 197 644 l 0
 196 666 196 683 196 694 c 0
 196 711 l 1
 251 707 l 2
 251 707 251 703 251 693 c 0
 251 683 251 668 252 646 c 1
 257 646 262 646 267 646 c 0
 277 646 285 646 295 646 c 1
 295 659 295 671 295 679 c 0
 295 707 l 1
 350 702 l 2
 350 702 350 698 350 686 c 0
 350 676 350 659 351 637 c 1xf6
267 591 m 0
 262 591 257 591 252 591 c 1
 252 545 252 472 252 396 c 1
 263 395 272 393 283 392 c 0
 288 391 292 389 297 388 c 1
 297 394 297 402 297 403 c 1
 297 477 297 545 297 590 c 1
 287 591 277 591 267 591 c 0
197 583 m 1
 174 576 156 565 141 552 c 0
 128 537 119 522 119 501 c 0
 119 493 121 483 124 472 c 0
 132 443 149 429 177 417 c 0
 183 415 190 411 197 409 c 1
 197 477 197 538 197 583 c 1
252 340 m 1
 253 335 253 331 253 326 c 0
 253 253 253 182 253 129 c 0
 253 99 253 77 253 60 c 1
 263 59 274 58 285 58 c 0
 290 58 293 58 298 58 c 1
 298 75 297 97 297 125 c 0
 297 180 297 250 297 321 c 1
 297 326 297 329 297 332 c 1
 290 334 280 335 273 336 c 0
 266 337 259 339 252 340 c 1
353 320 m 1
 353 249 353 178 353 125 c 0
 353 102 353 82 353 66 c 1
 382 74 412 97 432 125 c 0
 445 145 454 165 454 192 c 0xf280
 454 208 450 226 443 246 c 0
 431 277 411 296 381 309 c 0
 373 312 363 317 353 320 c 1
EndSplineSet
EndChar
StartChar: percent
Encoding: 37 37 156
Width: 507
VWidth: 0
Flags: HW
HStem: 0 57<309 397> 187 56<322 405> 367 57<104 189> 555 56<115 201>
VStem: 34 56<439 529> 213 56<447 543> 240 57<72 162> 420 56<81 171>
LayerCount: 2
Fore
SplineSet
63 -16 m 1xf9
 73 5 160 182 222 309 c 0
 252 372 282 434 305 481 c 0
 328 529 345 563 346 564 c 2
 359 593 372 622 380 642 c 1
 432 619 l 1
 424 601 412 570 397 540 c 0
 395 535 379 504 356 457 c 0
 333 410 302 346 271 283 c 0
 209 157 147 28 136 6 c 0
 120 -28 111 -45 111 -45 c 1
 63 -16 l 1xf9
160 610 m 0
 191 610 219 600 239 580 c 0
 260 560 269 531 269 501 c 0xfd
 269 468 257 437 236 412 c 0
 215 388 185 367 150 367 c 0
 86 367 34 420 34 484 c 0
 34 518 50 549 73 572 c 0
 96 595 126 610 160 610 c 0
160 555 m 0
 145 555 128 547 113 532 c 0
 98 517 89 499 89 484 c 0
 89 450 116 424 150 424 c 0
 163 424 179 432 192 448 c 0
 204 464 213 484 213 501 c 0
 213 519 207 532 199 540 c 0
 191 548 178 555 160 555 c 0
361 242 m 0
 362 242 363 242 364 242 c 0
 426 240 476 189 476 127 c 0
 476 126 476 123 476 121 c 0
 475 87 458 57 434 35 c 0
 411 14 382 0 349 0 c 0
 348 0 346 0 345 0 c 0
 314 1 286 13 268 34 c 0
 250 54 240 80 240 109 c 0
 240 110 240 113 240 114 c 0xfb
 241 147 255 177 277 201 c 0
 297 224 324 242 357 242 c 0
 358 242 360 242 361 242 c 0
360 187 m 0
 347 187 332 179 320 164 c 0
 307 149 297 127 297 111 c 0
 297 109 297 107 297 106 c 0
 297 90 302 79 309 71 c 0
 316 63 328 57 346 57 c 0
 347 57 349 57 350 57 c 0
 365 57 381 65 396 78 c 0
 411 91 419 109 420 124 c 0
 420 125 420 125 420 126 c 0
 420 159 395 186 362 187 c 0
 361 187 361 187 360 187 c 0
EndSplineSet
EndChar
StartChar: ampersand
Encoding: 38 38 168
Width: 546
VWidth: 0
Flags: HW
HStem: 0 56<148 334> 596 56<181 307>
VStem: 31 57<109 261> 97 56<450 567> 331 57<475 574> 441 56<170 309>
LayerCount: 2
Fore
SplineSet
243 651 m 0
 278 651 313 642 341 620 c 0
 368 598 388 563 388 522 c 0
 388 493 376 463 353 438 c 0
 330 414 295 391 247 367 c 1
 254 359 262 351 270 340 c 0
 301 304 341 257 379 212 c 0
 400 189 400 188 418 166 c 1
 433 199 441 241 441 298 c 0
 441 301 441 306 441 309 c 1
 497 310 l 1
 497 304 497 299 497 294 c 0
 497 220 482 163 457 120 c 1
 484 90 529 35 529 35 c 1
 485 -1 l 1
 485 -1 444 49 423 73 c 1
 418 68 413 63 408 60 c 0
 355 13 288 0 240 0 c 0
 185 0 134 13 94 43 c 0
 55 74 31 123 31 184 c 0
 31 232 49 277 80 315 c 0
 101 339 126 362 157 383 c 1
 130 410 97 450 97 510 c 0
 97 543 108 576 132 604 c 0
 157 632 196 651 243 651 c 0
243 596 m 0
 209 596 189 584 174 568 c 0
 159 551 152 528 152 510 c 0
 152 470 178 441 205 416 c 0
 206 415 207 412 208 411 c 1
 211 413 216 415 218 416 c 0
 265 439 295 459 311 477 c 0
 327 494 331 506 331 522 c 0
 331 547 321 563 306 576 c 0
 290 588 267 596 243 596 c 0
196 339 m 1
 165 319 141 301 124 280 c 0
 100 250 88 220 88 184 c 0
 88 138 104 109 129 88 c 0
 156 67 195 56 240 56 c 0
 280 56 331 67 371 102 c 0
 377 105 381 111 386 116 c 1
 364 143 361 146 336 176 c 0
 297 221 259 266 228 304 c 0
 216 317 206 329 196 339 c 1
EndSplineSet
EndChar
StartChar: parenleft
Encoding: 40 40 98
Width: 363
VWidth: 0
Flags: HW
HStem: -191 56<274 339> 633 56<270 349>
VStem: 40 56<101 401>
LayerCount: 2
Fore
SplineSet
349 689 m 1
 350 671 352 651 353 633 c 1
 283 630 222 593 176 528 c 0
 130 463 98 369 96 258 c 0
 96 253 96 247 96 242 c 0
 96 138 129 47 176 -21 c 0
 224 -91 290 -134 343 -136 c 1
 339 -191 l 1
 261 -186 185 -133 129 -52 c 0
 76 24 40 127 40 243 c 0
 40 248 40 253 40 259 c 0
 43 380 76 485 129 560 c 0
 184 636 261 684 349 689 c 1
EndSplineSet
EndChar
StartChar: parenright
Encoding: 41 41 99
Width: 360
VWidth: 0
Flags: HW
HStem: -191 55<24 88> 633 55<15 94>
VStem: 268 56<101 401>
LayerCount: 2
Fore
SplineSet
15 688 m 1
 103 685 179 636 234 560 c 0
 287 485 320 380 323 259 c 0
 323 253 323 248 323 243 c 0
 323 127 287 24 234 -52 c 0
 177 -133 103 -186 24 -191 c 1
 22 -137 l 1
 75 -134 139 -92 189 -22 c 0
 235 46 268 138 268 242 c 0
 268 247 268 253 268 258 c 0
 265 369 235 463 189 528 c 0
 143 593 82 630 12 633 c 1
 15 688 l 1
EndSplineSet
EndChar
StartChar: asterisk
Encoding: 42 42 200
Width: 513
VWidth: 0
Flags: HW
VStem: 231 56<293 498>
LayerCount: 2
Fore
SplineSet
231 498 m 1
 287 498 l 1
 287 293 l 1
 345 313 465 354 472 356 c 1
 489 303 l 1
 418 279 360 257 304 239 c 1
 325 215 434 63 434 63 c 1
 388 29 l 1
 377 46 315 136 259 206 c 1
 202 136 143 46 132 29 c 1
 85 64 l 1
 85 64 193 215 214 239 c 1
 158 257 100 279 29 303 c 1
 46 357 l 1
 53 355 173 313 231 293 c 1
 231 293 231 311 231 336 c 0
 231 370 231 419 231 454 c 0
 231 498 l 1
EndSplineSet
EndChar
StartChar: plus
Encoding: 43 43 101
Width: 612
VWidth: 0
Flags: HW
HStem: 225 57<45 276 332 573> 516 10G<273 328>
VStem: 276 53<-20 225 282 521>
LayerCount: 2
Fore
SplineSet
328 525 m 1
 328 508 332 481 333 453 c 0
 333 448 333 442 333 431 c 0
 333 419 333 404 333 384 c 0
 333 356 332 320 332 282 c 1
 334 282 337 282 339 282 c 0
 461 281 574 278 574 278 c 1
 573 222 l 2
 573 222 461 224 339 225 c 0
 337 225 333 225 331 225 c 1
 331 132 329 42 329 24 c 0
 329 23 329 24 329 23 c 0
 329 13 329 4 329 -2 c 0
 329 -25 l 1
 275 -20 l 1
 275 -20 276 -14 276 -2 c 0
 276 4 276 12 275 22 c 1
 275 23 l 2
 275 43 276 132 276 225 c 1
 173 225 74 222 45 219 c 1
 36 276 l 1
 78 281 175 282 277 282 c 1
 277 320 277 356 277 385 c 0
 277 405 278 419 278 431 c 0
 278 451 l 2
 277 478 274 504 273 522 c 1
 328 525 l 1
EndSplineSet
EndChar
StartChar: comma
Encoding: 44 44 54
Width: 205
VWidth: 0
Flags: HW
HStem: -127 201
VStem: 62 71<0 74> 78 55<-68 0>
LayerCount: 2
Fore
SplineSet
61 74 m 5xc0
 133 74 l 5
 133 0 l 6xc0
 133 -25 130 -54 119 -74 c 5
 106 -97 82 -119 61 -127 c 5
 59 -121 43 -95 36 -83 c 5
 57 -72 63 -60 69 -50 c 5
 76 -35 78 -22 78 -10 c 4
 78 -7 78 -3 78 0 c 5xa0
 62 0 l 5
 61 74 l 5xc0
EndSplineSet
EndChar
StartChar: hyphen
Encoding: 45 45 100
Width: 384
VWidth: 0
Flags: HW
HStem: 224 55<15 369>
LayerCount: 2
Fore
SplineSet
12 252 m 1
 12 276 l 1
 102 278 154 279 194 279 c 0
 205 279 214 279 224 279 c 0
 269 279 310 278 371 277 c 1
 369 222 l 5
 294 224 261 224 192 224 c 4
 153 224 102 222 15 220 c 1
 12 252 l 1
EndSplineSet
EndChar
StartChar: period
Encoding: 46 46 53
Width: 216
VWidth: 0
Flags: HW
HStem: 0 74<69 142>
VStem: 69 73<0 73>
LayerCount: 2
Fore
SplineSet
69 74 m 29
 143 73 l 29
 142 0 l 29
 69 0 l 29
 69 74 l 29
EndSplineSet
EndChar
StartChar: slash
Encoding: 47 47 104
Width: 411
VWidth: 0
Flags: HW
LayerCount: 2
Fore
SplineSet
335 661 m 0
 386 639 l 1
 378 621 366 592 351 562 c 0
 349 557 335 525 312 479 c 0
 289 433 259 373 229 311 c 0
 168 187 108 62 97 40 c 0
 82 7 73 -10 73 -10 c 1
 25 20 l 2
 25 20 31 31 46 64 c 1
 47 64 l 1
 57 84 120 211 181 335 c 0
 211 397 240 458 263 504 c 0
 286 550 302 584 303 585 c 0
 316 613 327 641 335 661 c 0
EndSplineSet
EndChar
StartChar: zero
Encoding: 48 48 52
Width: 442
VWidth: 0
Flags: HW
HStem: 2 55<169 276> 578 55<174 279>
VStem: 35 55<166 448> 357 56<179 463>
LayerCount: 2
Fore
SplineSet
224 632 m 0
 280 632 328 597 361 542 c 0
 394 487 413 413 413 326 c 0
 413 239 394 160 363 102 c 0
 330 44 283 2 225 2 c 0
 170 2 120 35 87 88 c 0
 54 141 35 216 35 303 c 0
 35 391 53 469 86 529 c 0
 117 590 166 632 224 632 c 0
224 578 m 0
 194 578 161 554 134 504 c 0
 107 454 90 383 90 303 c 0
 90 224 109 160 134 119 c 0
 161 77 192 57 225 57 c 0
 256 57 288 80 315 128 c 0
 340 176 357 246 357 326 c 0
 357 405 338 471 313 514 c 0
 288 557 257 578 224 578 c 0
EndSplineSet
EndChar
StartChar: one
Encoding: 49 49 105
Width: 313
VWidth: 0
Flags: HW
HStem: 0 10G<218 273>
VStem: 218 56<0 542>
LayerCount: 2
Fore
SplineSet
225 643 m 1
 276 630 l 1
 273 0 l 1
 218 0 l 1
 220 542 l 1
 185 497 134 439 64 388 c 1
 31 431 l 1
 156 524 225 643 225 643 c 1
EndSplineSet
EndChar
StartChar: two
Encoding: 50 50 106
Width: 437
VWidth: 0
Flags: HW
HStem: 0 56<98 403> 576 56<144 285>
VStem: 42 57<423 532> 333 56<384 528>
LayerCount: 2
Fore
SplineSet
209 632 m 2
 213 632 l 2
 256 632 300 617 334 586 c 0
 367 557 389 511 389 455 c 0
 389 454 389 452 389 451 c 0
 388 389 352 340 309 298 c 0
 266 256 221 216 168 169 c 0
 117 123 105 88 100 66 c 0
 99 60 99 59 98 56 c 1
 341 56 l 2
 357 56 403 60 403 60 c 1
 407 3 l 2
 407 3 363 1 341 1 c 2
 74 0 l 1
 42 0 l 1
 42 0 42 23 41 35 c 0
 41 46 42 61 45 79 c 0
 53 114 74 158 132 209 c 0
 187 259 232 299 271 338 c 0
 310 376 332 409 333 452 c 0
 333 453 333 456 333 457 c 0
 333 499 318 526 297 546 c 0
 275 566 244 576 213 576 c 0
 177 576 146 562 125 537 c 0
 109 517 100 493 100 460 c 0
 100 449 101 437 103 424 c 1
 48 413 l 1
 45 431 42 448 42 465 c 0
 42 507 55 544 78 572 c 0
 111 611 159 632 209 632 c 2
EndSplineSet
EndChar
StartChar: three
Encoding: 51 51 107
Width: 449
VWidth: 0
Flags: HW
HStem: 0 55<130 300> 340 55<159 265> 514 10G<77 117> 583 55<143 292>
VStem: 25 56<103 157> 321 55<441 557> 358 56<114 269>
LayerCount: 2
Fore
SplineSet
207 638 m 1xfc
 214 638 l 1
 256 638 296 628 326 605 c 0
 356 583 375 547 375 505 c 0xfc
 375 463 362 427 340 403 c 0
 324 386 306 379 286 371 c 1
 294 368 298 367 306 364 c 0
 382 330 414 254 414 184 c 0
 414 144 399 97 364 61 c 0
 329 25 289 0 213 0 c 0
 127 0 81 38 53 78 c 0
 26 117 25 157 25 157 c 1
 81 159 l 1
 81 159 81 135 99 108 c 0
 117 83 143 55 213 55 c 0
 277 55 302 74 325 99 c 0
 349 123 358 156 358 184 c 0xfa
 358 240 338 291 283 315 c 0
 233 338 192 340 174 340 c 0
 164 340 l 2
 159 340 l 1
 157 395 l 1
 161 395 l 2
 161 395 163 395 164 395 c 0
 174 395 210 396 245 408 c 0
 266 415 285 424 298 439 c 0
 311 455 321 475 321 505 c 0
 321 532 311 549 293 562 c 0
 275 575 247 583 214 583 c 0
 126 583 102 514 102 514 c 1
 51 534 l 1
 51 534 94 638 207 638 c 1xfc
EndSplineSet
EndChar
StartChar: four
Encoding: 52 52 108
Width: 454
VWidth: 0
Flags: HW
HStem: 0 10G<293 348> 213 55<117 293 349 426> 219 53<104 293>
VStem: 293 56<0 212 268 523 589 624>
LayerCount: 2
Fore
SplineSet
290 624 m 1xb0
 295 641 l 1
 350 631 l 1
 349 267 l 1
 427 265 l 1
 426 211 l 1
 349 212 l 1
 348 0 l 1
 293 0 l 1
 293 213 l 1xd0
 48 219 l 1
 28 264 l 2
 28 264 191 463 234 529 c 0
 280 597 290 624 290 624 c 1xb0
294 500 m 1
 294 523 l 1
 292 517 290 514 280 498 c 0
 239 435 142 318 104 272 c 1xb0
 293 268 l 1
 294 500 l 1
EndSplineSet
EndChar
StartChar: five
Encoding: 53 53 109
Width: 442
VWidth: 0
Flags: HW
HStem: 0 56<134 288> 368 58<134 287> 575 56<120 353>
VStem: 351 56<121 304>
LayerCount: 2
Fore
SplineSet
46 338 m 1
 47 356 l 1
 66 605 l 1
 69 631 l 1
 94 631 l 1
 353 628 l 1
 353 574 l 1
 120 575 l 1
 105 393 l 1
 130 409 166 426 211 426 c 0
 238 426 265 420 298 404 c 0
 356 376 407 312 407 215 c 0
 407 141 383 86 344 50 c 0
 305 15 256 0 206 0 c 0
 127 0 64 50 29 103 c 1
 74 134 l 1
 102 93 151 56 206 56 c 0
 245 56 279 66 306 91 c 0
 331 115 351 152 351 215 c 0
 351 294 315 334 273 354 c 1
 251 365 232 368 212 368 c 0
 148 368 99 323 93 317 c 1
 46 338 l 1
EndSplineSet
EndChar
StartChar: six
Encoding: 54 54 110
Width: 455
VWidth: 0
Flags: HW
HStem: 0 56<149 313> 300 57<159 307> 592 53<269 311>
VStem: 35 58<196 237> 363 55<100 249>
LayerCount: 2
Fore
SplineSet
309 646 m 1
 316 623 l 1
 326 592 l 1
 216 561 157 493 126 418 c 0
 108 377 99 334 94 294 c 1
 105 305 116 316 132 327 c 0
 160 348 195 357 231 357 c 0
 269 357 308 345 341 322 c 0
 386 291 418 245 418 171 c 0
 418 110 393 65 355 38 c 0
 317 10 270 0 225 0 c 0
 174 0 128 17 94 52 c 0
 61 85 43 134 38 195 c 1
 36 195 l 1
 38 196 l 2
 38 197 36 199 36 200 c 0
 35 211 35 222 35 234 c 0
 35 294 44 366 75 439 c 0
 113 526 183 611 309 646 c 1
234 300 m 0
 232 300 229 300 228 300 c 0
 204 300 181 294 164 282 c 0
 129 258 110 232 102 215 c 0
 94 200 93 197 93 195 c 0
 98 147 112 113 134 91 c 0
 156 67 186 56 225 56 c 0
 261 56 297 65 322 83 c 0
 346 100 363 125 363 171 c 0
 363 232 348 250 310 277 c 0
 289 293 261 300 234 300 c 0
EndSplineSet
EndChar
StartChar: seven
Encoding: 55 55 111
Width: 447
VWidth: 0
Flags: HW
HStem: 0 10G<93 148> 524 10G<46 73> 575 55<81 349>
VStem: 93 55<0 141>
LayerCount: 2
Fore
SplineSet
56 626 m 1
 61 633 l 1
 76 632 l 2
 112 631 147 630 178 630 c 0
 254 630 320 633 398 633 c 2
 412 633 l 1
 420 621 l 1
 423 619 l 1
 435 603 l 1
 423 586 l 2
 259 363 148 191 148 0 c 1
 93 0 l 1
 93 199 200 373 349 578 c 1
 299 577 252 575 200 575 c 0
 166 575 131 577 93 578 c 1
 83 561 76 545 69 524 c 1
 18 546 l 1
 26 567 36 591 52 620 c 2
 56 626 l 1
EndSplineSet
EndChar
StartChar: eight
Encoding: 56 56 112
Width: 437
VWidth: 0
Flags: HW
HStem: 0 56<139 307> 578 55<147 299>
VStem: 27 55<110 260> 53 56<441 542> 332 55<442 547> 356 55<106 263>
LayerCount: 2
Fore
SplineSet
223 632 m 0xd0
 325 632 387 563 387 490 c 0xd8
 387 442 356 404 323 381 c 0
 311 373 299 369 286 363 c 1
 326 346 356 326 376 298 c 0
 400 264 411 224 411 183 c 0
 411 138 398 92 367 57 c 0
 336 22 285 0 220 0 c 0
 172 0 125 15 87 46 c 0
 51 76 27 124 27 184 c 0
 27 242 48 289 82 320 c 0xe4
 104 340 128 352 155 364 c 1
 140 371 121 376 109 386 c 0
 75 411 53 448 53 488 c 0
 53 530 73 568 104 593 c 0
 135 618 177 632 223 632 c 0xd0
223 578 m 0
 188 578 159 567 139 550 c 0
 119 534 109 515 109 488 c 0
 109 465 118 450 143 430 c 0
 160 417 193 405 222 393 c 1
 246 403 271 411 292 426 c 0
 316 443 332 462 332 490 c 0
 332 535 303 578 223 578 c 0
222 333 m 1
 180 316 143 299 120 278 c 0
 96 255 82 230 82 184 c 0
 82 139 99 109 124 88 c 0
 149 66 184 56 220 56 c 0
 273 56 305 71 326 94 c 0
 347 116 356 148 356 183 c 0xe4
 356 217 349 243 333 265 c 0
 317 288 291 306 246 321 c 0
 236 324 232 330 222 333 c 1
EndSplineSet
EndChar
StartChar: nine
Encoding: 57 57 113
Width: 423
VWidth: 0
Flags: HW
HStem: 0 56<127 271> 309 57<138 273> 576 55<131 281>
VStem: 23 53<108 146> 38 56<407 541> 326 58<121 304 416 527> 336 55<148 368>
LayerCount: 2
Fore
SplineSet
212 631 m 2xea
 258 631 301 616 331 583 c 0
 360 553 376 508 381 455 c 0
 381 453 383 451 384 449 c 0xec
 385 428 391 375 391 313 c 0xe2
 391 279 389 243 384 208 c 0xe4
 378 157 364 108 336 68 c 0
 307 28 262 0 204 0 c 0
 170 0 131 7 98 30 c 0
 64 52 38 89 23 144 c 1
 76 159 l 1xf2
 87 116 106 91 128 76 c 0
 150 60 177 56 204 56 c 0
 246 56 271 71 292 99 c 0
 312 128 324 170 331 215 c 0
 334 245 336 277 336 305 c 0
 336 328 335 348 334 368 c 1
 324 357 313 346 298 335 c 0
 271 317 240 309 207 309 c 0
 172 309 136 318 106 340 c 0
 66 368 38 411 38 477 c 0
 38 532 62 573 96 598 c 0
 130 622 172 631 212 631 c 2xea
212 576 m 0
 181 576 150 568 128 553 c 0
 107 537 93 516 93 477 c 0
 93 424 106 409 139 386 c 0
 159 371 184 366 208 366 c 0
 230 366 250 370 265 381 c 0
 296 403 313 423 320 439 c 0
 326 451 326 455 326 457 c 0
 321 497 309 527 292 545 c 0
 271 566 246 576 212 576 c 0
EndSplineSet
EndChar
StartChar: colon
Encoding: 58 58 66
Width: 274
VWidth: 0
Flags: HW
HStem: 0 74<99 172> 424 74<103 176>
VStem: 99 73<0 73 424 498>
LayerCount: 2
Fore
SplineSet
103 498 m 25
 177 498 l 25
 176 424 l 25
 103 424 l 25
 103 498 l 25
99 74 m 25
 172 73 l 25
 172 0 l 25
 99 0 l 25
 99 74 l 25
EndSplineSet
EndChar
StartChar: semicolon
Encoding: 59 59 67
Width: 306
VWidth: 0
Flags: HW
HStem: 425 74<128 201>
VStem: 127 71<0 74 425 498> 144 54<-68 0>
LayerCount: 2
Fore
SplineSet
128 499 m 25x80
 202 498 l 25
 201 425 l 25
 128 425 l 25
 128 499 l 25x80
127 74 m 5xc0
 198 74 l 5
 198 0 l 6
 198 -25 196 -54 185 -74 c 5
 172 -97 148 -119 127 -127 c 5xc0
 125 -121 110 -95 103 -83 c 5
 124 -72 130 -60 136 -50 c 5
 143 -35 144 -22 144 -10 c 4
 144 -7 144 -3 144 0 c 5xa0
 127 0 l 5
 127 74 l 5xc0
EndSplineSet
EndChar
StartChar: less
Encoding: 60 60 102
Width: 447
VWidth: 0
Flags: HW
HStem: 502 10G<398 407>
LayerCount: 2
Fore
SplineSet
404 512 m 1
 419 455 l 2
 419 455 408 450 396 444 c 0
 317 401 166 293 106 250 c 1
 169 210 325 110 390 57 c 0
 402 46 411 40 419 29 c 1
 372 -5 l 1
 361 10 332 28 311 43 c 0
 261 79 51 217 39 224 c 1
 38 272 l 1
 38 272 114 328 197 385 c 0
 257 426 310 464 368 495 c 0
 381 503 391 509 404 512 c 1
EndSplineSet
EndChar
StartChar: equal
Encoding: 61 61 114
Width: 656
VWidth: 0
Flags: HW
HStem: 108 56<38 620> 336 56<38 621>
LayerCount: 2
Fore
SplineSet
35 371 m 1
 38 397 l 1
 137 394 213 392 277 392 c 0
 406 392 489 397 621 397 c 1
 621 343 l 1
 492 343 408 336 276 336 c 0
 211 336 135 338 34 343 c 1
 35 371 l 1
36 133 m 1
 35 160 l 1
 131 162 214 164 290 164 c 0
 409 164 510 161 621 160 c 1
 620 105 l 1
 505 106 398 108 276 108 c 0
 203 108 126 107 38 105 c 1
 36 133 l 1
EndSplineSet
EndChar
StartChar: greater
Encoding: 62 62 103
Width: 440
VWidth: 0
Flags: HW
LayerCount: 2
Fore
SplineSet
68 504 m 25
 68 504 75 495 86 487 c 0
 97 479 111 469 128 457 c 0
 161 433 202 403 242 376 c 0
 323 323 401 275 401 275 c 1
 402 228 l 1
 402 228 325 171 242 114 c 0
 201 85 157 57 121 34 c 0
 103 23 86 10 71 3 c 0
 56 -4 47 -9 35 -12 c 1
 21 43 l 2
 21 43 31 48 43 55 c 0
 55 62 72 72 90 83 c 0
 125 105 167 133 208 161 c 0
 273 206 311 233 334 250 c 1
 310 266 274 286 211 328 c 0
 170 355 127 385 93 409 c 0
 76 421 62 432 50 442 c 0
 38 452 28 460 21 471 c 1
 68 504 l 25
EndSplineSet
EndChar
StartChar: question
Encoding: 63 63 119
Width: 418
VWidth: 0
Flags: HW
HStem: 0 74<149 222> 590 57<129 281>
VStem: 23 56<414 540> 149 73<0 73> 159 57<141 257> 327 57<416 544>
LayerCount: 2
Fore
SplineSet
149 74 m 25xf4
 223 73 l 25
 222 0 l 25
 149 0 l 25
 149 74 l 25xf4
197 647 m 1
 203 647 210 647 216 647 c 0
 239 646 263 642 285 632 c 0
 335 608 384 556 384 485 c 0
 384 439 370 404 348 376 c 0
 326 348 299 327 271 297 c 0
 236 259 216 238 216 182 c 2
 216 173 l 1
 216 141 l 1
 159 141 l 1
 159 181 l 2xec
 159 255 186 288 229 335 c 0
 260 369 287 391 303 412 c 0
 320 433 327 449 327 485 c 0
 327 530 295 564 260 581 c 0
 252 584 232 589 212 590 c 0
 209 590 204 590 201 590 c 0
 185 590 172 588 167 587 c 0
 137 577 95 550 83 510 c 0
 81 499 79 489 79 481 c 0
 79 459 87 441 99 424 c 1
 53 390 l 1
 33 415 23 447 23 482 c 0
 23 497 24 510 29 525 c 0
 49 590 104 629 151 642 c 0
 164 645 180 647 197 647 c 1
EndSplineSet
EndChar
StartChar: at
Encoding: 64 64 163
Width: 828
VWidth: 0
Flags: HW
HStem: -146 55<303 529> -6 55<619 673> 1 56<301 454> 258 55<338 533> 444 55<338 501> 590 56<303 528>
VStem: 34 55<132 367> 214 55<88 202> 553 55<141 237> 742 55<129 367>
LayerCount: 2
Fore
SplineSet
416 646 m 0xdfc0
 627 646 797 468 797 250 c 0
 797 177 778 109 745 49 c 0
 738 38 724 18 700 3 c 0
 687 -4 672 -6 659 -6 c 0
 656 -6 652 -6 650 -6 c 0xdfc0
 634 -4 619 1 604 11 c 0
 587 24 564 47 557 87 c 1
 535 64 507 41 469 23 c 0
 442 11 407 1 371 1 c 0xbfc0
 340 1 306 9 277 27 c 0
 237 52 214 99 214 146 c 0
 214 182 229 219 259 248 c 0
 310 296 376 312 434 312 c 0
 442 312 451 311 458 311 c 0
 491 309 520 300 545 292 c 0
 547 291 550 289 552 288 c 1
 551 298 551 307 550 318 c 0
 547 374 528 403 504 420 c 0
 481 438 450 444 421 444 c 0
 355 443 316 425 273 351 c 1
 227 379 l 1
 277 464 341 498 421 499 c 0
 423 499 427 499 429 499 c 0
 463 499 504 490 538 465 c 0
 574 437 599 390 604 322 c 0
 607 279 608 248 608 224 c 0
 608 200 608 181 608 160 c 0
 608 145 608 129 609 109 c 0
 611 71 620 68 637 56 c 0
 640 54 648 50 656 49 c 0
 663 49 671 50 673 51 c 0
 685 59 691 68 696 76 c 0
 725 127 742 187 742 250 c 0
 742 439 597 590 416 590 c 0
 235 590 88 439 88 250 c 0
 88 61 235 -92 416 -92 c 0
 477 -92 533 -74 581 -45 c 1
 610 -91 l 1
 553 -126 487 -146 416 -146 c 0
 205 -146 34 32 34 250 c 0
 34 468 205 646 416 646 c 0xdfc0
427 258 m 0
 381 257 335 243 297 208 c 0
 277 190 269 168 269 146 c 0
 269 117 285 89 308 73 c 0
 324 62 346 57 369 57 c 0xbfc0
 397 57 426 65 444 73 c 0
 509 104 543 154 553 171 c 1
 553 189 553 204 553 225 c 1
 547 230 536 235 524 240 c 0
 504 248 480 255 453 257 c 0
 445 257 435 258 427 258 c 0
EndSplineSet
EndChar
StartChar: A
Encoding: 65 65 26
Width: 583
VWidth: 0
Flags: HW
HStem: 242 58<199 391>
AnchorPoint: "accents" 0 0 basechar 0
LayerCount: 2
Fore
SplineSet
271 650 m 1
 325 650 l 1
 560 6 l 1
 506 -13 l 1
 412 243 l 1
 390 243 349 243 304 242 c 0
 271 241 238 239 211 237 c 0
 196 236 182 233 174 231 c 1
 83 -11 l 1
 30 8 l 1
 271 650 l 1
297 557 m 1
 199 294 l 2
 201 294 203 294 205 294 c 0
 234 296 270 299 303 300 c 0
 314 300 324 300 334 300 c 0
 356 300 375 300 391 300 c 0
 297 557 l 1
EndSplineSet
EndChar
StartChar: B
Encoding: 66 66 27
Width: 517
VWidth: 0
Flags: HW
HStem: -1 56<112 368> 344 57<116 282> 595 56<113 288>
VStem: 57 56<58 344 401 591> 324 57<436 559> 432 56<116 266>
AnchorPoint: "accents" 14 0 basechar 0
LayerCount: 2
Fore
SplineSet
176 650 m 5
 178 650 182 650 184 650 c 4
 222 650 260 647 294 632 c 4
 335 614 375 577 380 524 c 4
 380 518 381 513 381 507 c 4
 381 489 378 471 373 451 c 4
 366 426 350 399 325 383 c 5
 364 372 397 356 425 333 c 4
 463 302 481 259 486 219 c 4
 487 211 488 202 488 194 c 4
 488 163 482 131 471 106 c 6
 471 105 l 5
 469 104 l 5
 439 41 378 8 327 2 c 4
 307 0 287 -1 267 -1 c 4
 225 -1 179 2 121 2 c 4
 111 2 100 2 89 2 c 5
 55 0 l 6
 55 0 56 18 57 56 c 4
 57 57 l 4
 57 84 60 264 60 416 c 4
 60 478 59 534 58 576 c 4
 57 609 54 643 54 643 c 5
 97 646 l 6
 113 647 142 650 176 650 c 5
176 595 m 4
 152 595 129 592 113 591 c 5
 113 586 115 583 115 578 c 4
 116 532 116 467 116 401 c 5
 159 404 193 405 220 407 c 4
 250 409 272 415 295 430 c 4
 306 437 314 449 319 466 c 4
 322 479 324 494 324 507 c 4
 324 512 324 517 324 520 c 4
 322 545 299 570 272 581 c 4
 252 589 217 595 183 595 c 4
 181 595 178 595 176 595 c 4
116 344 m 5
 115 212 112 82 112 58 c 5
 175 58 222 55 262 55 c 4
 283 55 301 56 319 58 c 4
 350 61 397 87 418 128 c 5
 425 148 432 171 432 195 c 4
 432 200 432 206 431 212 c 4
 428 241 417 268 390 290 c 4
 362 313 333 325 290 333 c 4
 249 340 195 344 116 344 c 5
EndSplineSet
EndChar
StartChar: C
Encoding: 67 67 28
Width: 535
VWidth: 0
Flags: HW
HStem: 0 57<199 382> 517 10G<406 441> 596 58<216 373>
VStem: 36 57<186 449>
LayerCount: 2
Fore
SplineSet
299 654 m 0
 362 653 428 621 474 546 c 1
 425 517 l 1
 387 578 343 596 300 596 c 0
 294 596 287 596 280 595 c 0
 229 589 178 555 154 524 c 0
 154 523 l 0
 130 489 93 429 93 316 c 0
 93 291 96 262 99 232 c 0
 104 196 143 124 171 99 c 0
 209 65 243 57 288 57 c 0
 291 57 295 57 298 57 c 0
 369 59 421 93 449 150 c 1
 500 125 l 1
 462 51 390 2 299 0 c 0
 297 0 294 0 292 0 c 0
 236 0 180 14 132 57 c 0
 89 97 50 167 42 225 c 0
 37 256 36 285 36 312 c 0
 36 440 81 518 108 557 c 1
 142 603 202 643 272 651 c 0
 280 652 291 654 299 654 c 0
EndSplineSet
EndChar
StartChar: D
Encoding: 68 68 29
Width: 570
VWidth: 0
Flags: HW
HStem: -3 57<109 362> 596 57<112 307>
VStem: 56 57<57 594> 464 58<156 415>
LayerCount: 2
Fore
SplineSet
162 653 m 1
 299 653 388 613 452 523 c 0
 497 461 522 373 522 283 c 0
 522 249 518 216 511 183 c 0
 486 65 388 8 300 0 c 0
 272 -2 247 -3 219 -3 c 0
 183 -3 143 -2 85 0 c 1
 51 0 l 1
 51 0 51 18 52 56 c 0
 52 84 56 284 56 446 c 0
 56 473 56 496 56 518 c 0
 56 540 56 559 56 579 c 0
 55 613 51 646 51 646 c 1
 94 650 l 1
 111 651 134 653 162 653 c 1
111 595 m 1
 112 572 113 542 113 511 c 0
 113 490 113 468 113 446 c 0
 113 284 109 85 109 57 c 1
 161 56 197 54 230 54 c 0
 252 54 272 55 294 57 c 0
 365 64 434 102 455 195 c 0
 461 222 464 250 464 278 c 0
 464 359 442 440 406 490 c 0
 348 570 289 596 174 596 c 0
 151 596 128 596 111 595 c 1
EndSplineSet
EndChar
StartChar: E
Encoding: 69 69 30
Width: 511
VWidth: 0
Flags: HW
HStem: 0 56<112 462> 344 56<114 349> 592 57<114 453>
VStem: 57 57<56 344 399 592>
LayerCount: 2
Fore
SplineSet
209 649 m 5
 227 649 247 649 265 649 c 4
 340 649 412 648 453 648 c 5
 453 592 l 5
 407 592 319 592 234 592 c 4
 192 592 150 592 115 592 c 5
 114 581 114 572 114 561 c 5
 114 558 l 4
 114 481 l 4
 114 459 114 427 114 399 c 5
 142 399 190 399 237 399 c 4
 290 399 346 399 349 399 c 5
 350 344 l 5
 338 344 290 344 237 344 c 4
 189 344 141 344 114 344 c 5
 114 334 114 328 114 318 c 4
 114 203 112 86 112 56 c 5
 139 56 204 56 267 56 c 4
 333 56 400 56 403 56 c 4
 433 57 442 59 463 65 c 5
 479 12 l 5
 458 6 439 1 404 0 c 4
 392 0 333 0 267 0 c 4
 201 0 130 0 108 0 c 5
 55 -2 l 5
 55 -2 56 15 57 53 c 4
 57 55 l 4
 57 78 57 199 57 318 c 4
 57 378 58 437 58 482 c 4
 58 527 58 554 58 562 c 4
 59 596 61 625 62 646 c 5
 62 648 l 5
 100 649 153 649 209 649 c 5
EndSplineSet
EndChar
StartChar: F
Encoding: 70 70 31
Width: 505
VWidth: 0
Flags: HW
HStem: -2 10G<61 118> 344 57<111 351> 592 56<111 462>
VStem: 55 56<3 344 399 592> 62 57<2 226>
LayerCount: 2
Fore
SplineSet
111 85 m 0xf0
 112 54 117 24 118 2 c 1
 62 -2 l 1xe8
 61 19 55 49 55 83 c 2
 55 328 l 2
 55 448 54 572 54 595 c 0
 54 607 54 618 54 626 c 0
 54 650 l 1
 106 648 l 1
 404 648 l 1
 439 647 458 642 479 636 c 1
 463 583 l 1
 442 589 433 592 403 592 c 2
 111 592 l 1
 111 569 111 487 111 399 c 1
 169 399 197 401 248 401 c 0
 260 401 275 401 291 401 c 0
 334 401 363 394 363 394 c 1
 351 339 l 1
 351 339 330 344 291 344 c 2
 111 344 l 1
 111 339 111 333 111 328 c 0
 111 267 111 130 111 85 c 0xf0
EndSplineSet
EndChar
StartChar: G
Encoding: 71 71 32
Width: 543
VWidth: 0
Flags: HW
HStem: -2 58<194 372> 255 57<244 449 506 506> 595 57<192 376>
VStem: 28 57<184 461> 449 57<141 255>
LayerCount: 2
Fore
SplineSet
282 652 m 1
 285 652 290 652 293 652 c 0
 384 650 456 602 494 528 c 1
 443 502 l 1
 415 558 363 595 287 595 c 0
 239 595 205 588 165 552 c 0
 137 527 98 456 93 420 c 0
 87 375 85 339 85 306 c 0
 85 213 110 161 158 104 c 0
 180 77 233 56 288 56 c 0
 303 56 317 58 330 61 c 0
 394 77 449 124 449 255 c 1
 401 255 372 255 307 255 c 0
 267 255 245 250 245 250 c 1
 232 306 l 2
 232 306 262 312 307 312 c 0
 367 312 395 312 435 312 c 0
 455 312 476 312 506 312 c 1
 507 255 l 2
 506 255 l 1
 506 106 430 27 344 5 c 0
 323 0 304 -2 284 -2 c 0
 216 -2 153 24 115 66 c 0
 58 131 28 204 28 315 c 0
 28 349 31 386 37 427 c 0
 45 485 83 556 126 595 c 0
 174 638 227 652 282 652 c 1
EndSplineSet
EndChar
StartChar: H
Encoding: 72 72 33
Width: 575
VWidth: 0
Flags: HW
HStem: -2 10G<61 117> 341 60<116 461>
VStem: 54 56<567 648> 60 56<1 334 392 647> 461 57<4 341 401 650> 467 56<3 86>
LayerCount: 2
Fore
SplineSet
459 654 m 1xd8
 515 650 l 2
 515 650 516 636 517 600 c 1
 517 576 517 452 517 332 c 0
 517 271 518 212 518 167 c 0
 518 106 l 0
 518 88 l 1xd8
 519 57 521 25 522 3 c 1
 467 1 l 1xc4
 466 22 462 53 461 87 c 0
 461 95 461 122 461 167 c 0
 461 212 461 271 461 332 c 0
 461 335 461 338 461 341 c 1
 459 341 423 341 375 341 c 0
 351 341 324 341 296 341 c 0
 254 340 210 338 174 336 c 0
 151 335 129 333 116 331 c 1
 116 328 116 324 116 321 c 0
 116 201 117 77 117 55 c 1
 117 43 117 31 117 23 c 0
 117 -2 l 1
 61 1 l 2
 61 1 61 16 60 52 c 1
 60 53 l 1
 60 77 60 201 60 321 c 0xd8
 60 382 59 437 59 482 c 0
 59 540 l 0
 59 564 l 1
 58 595 55 626 54 648 c 1
 109 651 l 1xe0
 110 630 113 599 114 565 c 0
 114 557 116 529 116 484 c 0
 116 459 116 425 116 392 c 1
 132 394 149 395 170 396 c 0
 208 398 253 400 296 401 c 0
 311 401 325 401 338 401 c 0
 366 401 390 401 411 401 c 0
 440 401 459 401 461 401 c 1
 461 494 459 579 459 597 c 0
 459 598 l 0
 459 610 459 622 459 630 c 0
 459 654 l 1xd8
EndSplineSet
EndChar
StartChar: I
Encoding: 73 73 50
Width: 202
VWidth: 0
Flags: HW
HStem: -1 10G<76 132>
VStem: 70 57<4 648>
LayerCount: 2
Fore
SplineSet
69 651 m 1
 125 648 l 2
 125 648 125 633 126 597 c 1
 126 573 127 450 127 330 c 0
 127 302 127 243 127 182 c 0
 127 111 127 69 132 1 c 0
 77 -1 l 1
 76 20 73 51 72 85 c 0
 72 93 72 120 72 165 c 0
 72 210 70 269 70 330 c 1
 70 383 70 439 70 495 c 0
 70 551 70 605 69 651 c 1
EndSplineSet
EndChar
StartChar: J
Encoding: 74 74 51
Width: 550
VWidth: 0
Flags: HW
HStem: -2 56<148 293> 593 56<172 342 396 533>
VStem: 340 56<373 593> 355 55<132 539>
LayerCount: 2
Fore
SplineSet
533 649 m 1xe0
 533 639 534 629 534 621 c 0
 534 611 534 601 533 593 c 5
 508 593 420 593 398 593 c 0
 396 593 l 5xe0
 406 500 410 387 410 322 c 0
 410 194 400 124 360 63 c 0
 329 18 276 -1 225 -2 c 0
 224 -2 221 -2 220 -2 c 0
 170 -2 121 15 92 53 c 0
 44 114 39 170 36 195 c 1
 91 205 l 1
 96 172 95 136 134 88 c 0
 150 67 186 53 224 53 c 0
 262 53 295 67 312 94 c 5
 340 135 355 173 355 286 c 0xd0
 355 301 354 315 354 332 c 5
 354 384 347 522 340 593 c 1
 324 593 261 595 239 595 c 2
 197 594 172 588 172 588 c 1
 157 642 l 1
 157 642 189 649 237 650 c 0
 255 650 315 649 331 649 c 0
 332 649 l 2
 334 649 l 0
 355 649 528 649 533 649 c 1xe0
EndSplineSet
EndChar
StartChar: K
Encoding: 75 75 34
Width: 526
VWidth: 0
Flags: HW
HStem: -3 10G<54 111>
VStem: 59 57<2 232 306 653>
LayerCount: 2
Fore
SplineSet
115 488 m 0
 115 306 l 1
 160 367 221 431 278 489 c 0
 368 579 448 650 448 650 c 1
 487 605 l 1
 487 605 407 535 320 447 c 0
 292 418 262 387 235 357 c 0
 235 356 292 296 353 223 c 0
 415 150 480 71 505 21 c 1
 452 -7 l 1
 434 27 368 113 307 184 c 0
 255 246 208 296 196 311 c 1
 157 265 127 221 114 190 c 1
 114 57 l 1
 113 23 110 -3 110 -3 c 1
 54 2 l 1
 54 2 56 27 57 58 c 0
 57 83 58 205 59 325 c 0
 59 385 59 446 59 492 c 1
 58 523 55 631 54 653 c 1
 110 656 l 1
 111 635 114 522 115 488 c 0
EndSplineSet
EndChar
StartChar: L
Encoding: 76 76 35
Width: 513
VWidth: 0
Flags: HW
HStem: 0 56<110 462>
VStem: 55 57<56 646>
LayerCount: 2
Fore
SplineSet
53 650 m 5
 109 646 l 5
 109 645 109 643 109 641 c 4
 109 626 112 601 112 574 c 4
 112 571 112 565 112 562 c 5
 112 483 l 4
 112 438 112 381 112 320 c 4
 112 204 110 86 110 56 c 5
 137 56 204 56 267 56 c 4
 333 56 399 56 402 56 c 4
 432 57 442 60 463 66 c 5
 479 12 l 5
 458 6 438 1 403 0 c 4
 391 0 333 0 267 0 c 4
 201 0 129 0 107 0 c 5
 53 -3 l 6
 53 -3 53 5 53 22 c 4
 53 30 53 41 53 53 c 4
 53 55 l 4
 53 78 55 200 55 320 c 4
 55 381 55 438 55 483 c 4
 55 528 56 556 56 564 c 4
 56 567 56 571 56 574 c 4
 56 597 53 620 53 641 c 4
 53 644 53 648 53 650 c 5
EndSplineSet
EndChar
StartChar: M
Encoding: 77 77 36
Width: 624
VWidth: 0
Flags: HW
HStem: -1 9G<55 111 512 570>
VStem: 54 56<2 540> 508 56<1 551>
LayerCount: 2
Fore
SplineSet
107 653 m 1
 120 638 137 613 159 578 c 0
 181 543 208 500 233 459 c 0
 271 397 289 364 304 339 c 1
 320 364 340 397 380 459 c 0
 407 500 434 543 457 578 c 0
 480 612 496 636 509 651 c 0
 510 651 l 2
 510 653 l 2
 511 651 l 1
 566 648 l 2
 566 648 566 642 566 626 c 0
 566 619 566 609 566 597 c 1
 566 596 l 2
 566 572 567 450 567 330 c 0
 567 269 567 210 567 165 c 0
 567 122 568 86 568 86 c 0
 569 55 572 23 573 1 c 1
 516 -2 l 1
 515 19 512 51 511 85 c 0
 511 93 511 120 511 165 c 0
 511 210 511 269 511 330 c 0
 511 415 510 499 510 551 c 1
 509 549 507 547 506 545 c 0
 483 511 457 468 430 427 c 0
 378 344 331 269 331 269 c 1
 322 254 l 1
 306 254 l 1
 303 254 l 1
 286 254 l 1
 278 269 l 2
 278 269 232 346 182 429 c 0
 159 468 134 507 113 540 c 1
 113 527 113 508 113 485 c 0
 113 440 113 383 113 322 c 0
 113 202 114 79 114 56 c 2
 114 44 114 32 114 24 c 0
 114 -1 l 1
 59 2 l 1
 59 2 58 17 57 53 c 1
 57 55 l 1
 57 79 57 202 57 322 c 0
 57 383 57 440 57 485 c 0
 57 528 56 564 56 564 c 0
 55 595 52 627 51 649 c 1
 106 653 l 1
 107 653 l 1
EndSplineSet
EndChar
StartChar: N
Encoding: 78 78 37
Width: 601
VWidth: 0
Flags: HW
HStem: 0 10G<64 120 482 539>
VStem: 63 56<3 546> 490 57<111 650>
LayerCount: 2
Fore
SplineSet
60 565 m 0
 59 596 56 628 55 650 c 1
 110 654 l 1
 111 655 l 1
 118 647 126 634 141 614 c 0
 156 594 172 569 193 539 c 0
 234 479 285 403 335 328 c 0
 391 243 443 164 481 108 c 1
 481 160 481 242 481 323 c 0
 481 384 483 442 483 487 c 0
 483 532 483 560 483 568 c 0
 484 602 487 633 488 654 c 1
 544 650 l 1
 543 628 540 596 539 565 c 2
 539 565 539 532 539 487 c 0
 539 442 539 383 539 322 c 0
 539 202 537 80 537 56 c 2
 537 55 l 1
 537 43 537 32 537 25 c 0
 537 3 l 1
 480 0 l 1
 480 0 480 1 480 2 c 0
 479 3 386 147 287 295 c 0
 237 370 186 445 145 505 c 0
 135 520 125 534 117 546 c 1
 117 533 117 512 117 487 c 0
 117 442 117 384 117 323 c 0
 117 203 118 79 118 57 c 1
 118 45 118 33 118 25 c 0
 118 0 l 1
 62 3 l 1
 62 3 63 19 62 55 c 1
 62 56 l 1
 62 80 62 203 62 323 c 0
 62 384 60 520 60 565 c 0
EndSplineSet
EndChar
StartChar: O
Encoding: 79 79 38
Width: 616
VWidth: 0
Flags: HW
HStem: -2 57<203 410> 593 58<237 415>
VStem: 30 57<182 423> 523 56<189 462>
LayerCount: 2
Fore
SplineSet
318 651 m 0
 321 651 327 651 330 651 c 0
 403 651 479 617 529 532 c 0
 564 471 579 407 579 334 c 0
 579 326 579 318 579 310 c 0
 577 253 571 182 525 106 c 0
 483 36 401 -2 308 -2 c 0
 305 -2 298 -2 295 -2 c 0
 232 0 171 15 118 65 c 0
 73 107 35 180 32 241 c 0
 31 257 30 272 30 285 c 0
 30 442 95 528 131 569 c 1
 132 570 l 2
 173 613 242 648 318 651 c 0
321 593 m 0
 261 591 202 560 173 530 c 0
 140 494 87 428 87 287 c 0
 87 274 87 260 88 245 c 0
 90 210 128 136 157 108 c 0
 198 69 242 57 298 55 c 0
 303 55 306 55 311 55 c 0
 386 55 445 85 476 137 c 0
 515 201 520 256 522 312 c 0
 522 320 523 331 523 339 c 0
 523 401 511 454 481 504 c 0
 441 573 387 593 331 593 c 0
 328 593 324 593 321 593 c 0
EndSplineSet
EndChar
StartChar: P
Encoding: 80 80 39
Width: 514
VWidth: 0
Flags: HW
HStem: 240 57<114 330> 595 56<115 352>
VStem: 58 57<1 241 298 592> 426 56<375 537>
LayerCount: 2
Fore
SplineSet
58 482 m 4
 58 502 58 620 58 633 c 4
 58 638 58 643 58 646 c 5
 115 650 l 6
 115 649 l 4
 139 649 164 650 189 650 c 4
 192 650 197 650 200 650 c 4
 227 650 255 648 282 646 c 4
 344 640 403 623 444 576 c 4
 471 545 482 503 482 458 c 4
 482 413 470 367 442 332 c 4
 406 287 356 264 298 252 c 4
 256 244 211 240 160 240 c 4
 145 240 130 241 114 241 c 5
 114 151 112 73 112 56 c 5
 112 55 l 5
 111 21 109 -5 109 -5 c 5
 53 1 l 5
 53 1 56 25 57 56 c 4
 57 81 57 201 58 320 c 4
 58 380 58 437 58 482 c 4
201 595 m 4
 173 595 144 592 115 592 c 5
 115 582 115 572 115 562 c 4
 115 557 115 550 115 537 c 4
 115 524 115 504 115 482 c 4
 115 437 114 380 114 320 c 4
 114 313 114 305 114 298 c 5
 134 297 151 297 168 297 c 4
 213 297 253 299 287 306 c 4
 337 316 373 334 398 367 c 4
 415 389 426 424 426 458 c 4
 426 492 415 524 402 540 c 4
 374 571 331 585 276 591 c 4
 252 593 228 595 201 595 c 4
EndSplineSet
EndChar
StartChar: Q
Encoding: 81 81 40
Width: 611
VWidth: 0
Flags: HW
HStem: -64 56<437 551> -1 57<250 373> 152 58<257 348> 595 57<202 408>
VStem: 27 56<200 459> 188 57<92 131> 522 57<186 457>
LayerCount: 2
Fore
SplineSet
304 652 m 1
 305 652 307 652 309 652 c 0
 401 652 481 612 523 542 c 0
 569 466 576 397 578 340 c 0
 578 332 579 321 579 313 c 0
 579 243 564 179 529 118 c 0
 504 75 470 44 432 24 c 1
 433 17 436 13 442 8 c 0
 449 2 464 -4 481 -6 c 0
 491 -7 501 -8 509 -8 c 0
 532 -8 551 -5 551 -5 c 1
 560 -62 l 1
 560 -62 540 -64 515 -64 c 0
 502 -64 487 -64 472 -62 c 0
 450 -59 428 -52 407 -36 c 0
 395 -26 384 -12 379 5 c 1
 359 2 341 -1 321 -1 c 0
 318 -1 312 -1 309 -1 c 0
 229 2 153 37 111 80 c 2
 110 81 l 1
 59 143 27 216 27 322 c 0
 27 349 28 380 33 411 c 0
 43 482 76 543 118 583 c 0
 170 633 231 650 294 652 c 0
 297 652 301 652 304 652 c 1
312 595 m 0
 307 595 302 595 297 595 c 0
 241 593 197 581 156 542 c 0
 125 513 96 460 88 402 c 0
 83 371 83 341 83 317 c 0
 83 226 109 174 154 119 c 0
 162 111 173 100 188 92 c 1
 188 122 197 147 212 167 c 0
 235 196 268 210 297 210 c 0
 339 210 378 189 401 156 c 0
 416 136 424 112 429 87 c 1
 449 100 466 121 481 146 c 0
 510 196 522 249 522 311 c 0
 522 319 521 330 521 338 c 0
 519 394 514 448 475 512 c 0
 445 563 387 594 312 595 c 0
298 152 m 0
 287 152 268 147 257 132 c 0
 251 124 245 113 245 96 c 0
 245 88 247 77 250 66 c 1
 270 60 290 57 311 56 c 0
 314 56 319 56 322 56 c 0
 340 56 357 59 374 62 c 1
 372 86 365 108 354 124 c 0
 339 144 322 152 298 152 c 0
EndSplineSet
EndChar
StartChar: R
Encoding: 82 82 41
Width: 538
VWidth: 0
Flags: HW
HStem: -2 10G<45 102> 265 57<98 235> 595 57<98 309>
VStem: 42 56<4 265 319 593> 418 57<360 508>
LayerCount: 2
Fore
SplineSet
165 652 m 5
 293 652 385 637 446 562 c 4
 474 527 490 492 492 446 c 5
 492 430 l 6
 492 389 478 349 455 320 c 4
 422 279 379 260 327 252 c 5
 372 195 448 101 483 63 c 4
 485 61 515 39 521 39 c 5
 499 -17 l 5
 479 -9 455 6 440 23 c 4
 389 76 284 208 254 247 c 5
 209 250 162 258 115 265 c 5
 115 60 l 5
 116 29 118 5 118 5 c 5
 62 -2 l 5
 62 -2 60 24 59 58 c 5
 59 60 l 6
 59 82 58 203 58 322 c 4
 58 441 57 556 57 564 c 4
 57 595 56 617 54 646 c 5
 72 647 138 651 165 652 c 5
435 442 m 5
 425 560 318 595 167 595 c 4
 150 595 133 593 113 593 c 5
 113 564 l 6
 113 557 115 442 115 323 c 6
 115 322 l 5
 171 314 221 300 269 300 c 4
 277 300 287 301 295 302 c 4
 358 309 435 340 435 430 c 6
 435 442 l 5
EndSplineSet
EndChar
StartChar: S
Encoding: 83 83 42
Width: 530
VWidth: 0
Flags: HW
HStem: -3 57<163 380> 511 10G<418 472> 596 56<160 372>
VStem: 25 56<132 214> 56 56<442 554> 421 56<521 555> 453 55<122 265>
LayerCount: 2
Fore
SplineSet
262 651 m 0xea
 300 651 339 646 375 633 c 0
 423 615 466 580 477 522 c 1
 421 511 l 1xec
 414 547 392 568 356 581 c 0
 328 591 294 596 260 596 c 0
 250 596 240 596 230 595 c 0
 191 592 155 577 134 556 c 0
 119 541 111 525 111 504 c 0
 111 494 113 485 116 474 c 0
 124 445 142 430 171 418 c 0
 200 406 237 398 278 391 c 0
 319 384 363 376 402 358 c 0
 441 340 477 311 494 264 c 0
 504 239 508 214 508 191 c 0xea
 508 152 497 118 477 90 c 0
 447 45 401 16 354 5 c 0
 330 -1 301 -3 273 -3 c 0
 246 -3 218 -1 191 6 c 0
 135 21 80 51 52 109 c 0
 27 160 25 205 25 217 c 0
 25 219 l 1
 81 214 l 1
 81 214 81 213 81 212 c 0xf4
 81 202 82 173 102 134 c 0
 122 94 159 72 205 61 c 0
 228 56 252 54 276 54 c 0
 299 54 321 57 341 60 c 0
 374 67 409 90 431 121 c 0
 444 141 453 164 453 189 c 0
 453 206 449 224 442 245 c 0
 430 276 409 295 379 308 c 0
 349 321 310 329 269 336 c 0
 228 343 187 350 149 367 c 0
 111 384 78 412 63 457 c 0
 58 472 56 485 56 500 c 0
 56 538 71 572 94 595 c 0
 127 628 175 647 225 650 c 0
 237 651 250 651 262 651 c 0xea
EndSplineSet
EndChar
StartChar: T
Encoding: 84 84 43
Width: 591
VWidth: 0
Flags: HW
HStem: -3 10G<260 316> 591 60<29 257 312 550>
VStem: 259 56<0 591>
LayerCount: 2
Fore
SplineSet
257 592 m 1
 158 592 60 593 29 593 c 1
 29 653 l 1
 91 653 399 650 492 650 c 0
 522 650 560 644 560 644 c 1
 550 585 l 2
 550 585 512 591 492 591 c 0
 456 591 386 591 312 591 c 1
 312 581 313 573 313 563 c 0
 313 555 315 528 315 483 c 0
 315 438 315 379 315 318 c 0
 315 198 315 74 315 52 c 1
 316 14 316 -3 316 -3 c 1
 260 0 l 1
 260 0 260 15 259 51 c 1
 259 63 259 186 259 313 c 0
 259 440 259 569 257 592 c 1
EndSplineSet
EndChar
StartChar: U
Encoding: 85 85 44
Width: 597
VWidth: 0
Flags: HW
HStem: -3 56<194 390>
VStem: 50 56<322 653> 485 57<150 647>
LayerCount: 2
Fore
SplineSet
495 656 m 1
 549 648 l 1
 544 618 542 607 542 580 c 0
 542 505 543 440 543 383 c 0
 543 336 541 293 539 255 c 0
 533 172 517 110 475 65 c 0
 432 19 365 -1 301 -3 c 0
 296 -3 293 -3 288 -3 c 0
 228 -3 169 11 131 50 c 0
 88 95 65 152 57 227 c 0
 49 302 51 399 50 540 c 0
 50 558 50 575 50 593 c 0
 50 613 50 632 51 655 c 1
 107 653 l 1
 106 630 105 611 105 593 c 0
 105 575 105 558 105 540 c 2
 106 399 105 301 113 232 c 0
 121 163 136 125 171 90 c 0
 193 68 239 52 289 52 c 0
 291 52 295 52 298 52 c 0
 351 54 406 73 435 104 c 0
 464 134 477 181 483 259 c 0
 485 289 487 323 487 361 c 0
 487 423 485 495 485 580 c 0
 485 611 490 627 495 656 c 1
EndSplineSet
EndChar
StartChar: V
Encoding: 86 86 45
Width: 545
VWidth: 0
Flags: HW
HStem: 0 10G<238 290>
LayerCount: 2
Fore
SplineSet
70 661 m 1
 82 638 99 594 121 532 c 0
 143 470 168 395 193 322 c 0
 229 216 249 162 265 115 c 1
 282 162 301 217 339 322 c 0
 366 395 393 468 416 530 c 1
 439 593 450 624 468 660 c 1
 518 632 l 1
 512 619 493 571 470 510 c 0
 447 449 421 375 394 302 c 0
 342 156 293 20 293 20 c 1
 287 0 l 1
 265 0 l 1
 263 0 l 1
 241 0 l 1
 235 20 l 1
 235 20 189 157 139 303 c 0
 114 376 88 450 66 511 c 0
 44 572 24 623 18 635 c 1
 70 661 l 1
EndSplineSet
EndChar
StartChar: W
Encoding: 87 87 46
Width: 821
VWidth: 0
Flags: HW
HStem: -1 10G<241 293 520 573>
VStem: 379 53<542 564>
LayerCount: 2
Fore
SplineSet
72 661 m 1
 84 638 101 594 123 532 c 0
 145 470 172 394 197 321 c 0
 232 220 247 175 264 125 c 5
 276 167 282 192 302 262 c 0
 333 380 368 509 374 542 c 2
 379 565 l 1
 403 564 l 1
 407 564 l 1
 432 564 l 1
 436 539 l 2
 437 526 448 485 461 434 c 0
 474 383 492 323 509 263 c 0
 530 189 538 162 550 120 c 1
 567 168 586 218 622 321 c 0
 649 394 675 468 698 530 c 0
 721 592 739 637 750 659 c 1
 800 632 l 1
 794 619 775 570 752 509 c 0
 729 448 703 373 676 300 c 0
 624 154 576 18 576 18 c 1
 569 -1 l 1
 548 -1 l 1
 546 -1 l 1
 523 -1 l 1
 517 20 l 1
 517 20 486 131 452 249 c 0
 435 307 417 369 404 420 c 1
 391 369 374 308 358 248 c 0
 327 130 297 21 297 21 c 1
 291 -1 l 1
 269 -1 l 1
 265 -1 l 1
 245 -1 l 1
 237 20 l 1
 237 20 192 156 142 302 c 0
 117 375 91 450 69 511 c 0
 47 572 28 621 22 633 c 1
 72 661 l 1
EndSplineSet
EndChar
StartChar: X
Encoding: 88 88 47
Width: 613
VWidth: 0
Flags: HW
LayerCount: 2
Fore
SplineSet
516 667 m 1
 562 633 l 1
 332 330 l 1
 420 208 509 95 585 29 c 1
 547 -16 l 1
 467 54 380 163 294 281 c 1
 73 -11 l 1
 27 24 l 1
 259 330 l 1
 186 432 116 536 51 628 c 1
 98 663 l 1
 160 575 227 474 295 378 c 1
 516 667 l 1
EndSplineSet
EndChar
StartChar: Y
Encoding: 89 89 48
Width: 549
VWidth: 0
Flags: HW
HStem: -1 10G<235 292>
VStem: 235 57<1 323>
LayerCount: 2
Fore
SplineSet
71 664 m 5
 87 634 142 549 193 474 c 4
 232 417 254 388 269 366 c 1
 285 387 307 415 348 472 c 0
 401 546 460 634 476 663 c 1
 527 635 l 1
 505 594 449 512 396 437 c 0
 345 366 300 305 295 299 c 1
 295 275 294 248 294 219 c 0
 293 151 292 79 292 57 c 2
 292 56 l 2
 292 44 292 32 292 24 c 0
 292 -1 l 1
 235 1 l 1
 235 1 235 7 235 23 c 0
 235 30 235 41 235 53 c 1
 235 55 l 1
 235 80 236 151 237 220 c 0
 238 250 239 280 239 304 c 1
 229 317 191 374 146 439 c 0
 95 514 39 596 18 636 c 1
 71 664 l 5
EndSplineSet
EndChar
StartChar: Z
Encoding: 90 90 49
Width: 584
VWidth: 0
Flags: HW
HStem: 0 58<118 525> 592 60<75 462>
LayerCount: 2
Fore
SplineSet
27 38 m 17
 462 592 l 1
 363 592 135 591 75 591 c 1
 75 650 l 1
 136 650 381 652 474 652 c 0
 504 652 540 646 540 646 c 1
 539 634 533 592 532 586 c 1
 118 60 l 1
 181 60 331 58 406 58 c 0
 418 58 428 58 436 58 c 0
 479 58 493 59 527 69 c 1
 544 12 l 1
 524 6 504 1 469 0 c 0
 445 0 396 0 341 0 c 0
 232 0 97 0 70 0 c 1
 27 38 l 17
EndSplineSet
EndChar
StartChar: bracketleft
Encoding: 91 91 96
Width: 331
VWidth: 0
Flags: HW
HStem: -191 56<91 304> 637 55<90 295>
VStem: 36 55<-138 637>
LayerCount: 2
Fore
SplineSet
288 697 m 1
 295 699 l 1
 302 643 l 1
 302 643 273 641 240 641 c 0
 227 640 143 638 90 637 c 1
 90 626 88 623 88 608 c 1
 88 606 88 595 88 575 c 0
 88 555 90 530 90 497 c 0
 90 432 90 345 91 259 c 0
 91 144 91 26 91 -45 c 0
 91 -81 91 -106 91 -114 c 2
 91 -115 l 2
 91 -131 91 -130 91 -138 c 1
 144 -137 223 -136 234 -136 c 0
 237 -136 243 -136 246 -136 c 0
 277 -136 310 -139 310 -139 c 1
 304 -195 l 1
 304 -195 273 -191 245 -191 c 0
 242 -191 238 -191 235 -191 c 0
 217 -191 105 -193 63 -194 c 2
 35 -195 l 1
 34 -166 l 1
 34 -166 34 -149 36 -114 c 0
 36 -113 l 2
 36 -92 36 86 35 259 c 0
 35 345 35 431 34 495 c 0
 34 528 34 554 34 574 c 0
 34 595 34 604 34 609 c 0
 34 637 35 664 35 664 c 1
 36 691 l 1
 62 691 l 2
 107 691 224 695 239 695 c 0
 269 696 288 697 288 697 c 1
EndSplineSet
EndChar
StartChar: backslash
Encoding: 92 92 115
Width: 411
VWidth: 0
Flags: HW
VStem: 303 83<18 62>
LayerCount: 2
Fore
SplineSet
336 -10 m 0
 328 10 316 37 303 65 c 0
 303 66 286 101 263 148 c 0
 241 194 211 254 181 316 c 0
 120 440 58 566 48 586 c 1
 48 587 l 1
 47 587 l 1
 32 620 25 632 25 632 c 2
 73 661 l 1
 73 661 82 644 97 611 c 1
 98 610 l 0
 109 589 169 464 230 340 c 0
 260 278 289 218 312 172 c 0
 335 125 351 95 353 90 c 0
 366 60 379 30 386 12 c 1
 336 -10 l 0
EndSplineSet
EndChar
StartChar: bracketright
Encoding: 93 93 97
Width: 333
VWidth: 0
Flags: HW
HStem: -197 56<33 240> 635 55<24 239>
VStem: 239 55<-139 636>
LayerCount: 2
Fore
SplineSet
239 239 m 2
 239 256 239 628 239 636 c 1
 186 635 106 635 96 635 c 0
 91 635 86 635 80 635 c 0
 50 635 20 637 20 637 c 1
 24 691 l 1
 24 693 l 1
 24 693 57 689 85 689 c 0
 88 689 91 689 94 689 c 0
 112 689 224 690 267 691 c 2
 293 693 l 1
 294 664 l 1
 294 664 294 647 293 611 c 0
 293 610 l 2
 293 603 293 579 293 544 c 0
 293 473 293 355 293 240 c 0
 294 153 294 67 295 2 c 0
 295 -31 295 -58 295 -78 c 0
 295 -98 295 -106 295 -111 c 0
 294 -138 293 -167 293 -167 c 1
 293 -192 l 1
 267 -194 l 2
 222 -194 106 -196 91 -197 c 0
 61 -197 33 -201 33 -201 c 1
 28 -146 l 1
 28 -146 56 -143 90 -142 c 0
 102 -142 186 -140 239 -139 c 1
 240 -128 240 -125 240 -110 c 1
 240 -110 240 -98 240 -78 c 0
 240 -58 240 -31 240 2 c 0
 240 66 239 153 239 239 c 2
EndSplineSet
EndChar
StartChar: asciicircum
Encoding: 94 94 116
Width: 351
VWidth: 0
Flags: HW
HStem: 334 146
VStem: 31 288
LayerCount: 2
Fore
SplineSet
176 480 m 1
 319 376 l 1
 292 334 l 1
 176 412 l 1
 60 334 l 1
 31 376 l 1
 176 480 l 1
EndSplineSet
EndChar
StartChar: underscore
Encoding: 95 95 117
Width: 503
VWidth: 0
Flags: HW
HStem: -56 56<1 504>
LayerCount: 2
Fore
SplineSet
56 0 m 0
 83 0 148 0 211 0 c 0
 277 0 427 0 430 0 c 0
 460 1 482 0 504 2 c 1
 504 -52 l 1
 483 -54 466 -55 431 -56 c 0
 419 -56 277 -56 211 -56 c 0
 145 -56 74 -56 52 -56 c 1
 0 -56 l 1
 0 -56 0 -38 1 0 c 0
 56 0 l 0
EndSplineSet
EndChar
StartChar: grave
Encoding: 96 96 118
Width: 227
VWidth: 0
Flags: HW
HStem: 630 142
VStem: -3 234
LayerCount: 2
Fore
SplineSet
27 771 m 21
 88 724 160 698 230 676 c 13
 213 630 l 21
 140 651 54 681 -3 728 c 13
 27 771 l 21
EndSplineSet
EndChar
StartChar: a
Encoding: 97 97 0
Width: 493
VWidth: 0
Flags: HW
HStem: -3 56<113 273> 257 56<153 337> 447 55<152 315>
VStem: 29 55<82 200> 358 56<124 235 290 406>
AnchorPoint: "accents" 231 584 basechar 0
LayerCount: 2
Back
SplineSet
114.2578125 151.85546875 m 4x7c
 114.2578125 100.5859375 141.6015625 71.2890625 187.01171875 71.2890625 c 4
 274.90234375 71.2890625 327.1484375 148.4375 339.84375 168.45703125 c 5
 339.84375 214.84375 l 5
 312.01171875 231.93359375 272.94921875 246.09375 238.76953125 246.09375 c 4
 172.36328125 246.09375 114.2578125 209.47265625 114.2578125 151.85546875 c 4x7c
416.50390625 155.2734375 m 4
 416.50390625 138.18359375 416.50390625 92.7734375 422.8515625 84.47265625 c 4
 429.19921875 75.68359375 447.265625 64.453125 461.42578125 53.22265625 c 5
 420.8984375 -4.8828125 l 5xbc
 395.5078125 14.6484375 366.2109375 26.85546875 357.421875 76.171875 c 5
 319.3359375 39.55078125 275.87890625 -2.9296875 187.01171875 -2.9296875 c 4
 103.515625 -2.9296875 38.0859375 65.91796875 38.0859375 146.97265625 c 4
 38.0859375 184.08203125 52.734375 227.5390625 81.54296875 257.32421875 c 4
 127.9296875 304.6875 177.24609375 316.40625 234.86328125 316.40625 c 4
 276.3671875 316.40625 312.98828125 307.6171875 339.35546875 291.50390625 c 5
 339.35546875 386.71875 306.640625 428.22265625 232.421875 428.22265625 c 4
 165.0390625 428.22265625 138.18359375 404.296875 99.12109375 334.47265625 c 5
 35.64453125 374.51171875 l 5
 82.51953125 463.37890625 144.53125 500.48828125 231.4453125 501.953125 c 5
 341.30859375 501.953125 414.55078125 428.7109375 414.55078125 320.80078125 c 4
 416.50390625 155.2734375 l 4
EndSplineSet
Fore
SplineSet
275 311 m 1
 309 309 334 302 358 290 c 1
 358 320 l 0
 358 374 344 403 321 421 c 0
 298 438 267 447 238 447 c 0
 169 446 130 427 87 353 c 1
 42 380 l 1
 92 465 154 500 237 501 c 0
 239 501 242 501 244 501 c 0
 279 501 320 493 354 466 c 0
 392 438 414 392 414 323 c 1
 414 105 l 0
 414 88 418 74 424 67 c 0
 429 61 441 52 458 40 c 1
 424 -5 l 1
 408 7 393 18 380 34 c 0
 372 47 363 63 361 83 c 1
 340 61 323 36 285 19 c 0
 258 7 222 -3 186 -3 c 0
 155 -3 123 3 94 21 c 0
 53 48 29 96 29 144 c 0
 29 180 43 219 73 248 c 0
 123 295 187 312 245 312 c 0
 255 312 265 312 275 311 c 1
358 224 m 1
 351 227 339 235 327 240 c 0
 307 247 296 253 269 255 c 0
 262 256 252 257 245 257 c 0
 198 257 150 242 112 206 c 0
 92 188 84 165 84 143 c 0
 84 113 99 82 122 67 c 0
 138 57 160 52 182 52 c 0
 211 52 243 60 261 68 c 0
 326 99 348 139 358 156 c 1
 358 224 l 1
EndSplineSet
EndChar
StartChar: b
Encoding: 98 98 1
Width: 462
VWidth: 0
Flags: HW
HStem: -1 55<162 335> 443 56<140 307>
VStem: 44 56<9 55 110 405 459 691> 386 56<111 357>
LayerCount: 2
Fore
SplineSet
95 695 m 5
 95 695 96 673 97 638 c 4
 98 595 100 529 100 459 c 5
 127 480 162 498 209 499 c 4
 270 499 325 486 366 448 c 4
 407 412 432 355 439 281 c 4
 440 263 441 244 441 227 c 4
 441 181 435 139 419 101 c 4
 398 50 355 10 295 2 c 4
 279 0 265 -1 249 -1 c 4
 218 -1 188 4 158 16 c 4
 137 24 117 38 99 55 c 5
 98 19 94 -1 94 -1 c 5
 39 10 l 5
 39 10 42 26 44 61 c 4
 44 68 44 93 44 126 c 4
 44 127 l 5
 44 173 45 239 45 309 c 4
 45 429 44 564 42 637 c 4
 42 670 39 690 39 690 c 5
 95 695 l 5
100 373 m 4
 100 287 100 203 100 142 c 5
 123 102 150 78 180 66 c 4
 201 58 226 54 249 54 c 4
 262 54 275 55 288 57 c 4
 330 63 353 83 369 122 c 4
 380 150 386 186 386 227 c 4
 386 242 384 258 383 275 c 4
 377 340 358 383 329 407 c 4
 300 431 262 443 210 443 c 4
 170 443 142 426 124 408 c 4
 116 400 109 390 104 383 c 4
 103 380 101 375 100 373 c 4
EndSplineSet
EndChar
StartChar: c
Encoding: 99 99 2
Width: 472
VWidth: 0
Flags: HW
HStem: -5 57<161 361> 454 57<164 347>
VStem: 18 57<144 365>
LayerCount: 2
Fore
SplineSet
264 511 m 5
 286 511 307 506 328 501 c 4
 381 489 412 454 430 408 c 5
 376 385 l 5
 361 425 354 436 315 446 c 4
 295 449 275 454 254 454 c 4
 202 454 149 436 114 394 c 4
 97 372 75 332 75 257 c 4
 75 235 80 211 83 181 c 4
 86 156 118 103 142 85 c 4
 178 61 212 52 255 52 c 4
 258 52 264 52 267 52 c 4
 340 53 390 81 418 122 c 5
 466 91 l 5
 428 33 357 -4 270 -5 c 4
 267 -5 262 -5 259 -5 c 4
 206 -5 158 5 108 38 c 4
 63 71 31 124 24 171 c 4
 19 202 18 231 18 255 c 4
 18 345 44 398 68 431 c 4
 118 491 188 511 253 511 c 4
 256 511 261 511 264 511 c 5
EndSplineSet
EndChar
StartChar: d
Encoding: 100 100 3
Width: 483
VWidth: 0
Flags: HW
HStem: 1 55<143 313> 444 56<168 335>
VStem: 35 56<115 357> 376 56<12 55>
LayerCount: 2
Fore
SplineSet
375 376 m 0
 374 377 373 381 371 384 c 0
 368 391 361 401 351 409 c 0
 334 427 307 444 267 444 c 2
 215 444 176 432 148 408 c 0
 119 384 100 341 93 276 c 0
 92 260 91 244 91 229 c 0
 91 188 97 153 108 125 c 0
 124 86 148 66 190 60 c 0
 203 58 216 56 228 56 c 0
 251 56 276 61 297 69 c 0
 326 81 352 104 376 143 c 0
 376 155 376 172 376 190 c 0
 376 264 378 371 378 371 c 1
 378 371 376 374 375 376 c 0
421 695 m 1
 421 695 427 666 429 642 c 0
 432 592 434 542 434 482 c 0
 434 464 434 445 434 424 c 0
 433 368 432 313 432 262 c 0
 432 211 432 164 432 128 c 0
 432 128 432 128 432 127 c 0
 432 106 432 71 432 63 c 2
 432 62 l 2
 433 29 437 12 437 12 c 1
 383 1 l 1
 383 1 378 22 376 57 c 1
 358 41 338 26 317 18 c 0
 287 6 257 1 224 1 c 0
 209 1 197 1 182 3 c 0
 122 11 79 52 57 103 c 0
 42 139 35 180 35 225 c 0
 35 243 37 263 39 281 c 0
 46 355 69 411 110 449 c 0
 151 485 206 500 267 500 c 0
 315 499 351 480 378 458 c 1
 378 475 378 491 378 507 c 0
 378 554 376 596 374 638 c 0
 372 659 368 687 368 687 c 1
 421 695 l 1
EndSplineSet
EndChar
StartChar: e
Encoding: 101 101 4
Width: 513
VWidth: 0
Flags: HW
HStem: -7 56<174 365> 231 62<97 418> 453 56<181 345>
VStem: 34 61<137 223> 418 58<297 379>
AnchorPoint: "accents" 262 587 basechar 0
LayerCount: 2
Fore
SplineSet
265 509 m 0
 390 509 458 429 474 322 c 1
 475 304 476 286 476 275 c 0
 476 264 l 1
 474 239 l 1
 447 238 l 1
 447 238 364 233 278 231 c 0
 204 228 136 224 95 222 c 1
 101 167 119 117 149 88 c 0
 182 58 222 49 263 49 c 0
 281 49 304 52 322 55 c 0
 390 70 429 119 429 119 c 1
 475 83 l 1
 475 83 423 20 333 0 c 0
 310 -3 287 -7 262 -7 c 0
 211 -7 155 7 110 49 c 0
 58 99 34 174 34 257 c 0
 34 265 34 273 35 281 c 1
 41 403 127 509 265 509 c 0
94 283 m 1
 137 286 208 291 283 293 c 0
 353 295 398 297 418 297 c 0
 418 305 418 307 417 319 c 0
 406 401 346 453 265 453 c 0
 160 453 97 374 94 283 c 1
EndSplineSet
EndChar
StartChar: f
Encoding: 102 102 5
Width: 363
VWidth: 0
Flags: HW
HStem: 0 10G<73 128> 442 56<24 70 126 277> 642 55<161 291>
VStem: 73 56<0 442 499 610>
LayerCount: 2
Fore
SplineSet
278 438 m 1
 253 443 218 444 188 444 c 0
 158 444 132 442 126 442 c 1
 126 397 128 122 128 28 c 0
 128 15 128 5 128 0 c 1
 73 0 l 1
 73 1 73 28 73 68 c 0
 73 147 73 278 73 363 c 0
 73 404 73 436 73 442 c 1
 58 442 42 442 24 442 c 1
 24 498 l 1
 41 498 57 498 70 498 c 1
 70 520 69 527 69 530 c 0
 69 533 69 535 69 542 c 0
 71 599 94 641 127 665 c 0
 160 689 198 696 231 696 c 0
 232 696 235 696 236 696 c 0
 274 696 319 683 348 635 c 1
 300 608 l 1
 282 639 258 642 230 642 c 0
 208 642 181 636 161 621 c 0
 141 605 124 577 124 534 c 0
 124 531 124 521 124 499 c 1
 151 499 177 499 218 499 c 0
 260 498 288 490 288 490 c 1
 278 438 l 1
EndSplineSet
EndChar
StartChar: g
Encoding: 103 103 6
Width: 519
VWidth: 0
Flags: HW
HStem: -191 60<124 370> 30 57<123 400> 173 61<149 334> 442 60<163 345 423 484>
VStem: 35 58<-104 3> 45 60<98 196 272 387> 380 58<274 408> 421 60<-91 9>
AnchorPoint: "accents" 248 584 basechar 0
LayerCount: 2
Fore
SplineSet
311 87 m 1xf6
 312 87 313 87 314 87 c 0
 397 87 485 62 485 -31 c 0
 485 -164 356 -191 222 -191 c 0
 118 -191 40 -149 40 -51 c 0
 40 -49 40 -47 40 -45 c 0xf9
 40 5 63 29 96 53 c 1
 61 68 49 108 49 146 c 0
 49 186 64 209 76 224 c 0
 78 227 82 232 84 235 c 1
 62 258 48 287 48 322 c 0
 48 420 137 501 251 501 c 0
 304 501 350 489 386 465 c 1
 403 482 432 497 463 499 c 1
 475 501 489 501 489 501 c 1
 491 442 l 1
 481 442 449 439 443 434 c 0xf6
 438 432 432 426 426 420 c 1xf1
 437 399 443 377 443 350 c 0
 443 305 434 266 406 235 c 0
 375 199 311 173 241 173 c 0
 202 173 166 183 133 199 c 1
 120 185 l 0
 113 177 109 168 109 148 c 1
 109 95 135 86 215 86 c 0
 240 86 273 87 311 87 c 1xf6
385 350 m 0xf2
 385 419 326 442 251 442 c 0
 164 442 107 384 107 322 c 0
 107 264 180 234 244 234 c 0
 299 234 347 255 363 273 c 0
 378 290 385 314 385 350 c 0xf2
162 29 m 1
 114 5 99 -11 98 -46 c 1
 98 -74 104 -91 117 -103 c 0
 134 -119 173 -132 224 -132 c 0
 305 -132 412 -122 423 -61 c 0
 424 -51 426 -41 426 -33 c 1xf9
 425 22 369 30 284 30 c 0
 248 30 207 30 162 29 c 1
EndSplineSet
EndChar
StartChar: h
Encoding: 104 104 8
Width: 465
VWidth: 0
Flags: HW
HStem: -2 10G<42 101 404 419> 442 56<145 305>
VStem: 42 57<-2 399 455 689> 345 56<59 399>
LayerCount: 2
Fore
SplineSet
42 -2 m 1
 44 77 46 150 46 219 c 0
 46 353 42 478 42 624 c 1
 42 651 42 672 40 689 c 1
 99 689 l 1
 99 455 l 1
 127 477 165 498 213 498 c 0
 274 498 322 487 356 449 c 0
 389 413 399 360 399 286 c 0
 400 203 401 163 401 106 c 0
 401 85 407 76 412 70 c 0
 417 63 427 54 444 42 c 1
 412 -2 l 1
 396 10 379 20 367 36 c 0
 354 53 345 75 345 104 c 2
 345 154 l 2
 345 190 345 226 344 286 c 1
 344 354 333 392 315 412 c 0
 297 433 266 442 213 442 c 0
 157 442 119 406 101 368 c 1
 101 339 l 1
 103 294 103 219 103 151 c 0
 103 83 102 25 99 -2 c 1
 42 -2 l 1
EndSplineSet
EndChar
StartChar: i
Encoding: 105 105 9
Width: 204
VWidth: 0
Flags: HW
HStem: 583 64<70 133>
VStem: 74 56<51 499 585 647>
LayerCount: 2
Fore
SplineSet
127 501 m 1
 127 501 129 484 129 457 c 0
 129 437 129 409 129 379 c 0
 129 296 128 175 127 89 c 0
 129 68 132 59 138 51 c 0
 144 44 155 35 172 23 c 9
 143 -15 l 17
 126 -8 104 2 92 19 c 0
 80 36 73 58 71 86 c 2
 71 87 l 1
 72 173 74 296 74 379 c 0
 74 409 74 437 74 457 c 0
 74 481 73 499 73 499 c 1
 127 501 l 1
70 647 m 1
 133 647 l 1
 133 585 l 1
 70 583 l 1
 70 647 l 1
EndSplineSet
EndChar
StartChar: j
Encoding: 106 106 10
Width: 319
VWidth: 0
Flags: HW
HStem: -196 56<94 199> 584 64<205 268>
VStem: 205 63<-124 494 585 648>
LayerCount: 2
Fore
SplineSet
205 648 m 5
 268 648 l 5
 268 585 l 5
 205 584 l 5
 205 648 l 5
262 502 m 6
 262 502 267 474 267 453 c 4
 267 400 266 347 266 294 c 4
 266 241 267 185 267 127 c 4
 267 56 268 2 268 -40 c 4
 268 -50 268 -60 268 -68 c 4
 266 -111 259 -145 235 -167 c 4
 212 -185 183 -196 154 -196 c 4
 138 -196 122 -193 106 -188 c 4
 63 -173 23 -140 2 -90 c 5
 55 -68 l 5
 70 -103 96 -126 124 -136 c 4
 135 -139 146 -141 154 -141 c 4
 171 -141 186 -135 197 -125 c 4
 204 -119 209 -105 211 -65 c 4
 211 -58 211 -49 211 -41 c 4
 211 -1 210 53 209 127 c 4
 209 243 209 345 210 453 c 4
 210 463 205 494 205 494 c 5
 262 502 l 6
EndSplineSet
EndChar
StartChar: k
Encoding: 107 107 11
Width: 491
VWidth: 0
Flags: HW
HStem: 0 10G<61 117 425 442> 444 56<223 355>
VStem: 60 56<0 241 294 374 426 686> 370 55<290 428>
LayerCount: 2
Fore
SplineSet
430 69 m 5
 435 63 448 51 465 38 c 5
 438 0 l 5
 418 10 398 19 386 36 c 4
 363 69 359 103 351 125 c 5
 315 221 180 235 118 241 c 5
 118 217 118 192 118 168 c 4
 118 144 118 121 118 98 c 4
 118 81 118 15 119 0 c 5
 63 0 l 5
 63 7 62 61 62 86 c 4
 62 92 62 97 62 99 c 4
 63 208 64 342 64 453 c 4
 64 536 64 605 62 646 c 4
 61 656 55 687 55 687 c 5
 109 699 l 5
 109 699 117 670 117 649 c 5
 119 606 120 541 120 465 c 4
 120 441 120 455 120 426 c 5
 138 438 173 460 228 481 c 4
 255 491 284 500 304 500 c 4
 369 500 417 462 424 406 c 4
 425 395 427 381 427 368 c 4
 427 351 425 333 423 320 c 4
 420 303 405 248 339 228 c 5
 351 221 378 195 393 160 c 5
 404 136 419 87 430 69 c 5
256 435 m 4
 198 415 161 387 119 362 c 4
 119 362 119 322 119 297 c 21
 184 287 214 278 241 272 c 4
 257 269 271 268 283 268 c 4
 303 268 319 271 336 278 c 5
 365 293 372 328 372 358 c 4
 372 374 371 388 369 398 c 4
 364 420 347 444 307 444 c 4
 292 444 277 442 256 435 c 4
EndSplineSet
EndChar
StartChar: l
Encoding: 108 108 12
Width: 203
VWidth: 0
Flags: HW
HStem: -2 10G<127 144>
VStem: 66 56<62 683>
LayerCount: 2
Fore
SplineSet
123 696 m 1
 128 678 128 655 128 628 c 0
 128 606 128 562 128 506 c 0
 128 373 128 168 127 85 c 1
 128 65 132 56 137 48 c 1
 143 41 154 32 171 20 c 1
 143 -16 l 1
 123 -9 104 0 92 17 c 0
 80 34 74 55 72 83 c 1
 72 84 l 2
 73 167 73 374 73 507 c 0
 73 562 73 606 73 628 c 0
 73 650 70 680 69 682 c 1
 123 696 l 1
EndSplineSet
EndChar
StartChar: m
Encoding: 109 109 13
Width: 671
VWidth: 0
Flags: HW
HStem: -2 10G<57 114 313 369> 442 56<204 292 417 520>
VStem: 60 56<1 353 412 492> 310 56<1 405> 542 55<46 420>
LayerCount: 2
Fore
SplineSet
315 -2 m 1
 312 43 310 121 310 201 c 0
 310 280 311 357 311 393 c 0
 311 394 304 408 292 420 c 0
 280 431 263 441 252 442 c 0
 250 442 248 442 246 442 c 0
 235 442 227 438 207 423 c 0
 186 407 157 377 115 331 c 1
 115 216 115 48 113 0 c 1
 57 1 l 1
 59 40 60 167 60 276 c 0
 60 349 60 414 60 437 c 0
 60 460 56 490 55 493 c 1
 108 507 l 1
 115 483 114 447 115 412 c 1
 137 435 156 454 172 467 c 0
 196 485 219 498 247 498 c 0
 249 498 253 498 255 498 c 0
 293 495 324 470 344 446 c 1
 394 474 431 492 469 493 c 0
 472 493 476 493 479 493 c 0
 515 493 542 476 563 458 c 0
 581 440 597 418 597 390 c 0
 597 370 596 350 596 330 c 0
 596 250 600 171 600 91 c 1
 601 71 605 62 610 55 c 0
 616 48 626 37 643 24 c 1
 620 -9 l 1
 605 -7 577 5 565 22 c 0
 553 39 546 61 544 90 c 1
 544 91 l 2
 544 102 544 113 544 124 c 0
 544 199 542 277 542 356 c 0
 542 367 542 379 542 390 c 0
 542 391 536 406 524 417 c 0
 513 428 495 436 484 437 c 0
 482 437 481 437 479 437 c 0
 452 437 420 424 367 395 c 0
 367 394 367 394 367 393 c 0
 367 352 366 257 366 169 c 0
 366 103 366 39 369 1 c 1
 315 -2 l 1
EndSplineSet
EndChar
StartChar: n
Encoding: 110 110 15
Width: 496
VWidth: 0
Flags: HW
HStem: -3 10G<58 115 427 444> 447 52<201 337>
VStem: 61 56<1 396 447 495> 357 56<50 426>
AnchorPoint: "accents" 237 585 basechar 0
LayerCount: 2
Fore
SplineSet
111 505 m 1
 114 489 116 471 116 447 c 1
 178 477 224 497 269 499 c 0
 276 499 284 499 291 499 c 0
 324 497 352 482 374 464 c 0
 396 447 414 426 414 395 c 1
 414 394 l 1
 413 353 413 311 413 270 c 0
 413 210 415 151 417 94 c 1
 418 73 421 65 427 58 c 0
 433 50 444 42 461 29 c 1
 437 -7 l 1
 417 -4 395 8 383 25 c 0
 370 43 363 65 361 93 c 1
 359 149 357 208 357 268 c 0
 357 310 357 353 358 395 c 1
 358 395 354 412 339 424 c 0
 324 436 302 446 285 447 c 0
 283 447 280 447 278 447 c 0
 240 447 197 424 116 386 c 1
 116 276 116 57 114 -1 c 1
 58 1 l 1
 59 47 61 228 61 346 c 0
 61 389 61 423 61 439 c 0
 61 462 57 491 56 494 c 1
 111 505 l 1
EndSplineSet
EndChar
StartChar: o
Encoding: 111 111 14
Width: 515
VWidth: 0
Flags: HW
HStem: -2 56<164 329> 446 57<181 340>
VStem: 33 57<129 339> 420 57<157 359>
AnchorPoint: "accents" 258 585 basechar 0
LayerCount: 2
Fore
SplineSet
250 503 m 0
 346 503 405 461 443 396 c 0
 465 357 478 311 478 264 c 0
 478 246 475 226 472 208 c 0
 451 98 382 -4 250 -4 c 0
 151 -4 87 45 56 110 c 0
 40 144 33 183 33 224 c 0
 33 327 68 409 128 457 c 0
 162 485 204 503 250 503 c 0
288 443 m 0
 277 444 268 446 258 446 c 0
 220 446 188 433 164 412 c 0
 121 377 90 307 90 224 c 0
 90 190 96 159 108 135 c 0
 130 88 177 52 253 52 c 0
 293 52 324 65 351 87 c 0
 390 121 420 185 420 264 c 0
 420 358 368 430 288 443 c 0
EndSplineSet
EndChar
StartChar: p
Encoding: 112 112 7
Width: 492
VWidth: 0
Flags: HW
HStem: 1 55<176 349> 446 55<155 321>
VStem: 57 54<-185 60 116 405 461 488> 400 56<114 356>
LayerCount: 2
Fore
SplineSet
106 500 m 6
 106 500 109 487 111 460 c 5
 138 482 176 500 223 500 c 4
 225 500 228 500 230 500 c 4
 288 500 340 486 380 451 c 4
 421 413 445 356 452 282 c 4
 454 264 456 245 456 227 c 4
 456 182 449 140 434 104 c 4
 413 53 370 13 309 5 c 4
 293 3 276 1 260 1 c 4
 230 1 201 6 172 18 c 4
 151 26 129 42 111 60 c 5
 110 -16 110 -88 110 -134 c 4
 110 -164 118 -185 118 -185 c 5
 64 -202 l 5
 64 -202 55 -174 55 -136 c 4
 55 -10 57 298 57 403 c 4
 57 421 57 432 57 437 c 6
 57 441 l 5
 56 474 52 488 52 488 c 5
 106 500 l 6
113 375 m 4
 113 319 111 239 111 146 c 5
 135 105 163 81 194 69 c 4
 216 59 240 56 267 56 c 4
 278 56 288 57 300 58 c 4
 342 64 367 87 383 125 c 4
 394 153 400 189 400 229 c 4
 400 245 398 261 397 277 c 4
 390 342 371 384 343 408 c 4
 314 435 276 446 223 446 c 4
 184 445 156 429 138 411 c 4
 130 403 122 392 119 385 c 4
 117 382 114 377 113 375 c 4
EndSplineSet
EndChar
StartChar: q
Encoding: 113 113 16
Width: 493
VWidth: 0
Flags: HW
HStem: -1 56<168 337> 444 56<143 315>
VStem: 35 56<144 385> 381 56<-187 40 96 384 445 489>
LayerCount: 2
Fore
SplineSet
228 500 m 1
 230 500 232 500 234 500 c 0
 263 500 292 495 320 483 c 0
 341 475 361 460 379 443 c 1
 381 479 385 500 385 500 c 1
 439 488 l 2
 439 488 436 472 435 438 c 0
 435 407 437 12 437 -137 c 0
 437 -175 429 -204 429 -204 c 1
 375 -188 l 2
 375 -188 381 -166 381 -137 c 0
 381 -95 381 -29 381 40 c 1
 354 18 317 -1 269 -1 c 0
 207 -1 152 14 111 50 c 0
 70 86 46 142 39 217 c 0
 37 238 35 256 35 276 c 0
 35 321 41 362 57 397 c 0
 79 448 122 489 183 497 c 0
 198 499 212 500 228 500 c 1
381 128 m 1
 381 216 380 293 380 356 c 1
 356 396 328 418 298 431 c 0
 276 441 252 444 227 444 c 0
 215 444 202 443 190 442 c 0
 148 436 124 413 108 375 c 0
 97 348 91 312 91 271 c 0
 91 255 92 240 93 223 c 0
 100 158 120 116 148 91 c 0
 176 66 216 55 269 55 c 0
 309 55 336 72 354 90 c 0
 364 98 376 121 381 128 c 1
EndSplineSet
EndChar
StartChar: r
Encoding: 114 114 17
Width: 435
VWidth: 0
Flags: HW
HStem: -2 10G<59 116> 447 57<234 338> 501 10G<46 61>
VStem: 64 56<3 335 401 446> 359 57<362 443>
LayerCount: 2
Fore
SplineSet
318 504 m 4xd8
 335 504 352 500 365 493 c 4
 383 483 395 467 402 451 c 4
 414 424 416 395 416 373 c 4
 416 370 416 365 416 362 c 5
 359 362 l 5
 359 385 358 411 351 427 c 4
 348 434 344 440 338 443 c 4
 334 445 327 447 317 447 c 4xd8
 314 447 310 447 306 447 c 4
 236 440 185 409 120 303 c 5
 120 220 120 118 120 43 c 4
 120 23 116 8 115 -2 c 5
 59 3 l 5
 60 19 64 33 64 45 c 4
 64 67 64 94 64 119 c 4
 64 190 64 270 64 335 c 4
 64 358 64 380 64 398 c 4
 63 419 59 429 53 436 c 4
 47 444 36 452 19 465 c 5
 53 511 l 5xb8
 70 498 87 487 99 470 c 4
 111 453 119 430 120 402 c 6
 120 401 l 5
 176 466 234 497 299 504 c 4
 305 505 312 504 318 504 c 4xd8
EndSplineSet
EndChar
StartChar: s
Encoding: 115 115 18
Width: 408
VWidth: 0
Flags: HW
HStem: -1 56<130 281> 444 57<122 270>
VStem: 36 57<91 167> 54 56<76 167 352 430> 312 56<87 201>
LayerCount: 2
Fore
SplineSet
54 389 m 0xd8
 54 458 109 493 167 500 c 0
 174 500 181 501 188 501 c 0
 241 501 293 484 333 441 c 1
 292 403 l 1
 263 433 232 444 194 444 c 0
 151 444 110 432 110 391 c 0xd8
 110 366 114 361 141 345 c 1
 224 290 368 282 368 144 c 0
 368 70 315 20 260 5 c 0
 243 2 226 -1 206 -1 c 0
 135 -1 80 25 53 83 c 0
 37 118 36 154 36 166 c 0
 36 171 l 1
 93 167 l 1
 93 167 93 167 93 166 c 0xe8
 93 159 94 133 105 106 c 0
 121 71 158 55 206 55 c 0
 249 55 279 65 299 98 c 0
 306 110 312 125 312 143 c 0
 312 182 298 199 267 220 c 0
 226 249 155 267 112 295 c 0
 79 315 54 338 54 389 c 0xd8
EndSplineSet
EndChar
StartChar: t
Encoding: 116 116 19
Width: 412
VWidth: 0
Flags: HW
HStem: -3 57<161 318> 441 57<25 76 134 351>
VStem: 70 56<91 432> 76 56<220 439 498 597>
LayerCount: 2
Fore
SplineSet
79 598 m 0xd0
 136 597 l 1
 136 566 134 531 134 498 c 1
 161 498 187 498 214 498 c 0
 288 498 353 497 353 497 c 1
 351 441 l 1
 351 441 287 442 214 442 c 0
 187 442 159 441 132 441 c 0
 132 440 132 438 132 437 c 1xd0
 127 332 128 262 126 211 c 1
 126 204 126 196 126 190 c 0
 126 151 130 126 142 101 c 0
 157 72 181 58 222 55 c 0
 229 55 235 54 242 54 c 0
 276 54 287 57 303 65 c 0
 336 81 349 113 349 113 c 1
 399 92 l 1
 399 92 380 43 327 16 c 0
 299 1 285 -3 243 -3 c 0
 235 -3 225 -3 217 -2 c 0
 165 3 116 23 91 76 c 0
 74 111 70 147 70 190 c 0
 70 197 70 205 70 212 c 1xe0
 72 267 73 335 76 439 c 1
 54 438 36 436 24 435 c 1
 17 490 l 1
 33 492 54 494 78 495 c 1
 78 528 79 564 79 598 c 0xd0
EndSplineSet
EndChar
StartChar: u
Encoding: 117 117 20
Width: 486
VWidth: 0
Flags: HW
HStem: -3 57<142 266>
VStem: 59 57<68 490> 360 56<140 497>
AnchorPoint: "accents" 237 585 basechar 0
LayerCount: 2
Back
SplineSet
111.40625 504.9609375 m 5
 115.0390625 489.21875 116.25 471.0546875 116.25 446.8359375 c 5
 178.0078125 477.109375 224.0234375 496.484375 268.828125 498.90625 c 4
 276.09375 498.90625 283.359375 498.90625 290.625 498.90625 c 4
 323.3203125 496.484375 352.3828125 481.953125 374.1796875 463.7890625 c 4
 395.9765625 446.8359375 414.140625 426.25 414.140625 394.765625 c 5
 414.140625 393.5546875 l 5
 412.9296875 352.3828125 412.9296875 311.2109375 412.9296875 270.0390625 c 4
 412.9296875 210.703125 414.140625 151.3671875 416.5625 94.453125 c 5
 417.7734375 73.8671875 421.40625 65.390625 427.4609375 58.125 c 4
 433.515625 49.6484375 444.4140625 42.3828125 461.3671875 29.0625 c 5
 437.1484375 -3.6328125 l 5
 417.7734375 0 394.765625 8.4765625 382.65625 25.4296875 c 4
 369.3359375 43.59375 363.28125 65.390625 360.859375 93.2421875 c 5
 358.4375 148.9453125 357.2265625 208.28125 357.2265625 267.6171875 c 4
 357.2265625 310 357.2265625 352.3828125 358.4375 394.765625 c 5
 358.4375 394.765625 353.59375 411.71875 339.0625 423.828125 c 4
 324.53125 435.9375 301.5234375 445.625 284.5703125 446.8359375 c 4
 282.1484375 446.8359375 280.9375 446.8359375 278.515625 446.8359375 c 4
 240.9765625 446.8359375 197.3828125 423.828125 116.25 386.2890625 c 5
 116.25 276.09375 116.25 56.9140625 113.828125 -1.2109375 c 5
 58.125 1.2109375 l 5
 59.3359375 47.2265625 60.546875 228.8671875 60.546875 346.328125 c 4
 60.546875 389.921875 60.546875 423.828125 60.546875 439.5703125 c 4
 60.546875 462.578125 56.9140625 490.4296875 55.703125 494.0625 c 5
 111.40625 504.9609375 l 5
EndSplineSet
Fore
SplineSet
108 501 m 1
 111 485 115 459 116 447 c 0
 116 441 116 437 116 427 c 0
 116 417 116 405 116 389 c 0
 116 359 114 320 114 280 c 0
 114 240 114 197 114 166 c 0
 114 150 116 136 116 125 c 0
 116 107 l 1
 119 85 129 72 141 64 c 0
 153 56 169 54 185 54 c 0
 219 55 241 60 268 77 c 0
 293 93 322 122 360 165 c 1
 360 243 360 366 360 446 c 0
 360 464 360 486 360 499 c 1
 417 497 l 1
 417 485 416 464 416 446 c 0
 416 375 416 269 416 191 c 0
 416 152 416 121 416 104 c 1
 417 82 421 74 426 67 c 0
 432 60 443 51 461 38 c 1
 427 -7 l 1
 410 5 394 15 381 32 c 0
 371 45 364 63 361 84 c 1
 339 61 319 42 298 29 c 0
 264 7 228 -2 187 -3 c 0
 186 -3 183 -3 181 -3 c 0
 158 -3 132 4 109 19 c 0
 85 35 67 62 61 97 c 0
 60 105 59 113 59 124 c 0
 59 135 59 150 59 166 c 0
 59 199 59 240 59 280 c 0
 59 320 60 360 60 390 c 0
 60 406 60 417 60 427 c 0
 60 442 l 2
 59 450 55 484 54 490 c 1
 108 501 l 1
EndSplineSet
EndChar
StartChar: v
Encoding: 118 118 21
Width: 463
VWidth: 0
Flags: HW
HStem: -2 57<195 215>
VStem: 366 57<305 494>
LayerCount: 2
Fore
SplineSet
77 506 m 1
 89 485 99 463 104 446 c 0
 105 441 109 435 111 423 c 0
 113 411 117 395 122 375 c 0
 132 336 145 285 157 234 c 0
 179 143 195 73 200 55 c 1
 205 55 210 56 215 58 c 1
 212 57 218 59 224 66 c 0
 230 73 238 82 245 93 c 0
 260 114 274 138 282 151 c 0
 337 244 364 368 365 408 c 2
 366 428 366 443 366 455 c 0
 366 480 365 494 365 494 c 1
 421 500 l 1
 421 500 423 481 423 446 c 0
 423 435 422 422 422 406 c 0
 420 349 391 227 330 124 c 0
 322 109 306 85 290 62 c 0
 282 51 274 39 266 29 c 0
 258 19 250 12 235 6 c 0
 219 0 205 -2 193 -2 c 0
 181 -2 172 0 172 0 c 1
 154 3 l 1
 151 21 l 1
 151 21 127 120 103 222 c 0
 91 273 77 323 67 362 c 0
 62 382 58 397 56 409 c 0
 54 421 51 431 51 430 c 1
 49 437 38 462 30 477 c 1
 77 506 l 1
EndSplineSet
EndChar
StartChar: w
Encoding: 119 119 22
Width: 656
VWidth: 0
Flags: HW
HStem: -2 57<190 208> 501 10G<54 77>
VStem: 289 56<252 397> 571 56<304 495>
LayerCount: 2
Fore
SplineSet
71 511 m 1
 83 490 94 468 99 451 c 0
 100 446 102 440 104 428 c 0
 106 416 111 399 116 379 c 0
 126 339 139 289 151 238 c 0
 173 146 192 72 195 55 c 0
 196 55 198 56 199 56 c 0
 250 167 272 254 282 312 c 0
 288 352 289 376 289 388 c 0
 289 397 l 0
 344 403 l 1
 344 402 l 2
 344 402 353 301 404 51 c 1
 407 52 412 53 417 55 c 1
 414 54 421 57 427 64 c 0
 433 71 440 80 447 91 c 0
 462 112 477 136 485 149 c 0
 540 242 569 367 570 407 c 0
 571 422 571 435 571 445 c 0
 571 479 568 494 568 494 c 1
 624 500 l 2
 624 500 626 481 626 446 c 0
 626 435 626 421 625 406 c 0
 623 348 595 224 533 120 c 0
 525 105 511 82 494 59 c 0
 486 48 476 36 468 26 c 0
 460 16 454 8 439 2 c 0
 422 -5 406 -6 394 -6 c 0
 382 -6 374 -4 374 -4 c 1
 356 -1 l 1
 353 17 l 2
 337 96 326 157 316 210 c 1
 301 158 281 95 247 22 c 2
 242 14 l 1
 233 9 l 2
 217 1 201 -2 189 -2 c 0
 173 -2 164 1 164 1 c 1
 148 6 l 1
 145 21 l 2
 145 21 120 122 96 224 c 0
 84 275 71 326 61 366 c 0
 56 386 51 403 49 415 c 0
 47 427 44 436 44 435 c 1
 42 442 30 467 22 482 c 1
 71 511 l 1
EndSplineSet
EndChar
StartChar: x
Encoding: 120 120 23
Width: 495
VWidth: 0
Flags: HW
HStem: -1 56<396 457> 499 10G<53 101>
VStem: 376 56<463 495>
LayerCount: 2
Fore
SplineSet
65 509 m 1
 136 422 192 353 234 295 c 1
 256 322 279 349 297 373 c 0
 330 416 355 453 360 460 c 2
 361 460 l 1
 361 462 l 2
 368 474 375 496 376 501 c 1
 432 494 l 1
 430 477 421 456 409 434 c 0
 408 434 l 0
 408 431 l 0
 397 411 373 382 340 339 c 0
 318 312 293 281 268 247 c 1
 288 220 303 197 318 177 c 0
 365 107 387 73 403 61 c 0
 408 58 420 55 437 55 c 0
 443 55 450 55 457 56 c 1
 458 0 l 1
 450 -1 440 -1 432 -1 c 0
 411 -1 391 2 371 17 c 0
 340 39 319 76 272 146 c 0
 260 163 247 182 231 204 c 1
 229 199 226 196 224 194 c 0
 141 92 64 -2 64 -2 c 1
 22 34 l 2
 22 34 100 129 181 228 c 0
 187 235 193 243 199 250 c 1
 156 311 98 383 22 475 c 1
 65 509 l 1
EndSplineSet
EndChar
StartChar: y
Encoding: 121 121 24
Width: 527
VWidth: 0
Flags: HW
HStem: -192 56<109 213> 447 55<3 56>
VStem: 13 53<-83 -22> 452 55<379 489>
AnchorPoint: "accents" 298 583 basechar 0
LayerCount: 2
Fore
SplineSet
3 501 m 1
 18 501 31 501 43 499 c 0
 55 497 67 492 78 482 c 0
 119 446 167 370 215 283 c 0
 251 218 285 148 313 86 c 1
 364 202 416 322 446 431 c 0
 447 436 449 450 450 462 c 0
 451 474 452 489 452 489 c 2
 506 497 l 1
 506 494 506 488 506 485 c 0
 506 475 506 468 505 458 c 0
 504 443 502 429 499 417 c 0
 454 255 368 73 299 -83 c 0
 284 -116 267 -143 242 -164 c 0
 220 -181 193 -192 164 -192 c 0
 159 -192 152 -192 147 -191 c 0
 111 -186 80 -168 58 -139 c 0
 36 -110 23 -71 13 -23 c 1
 66 -13 l 1
 74 -56 87 -86 102 -106 c 0
 117 -126 131 -134 155 -137 c 0
 158 -137 162 -137 165 -137 c 0
 181 -137 194 -132 207 -121 c 0
 223 -108 238 -87 250 -60 c 0
 261 -35 271 -9 283 18 c 1
 255 86 212 176 167 257 c 0
 120 342 67 418 42 441 c 0
 40 443 36 445 31 446 c 0
 25 447 16 446 3 447 c 1
 3 501 l 1
EndSplineSet
EndChar
StartChar: z
Encoding: 122 122 25
Width: 518
VWidth: 0
Flags: HW
HStem: 0 53<87 467> 443 55<30 388>
LayerCount: 2
Fore
SplineSet
20 446 m 0
 30 498 l 1
 45 497 81 497 126 497 c 0
 216 497 344 498 412 498 c 0
 459 498 l 1
 472 449 l 1
 472 449 367 350 263 248 c 0
 211 197 160 146 124 104 c 0
 109 87 95 65 87 53 c 1
 403 55 l 1
 431 55 451 52 484 42 c 1
 469 -8 l 1
 441 0 431 1 404 1 c 0
 52 0 l 1
 23 0 l 1
 23 3 23 7 23 12 c 0
 23 27 25 45 27 51 c 0
 30 59 34 72 40 80 c 0
 51 98 66 117 86 139 c 0
 125 184 177 237 229 288 c 0
 292 350 347 405 388 443 c 1
 377 443 348 443 309 443 c 0
 257 443 189 442 131 442 c 0
 81 442 40 443 20 446 c 0
EndSplineSet
EndChar
StartChar: braceleft
Encoding: 123 123 160
Width: 343
VWidth: 0
Flags: HW
HStem: -188 55<220 313> 635 57<224 326>
VStem: 119 55<-94 195 311 596>
LayerCount: 2
Fore
SplineSet
326 691 m 1
 327 664 l 1
 330 635 l 1
 270 633 206 614 185 586 c 0
 180 579 175 561 173 537 c 0
 172 525 172 512 172 497 c 0
 172 484 172 468 173 453 c 0
 174 429 176 404 176 381 c 0
 176 346 172 313 157 285 c 0
 147 265 132 257 116 250 c 1
 134 239 152 223 159 199 c 0
 171 163 173 125 173 90 c 0
 173 66 172 42 172 20 c 0
 172 14 172 7 172 2 c 0
 172 -44 177 -77 195 -94 c 0
 224 -122 270 -131 317 -133 c 1
 313 -188 l 1
 263 -186 202 -176 157 -133 c 0
 123 -102 116 -57 116 -12 c 0
 116 -1 118 10 118 21 c 0
 118 42 119 62 119 83 c 0
 119 118 116 153 106 182 c 0
 105 189 95 200 79 208 c 0
 63 216 43 223 31 225 c 1
 31 278 l 1
 43 280 64 287 81 294 c 0
 98 301 107 308 109 310 c 1
 116 326 119 367 119 414 c 0
 119 426 119 439 119 451 c 0
 118 469 118 487 118 504 c 0
 118 516 118 528 119 540 c 0
 121 569 125 594 141 616 c 0
 181 674 261 688 326 691 c 1
EndSplineSet
EndChar
StartChar: bar
Encoding: 124 124 161
Width: 159
VWidth: 0
Flags: HW
VStem: 51 55<-185 21 51 688> 58 56<-185 266>
LayerCount: 2
Fore
SplineSet
51 689 m 1x80
 105 688 l 1
 105 678 105 667 105 654 c 0x80
 105 571 108 422 111 270 c 0
 112 194 114 114 114 43 c 0
 114 -50 111 -132 108 -190 c 1
 53 -185 l 1
 56 -134 58 -60 58 25 c 0x40
 58 101 57 186 56 269 c 0
 54 421 51 568 51 653 c 0
 51 668 51 679 51 689 c 1x80
EndSplineSet
EndChar
StartChar: braceright
Encoding: 125 125 162
Width: 346
VWidth: 0
Flags: HW
HStem: -189 56<29 134> 227 53<257 313> 635 55<16 113>
VStem: 179 56<-94 205 306 587>
LayerCount: 2
Fore
SplineSet
16 689 m 1
 76 687 141 672 191 630 c 0
 214 610 225 583 230 556 c 0
 233 538 235 518 235 500 c 0
 235 490 234 481 234 471 c 0
 233 446 231 420 231 396 c 0
 231 363 233 332 243 305 c 0
 244 302 251 297 264 292 c 0
 277 287 297 283 315 280 c 1
 313 227 l 1
 296 224 281 219 269 212 c 0
 256 206 248 199 242 184 c 0
 236 168 235 146 235 118 c 0
 235 91 236 62 237 33 c 0
 237 26 237 18 237 10 c 0
 237 -45 231 -101 190 -139 c 0
 139 -184 72 -186 29 -189 c 1
 25 -133 l 1
 70 -131 123 -127 154 -98 c 0
 176 -78 183 -35 183 17 c 0
 183 20 183 25 183 30 c 0
 182 60 179 91 179 120 c 0
 179 150 181 179 191 204 c 0
 198 224 210 239 225 250 c 1
 210 258 198 269 192 287 c 0
 177 323 176 361 176 397 c 0
 176 424 177 450 178 474 c 0
 178 486 179 496 179 506 c 0
 179 522 178 535 177 546 c 0
 174 566 167 578 156 588 c 0
 121 617 64 633 13 635 c 1
 16 689 l 1
EndSplineSet
EndChar
StartChar: asciitilde
Encoding: 126 126 120
Width: 409
VWidth: 0
Flags: HW
HStem: 375 53<199 292> 420 55<95 184>
VStem: 39 304
LayerCount: 2
Fore
SplineSet
39 408 m 17x60
 67 458 95 475 124 475 c 3x60
 174 475 221 429 257 429 c 3
 275 429 291 440 303 471 c 9
 342 437 l 17
 313 390 283 375 254 375 c 3xa0
 207 375 162 420 126 420 c 3
 110 420 97 409 85 380 c 9
 39 408 l 17x60
EndSplineSet
EndChar
StartChar: uni0080
Encoding: 128 128 174
Width: 409
VWidth: 0
Flags: HW
HStem: 197 57<217 313> 245 58<103 199>
VStem: 42 325
LayerCount: 2
Fore
SplineSet
42 232 m 21x60
 73 285 106 303 137 303 c 7x60
 189 303 239 254 278 254 c 7
 296 254 313 266 326 299 c 13
 367 263 l 21
 338 215 307 197 278 197 c 7xa0
 226 197 180 245 141 245 c 7
 121 245 106 235 91 201 c 13
 42 232 l 21x60
EndSplineSet
EndChar
StartChar: exclamdown
Encoding: 161 161 121
Width: 193
VWidth: 0
Flags: HW
HStem: 442 57<65 127>
VStem: 65 62<442 499> 74 51<-151 355>
LayerCount: 2
Fore
SplineSet
74 -151 m 25xa0
 73 355 l 25
 119 355 l 17
 121 184 122 18 125 -151 c 9
 74 -151 l 25xa0
64 442 m 25
 65 499 l 25
 127 499 l 25xc0
 128 442 l 25
 64 442 l 25
EndSplineSet
EndChar
StartChar: cent
Encoding: 162 162 155
Width: 360
VWidth: 0
Flags: HW
HStem: 360 136<161 214>
VStem: 33 55<162 324> 160 55<2 76 410 494>
LayerCount: 2
Fore
SplineSet
214 496 m 1
 215 414 l 1
 223 413 232 410 239 409 c 0
 275 401 298 374 310 344 c 1
 258 323 l 1
 250 346 247 350 225 356 c 0
 214 358 203 360 191 360 c 0
 162 360 130 351 110 326 c 1
 100 314 87 292 87 250 c 0
 87 235 89 220 92 200 c 0
 93 187 112 154 125 146 c 0
 145 131 164 127 189 127 c 0
 191 127 196 127 199 127 c 0
 242 127 270 144 285 166 c 1
 331 136 l 1
 308 100 264 76 213 73 c 1
 214 2 l 1
 160 1 l 1
 157 74 l 1
 135 77 114 86 92 101 c 0
 61 123 42 157 36 190 c 0
 34 210 33 226 33 243 c 0
 33 301 49 339 66 361 c 0
 91 392 126 408 160 413 c 1
 159 494 l 1
 214 496 l 1
EndSplineSet
EndChar
StartChar: sterling
Encoding: 163 163 154
Width: 559
VWidth: 0
Flags: HW
HStem: -1 56<85 158 300 464> 139 55<88 134> 340 56<88 162 231 449> 592 56<229 363>
VStem: 27 57<55 139> 146 57<403 574> 197 56<141 335> 385 53<548 569> 466 57<71 98>
LayerCount: 2
Fore
SplineSet
303 648 m 0xfd80
 373 648 423 603 438 550 c 1
 385 535 l 1
 377 564 350 592 303 592 c 0
 270 592 248 587 235 580 c 0
 222 573 214 563 209 550 c 0
 204 539 204 526 204 510 c 0xfd80
 204 485 208 454 214 420 c 0
 215 412 218 404 219 396 c 1
 253 396 287 396 320 396 c 0
 368 396 414 396 449 398 c 1
 453 343 l 1
 415 341 368 339 318 339 c 0
 290 339 260 340 231 340 c 1
 238 307 247 274 250 240 c 0
 252 222 253 203 253 185 c 0
 253 158 249 130 241 105 c 1
 296 72 355 53 408 53 c 0
 451 53 461 64 464 70 c 0
 467 76 466 83 466 99 c 1
 523 98 l 2
 523 98 523 94 523 88 c 0
 523 77 522 59 512 42 c 0
 497 15 463 -2 408 -2 c 0
 343 -2 276 20 214 56 c 1
 197 34 180 19 162 11 c 0
 141 0 122 -1 106 -1 c 0
 72 -1 46 22 35 47 c 0
 29 60 27 75 27 90 c 0
 27 102 29 114 31 126 c 0
 38 151 52 177 79 189 c 0
 86 192 95 194 103 194 c 0
 125 194 146 185 166 165 c 0
 174 157 184 148 192 141 c 1
 195 156 197 172 197 190 c 0xfb80
 197 203 196 218 195 234 c 0
 190 268 182 304 174 340 c 1
 144 341 115 341 88 341 c 1
 88 397 l 1
 111 397 135 397 162 397 c 1
 161 400 160 405 160 408 c 0
 153 442 146 475 146 506 c 0
 146 529 150 549 157 570 c 0
 165 593 184 615 208 628 c 0
 232 641 264 648 303 648 c 0xfd80
106 139 m 0
 96 139 89 126 86 111 c 0
 85 104 84 97 84 90 c 0
 84 83 85 74 87 69 c 0
 90 58 93 55 106 55 c 0
 118 55 128 56 138 61 c 0
 146 66 156 72 168 88 c 1
 153 99 140 112 127 125 c 0
 116 136 109 139 106 139 c 0
EndSplineSet
EndChar
StartChar: currency
Encoding: 164 164 153
Width: 488
VWidth: 0
Flags: HW
HStem: 62 55<174 308> 381 55<189 247 247 315>
VStem: 83 56<152 325> 358 55<174 336>
LayerCount: 2
Fore
SplineSet
79 454 m 1
 143 393 l 1
 145 396 149 399 152 402 c 0
 177 423 210 434 245 436 c 0
 256 436 268 435 280 434 c 0
 311 428 339 414 361 393 c 1
 419 451 l 1
 458 411 l 1
 394 348 l 1
 407 321 413 290 413 259 c 0
 413 246 411 231 409 218 c 0
 403 188 394 160 378 136 c 1
 447 68 l 1
 409 29 l 1
 341 94 l 1
 314 73 281 62 243 62 c 0
 233 62 223 63 212 64 c 0
 181 70 155 82 134 99 c 1
 73 39 l 1
 34 79 l 1
 101 143 l 1
 101 144 99 145 99 146 c 0
 87 171 83 201 83 230 c 0
 83 248 84 265 87 283 c 0
 92 307 99 328 109 348 c 1
 40 416 l 1
 79 454 l 1
250 381 m 0
 249 381 247 381 247 380 c 0
 224 380 205 371 188 358 c 0
 166 341 149 312 142 273 c 0
 140 258 138 245 138 230 c 0
 138 208 142 188 149 171 c 0
 161 143 182 126 222 119 c 0
 230 118 239 116 246 116 c 0
 273 116 293 124 310 139 c 0
 332 159 348 189 355 229 c 0
 357 240 358 250 358 260 c 0
 358 285 352 310 341 330 c 0
 325 357 302 374 271 379 c 1
 263 380 257 381 250 381 c 0
EndSplineSet
EndChar
StartChar: yen
Encoding: 165 165 150
Width: 549
VWidth: 0
Flags: HW
HStem: -1 10G<235 292> 223 56<39 237 295 507> 344 55<39 176 368 507>
VStem: 235 57<1 223 278 323>
LayerCount: 2
Fore
SplineSet
73 664 m 1
 89 634 144 549 195 474 c 0
 218 440 235 416 248 396 c 1
 263 396 277 396 292 397 c 1
 305 415 322 438 346 472 c 0
 399 546 458 634 474 663 c 1
 527 635 l 1
 505 594 449 512 396 437 c 0
 386 424 376 410 368 397 c 1
 411 398 459 398 507 398 c 1
 507 344 l 1
 444 344 384 343 328 343 c 1
 310 319 297 301 295 299 c 1
 295 292 295 285 295 278 c 1
 359 277 431 277 507 277 c 1
 507 223 l 1
 431 223 359 223 294 223 c 1
 294 222 294 220 294 219 c 0
 293 151 292 79 292 57 c 2
 292 56 l 1
 292 44 292 32 292 24 c 0
 292 -1 l 1
 235 1 l 1
 235 1 235 7 235 23 c 0
 235 30 235 41 235 53 c 1
 235 55 l 2
 235 80 236 151 237 220 c 0
 237 221 237 223 237 224 c 1
 159 224 92 224 36 223 c 1
 38 254 l 1
 39 277 l 1
 94 278 161 278 239 278 c 1
 239 286 239 296 239 304 c 1
 236 310 225 323 212 341 c 1
 144 341 83 342 36 344 c 1
 38 375 l 1
 39 398 l 1
 79 396 125 396 176 396 c 1
 166 409 157 423 146 439 c 0
 95 514 39 596 18 636 c 1
 73 664 l 1
EndSplineSet
EndChar
StartChar: brokenbar
Encoding: 166 166 164
Width: 159
VWidth: 0
Flags: HW
VStem: 51 55<-186 -13 -7 30 327 688> 60 55<-182 181>
LayerCount: 2
Fore
SplineSet
56 327 m 1x80
 54 463 51 584 51 658 c 0
 51 670 51 679 51 689 c 1
 105 688 l 1
 105 675 105 661 105 644 c 0
 105 574 107 471 109 327 c 1
 88 327 74 327 56 327 c 1x80
114 181 m 1x40
 114 148 114 116 114 85 c 0
 114 -24 113 -126 108 -190 c 1
 53 -185 l 1
 56 -130 60 -78 60 -10 c 0
 60 42 58 105 57 181 c 1
 63 181 69 181 75 181 c 0
 87 181 99 181 114 181 c 1x40
EndSplineSet
EndChar
StartChar: section
Encoding: 167 167 159
Width: 467
VWidth: 0
Flags: HW
HStem: -150 57<168 310> 528 10G<325 383> 602 57<156 298>
VStem: 31 57<269 353> 62 56<455 566> 83 57<-67 -27> 327 56<536 576> 348 57<-59 55> 376 57<154 241>
LayerCount: 2
Fore
SplineSet
227 659 m 0xe8
 265 659 299 652 328 631 c 0
 357 610 377 578 383 537 c 1
 327 528 l 1xea
 322 557 311 573 295 585 c 0
 279 596 257 602 227 602 c 0
 197 602 163 590 142 569 c 0
 127 554 117 538 117 515 c 0
 117 505 121 494 124 481 c 0
 131 453 167 425 220 395 c 0
 272 365 338 332 393 282 c 0
 420 259 434 229 434 196 c 0xe880
 434 186 432 178 430 168 c 0
 422 138 401 112 368 94 c 1
 381 79 391 63 397 43 c 0
 402 27 405 13 405 -2 c 0
 405 -42 388 -78 364 -102 c 0
 330 -135 285 -150 239 -150 c 0
 201 -150 166 -143 138 -122 c 0
 109 -101 90 -69 83 -28 c 1
 140 -20 l 1xe5
 145 -49 155 -65 171 -76 c 0
 187 -87 210 -93 239 -93 c 0
 270 -93 304 -82 325 -61 c 0
 340 -48 348 -30 348 -6 c 0
 348 4 346 15 343 28 c 0
 335 56 298 84 246 114 c 0
 193 144 128 177 73 225 c 0
 48 249 31 280 31 313 c 0xf1
 31 321 33 332 35 340 c 0
 43 370 65 396 98 414 c 1
 85 429 75 444 69 465 c 0
 64 481 62 496 62 512 c 0
 62 551 78 586 102 609 c 0
 135 643 182 659 227 659 c 0xe8
146 373 m 1
 110 361 96 343 91 326 c 0
 90 321 88 316 88 311 c 0
 88 296 95 281 111 268 c 0
 157 227 218 195 273 164 c 0
 289 154 305 146 320 136 c 1
 356 148 370 166 375 183 c 0
 376 186 376 191 376 196 c 0xf080
 376 211 371 226 355 241 c 0
 308 282 247 314 191 345 c 0
 176 355 161 363 146 373 c 1
EndSplineSet
EndChar
StartChar: dieresis
Encoding: 168 168 173
Width: 482
VWidth: 0
Flags: HW
HStem: 552 63<109 172 276 339>
VStem: 109 63<552 615> 276 63<553 616>
LayerCount: 2
Fore
SplineSet
276 616 m 1
 339 616 l 1
 339 553 l 1
 276 552 l 1
 276 616 l 1
109 615 m 1
 172 615 l 1
 172 552 l 1
 109 551 l 1
 109 615 l 1
EndSplineSet
EndChar
StartChar: copyright
Encoding: 169 169 165
Width: 836
VWidth: 0
Flags: HW
HStem: -156 57<303 535> 0 56<336 514> 441 56<349 504> 597 56<305 533>
VStem: 27 57<128 368> 197 57<143 343> 754 57<128 370>
LayerCount: 2
Fore
SplineSet
419 653 m 0
 652 653 812 476 812 248 c 0
 812 26 636 -156 419 -156 c 0
 202 -156 27 26 27 248 c 0
 27 471 185 653 419 653 c 0
419 597 m 1
 234 597 84 442 84 248 c 0
 84 56 234 -99 419 -99 c 0
 604 -99 754 56 754 248 c 1
 754 250 754 255 754 257 c 0
 754 447 603 597 419 597 c 1
262 423 m 1
 293 459 347 489 408 495 c 0
 416 495 424 497 431 497 c 0
 487 496 545 474 586 416 c 1
 542 383 l 1
 511 426 472 441 432 441 c 0
 426 441 420 440 414 439 c 0
 369 434 325 410 305 388 c 0
 284 364 254 321 254 241 c 0
 254 223 256 203 259 181 c 0
 262 159 297 104 320 87 c 0
 351 63 383 56 423 56 c 0
 425 56 429 56 431 56 c 0
 494 57 539 83 562 122 c 1
 610 94 l 1
 576 37 511 1 432 0 c 0
 430 0 426 0 424 0 c 0
 376 0 329 9 286 42 c 0
 246 72 211 122 204 169 c 0
 201 193 197 216 197 237 c 0
 197 334 237 394 262 423 c 1
EndSplineSet
EndChar
StartChar: guillemotleft
Encoding: 171 171 157
Width: 472
VWidth: 0
Flags: HW
VStem: 215 58<421 450>
LayerCount: 2
Fore
SplineSet
215 464 m 1
 273 448 l 1
 251 362 172 302 104 250 c 1
 175 192 237 135 264 56 c 1
 207 36 l 1
 184 104 121 161 38 227 c 1
 38 273 l 1
 113 333 199 400 215 464 c 1
385 462 m 1
 441 441 l 1
 416 376 361 302 290 247 c 1
 360 195 407 134 432 58 c 1
 375 39 l 1
 350 115 303 171 220 222 c 1
 220 272 l 1
 298 319 362 402 385 462 c 1
EndSplineSet
EndChar
StartChar: registered
Encoding: 174 174 166
Width: 823
VWidth: 0
Flags: HW
HStem: -149 56<297 526> 443 56<309 477> 595 56<297 526>
VStem: 24 56<132 369> 252 57<10 196 250 443> 532 57<261 395> 744 56<132 369>
LayerCount: 2
Fore
SplineSet
412 650 m 0
 626 650 799 469 799 250 c 0
 799 31 626 -149 412 -149 c 0
 198 -149 24 31 24 250 c 0
 24 469 198 650 412 650 c 0
412 595 m 0
 229 595 80 440 80 250 c 0
 80 59 229 -93 412 -93 c 0
 595 -93 744 59 744 250 c 0
 744 440 595 595 412 595 c 0
254 5 m 1
 252 51 l 2
 252 62 252 106 252 162 c 0
 252 273 252 428 252 434 c 0
 252 458 252 477 252 499 c 1
 290 499 l 2
 303 499 317 500 330 500 c 0
 335 500 339 500 344 500 c 0
 379 500 411 499 441 493 c 0
 486 485 525 466 553 431 c 0
 576 403 587 367 589 332 c 0
 589 327 589 322 589 317 c 0
 589 287 582 258 564 235 c 0
 541 206 509 192 475 187 c 1
 509 145 557 85 581 60 c 0
 582 59 589 53 595 50 c 0
 600 47 607 42 607 42 c 0
 606 42 l 1
 585 -13 l 1
 577 -10 571 -6 563 -1 c 0
 555 4 546 10 538 18 c 0
 498 59 420 157 399 184 c 1
 370 186 339 191 309 196 c 1
 309 128 309 96 308 81 c 0
 308 51 l 0
 309 28 310 11 310 11 c 1
 254 5 l 1
339 443 m 0
 329 443 320 443 309 443 c 1
 309 441 309 438 309 436 c 0
 309 429 309 343 309 253 c 1
 355 246 399 240 435 240 c 0
 475 240 502 247 520 270 c 0
 526 277 532 299 532 322 c 0
 532 323 532 326 532 328 c 0
 531 355 521 381 510 396 c 0
 492 418 466 430 430 437 c 0
 405 442 374 443 339 443 c 0
EndSplineSet
EndChar
StartChar: plusminus
Encoding: 177 177 145
Width: 656
VWidth: 0
Flags: HW
HStem: 108 56<38 285 341 620> 343 55<38 286 343 621>
VStem: 286 57<164 336 393 649>
LayerCount: 2
Fore
SplineSet
35 160 m 1
 128 162 210 164 285 164 c 1
 285 210 286 266 286 322 c 2
 286 336 l 1
 218 336 139 338 34 343 c 1
 38 397 l 1
 141 394 220 393 286 393 c 1
 286 485 l 2
 286 530 287 559 287 567 c 0
 287 570 287 573 287 576 c 0
 287 599 285 622 285 643 c 0
 285 646 285 651 285 653 c 1
 340 649 l 1
 340 648 340 645 340 643 c 0
 340 628 343 603 343 576 c 0
 343 573 343 567 343 564 c 1
 343 564 343 530 343 485 c 2
 343 393 l 1
 437 394 513 397 621 397 c 1
 621 343 l 1
 515 343 439 338 343 336 c 1
 343 322 l 2
 343 266 341 210 341 164 c 1
 438 163 527 161 621 160 c 1
 620 105 l 1
 505 106 398 108 276 108 c 0
 203 108 126 107 38 105 c 1
 35 160 l 1
EndSplineSet
EndChar
StartChar: acute
Encoding: 180 180 175
Width: 227
VWidth: 0
Flags: HW
HStem: 630 142
VStem: -17 234
LayerCount: 2
Fore
SplineSet
187 771 m 9
 217 728 l 17
 160 681 73 651 0 630 c 9
 -17 676 l 17
 53 698 126 724 187 771 c 9
EndSplineSet
EndChar
StartChar: uni00B5
Encoding: 181 181 169
Width: 478
VWidth: 0
Flags: HW
HStem: -2 57<130 254>
VStem: 47 57<-182 16 68 490> 349 56<141 494>
LayerCount: 2
Fore
SplineSet
47 -5 m 1
 47 -4 47 124 47 125 c 0
 47 136 47 151 47 167 c 0
 47 200 47 240 47 280 c 0
 47 320 48 360 48 390 c 0
 48 406 48 417 48 427 c 0
 48 442 l 2
 47 450 43 484 42 490 c 1
 97 501 l 1
 100 485 103 459 104 447 c 0
 104 441 104 437 104 427 c 0
 104 417 104 405 104 389 c 0
 104 359 103 320 103 280 c 0
 103 240 103 198 103 167 c 0
 103 151 104 137 104 126 c 0
 104 108 l 1
 107 86 117 73 129 65 c 0
 141 57 157 55 173 55 c 0
 207 56 230 61 257 78 c 0
 282 94 311 123 349 166 c 1
 349 244 349 366 349 446 c 0
 349 464 349 484 349 497 c 1
 406 494 l 1
 406 482 404 464 404 446 c 0
 404 375 404 270 404 192 c 0
 404 153 404 122 404 105 c 1
 405 83 409 76 414 69 c 0
 420 62 431 53 449 40 c 1
 416 -5 l 1
 399 7 382 17 369 34 c 0
 359 47 353 64 350 85 c 1
 328 62 308 43 287 30 c 0
 253 8 217 -1 176 -2 c 0
 174 -2 171 -2 169 -2 c 0
 148 -2 129 1 108 13 c 1
 104 16 l 0
 103 16 104 -57 102 -118 c 0
 101 -159 85 -199 85 -199 c 0
 63 -194 51 -189 34 -183 c 1
 37 -173 44 -159 46 -120 c 0
 47 -69 47 -10 47 -5 c 1
EndSplineSet
EndChar
StartChar: paragraph
Encoding: 182 182 170
Width: 491
VWidth: 0
Flags: HW
HStem: 0 10G<281 336> 246 56<173 285 340 393> 595 57<153 285 341 390>
VStem: 27 56<376 538> 285 56<6 243 301 595> 391 56<6 245 300 593>
LayerCount: 2
Fore
SplineSet
394 60 m 1
 394 78 394 155 393 245 c 1
 376 244 357 243 340 243 c 1
 340 218 340 187 340 156 c 0
 340 78 337 33 336 13 c 0
 335 0 l 2
 281 6 l 2
 281 6 283 31 283 61 c 0
 283 81 285 158 285 246 c 1
 258 247 233 249 209 254 c 0
 151 266 101 291 65 334 c 0
 37 369 27 416 27 459 c 0
 27 504 37 547 64 578 c 0
 105 624 164 641 225 648 c 1
 240 650 296 652 348 652 c 3
 393 652 436 649 447 646 c 1
 447 633 447 505 447 483 c 0
 448 440 448 382 448 322 c 0
 449 204 449 86 449 61 c 0
 450 30 453 6 453 6 c 1
 398 1 l 1
 398 1 394 25 394 60 c 1
285 595 m 1
 282 595 276 595 273 595 c 0
 257 595 244 593 231 592 c 1
 176 586 133 572 106 542 c 0
 93 526 83 493 83 459 c 0
 83 425 92 391 109 369 c 0
 136 336 170 320 220 309 c 0
 240 306 262 302 285 301 c 1
 285 308 285 315 285 322 c 0
 286 382 286 440 286 483 c 0
 286 506 286 525 286 538 c 0
 286 551 286 588 285 595 c 1
341 595 m 1
 341 590 341 551 341 538 c 0
 341 525 341 505 341 483 c 0
 341 440 341 382 340 322 c 0
 340 315 340 307 340 299 c 1
 357 299 375 300 393 300 c 1
 393 307 393 315 393 322 c 0
 393 382 392 438 391 483 c 0
 391 505 391 525 391 538 c 0
 391 551 391 558 391 563 c 0
 391 573 391 582 391 593 c 1
 375 593 358 594 341 595 c 1
EndSplineSet
EndChar
StartChar: periodcentered
Encoding: 183 183 171
Width: 183
VWidth: 0
Flags: HW
HStem: 220 57<55 116>
VStem: 55 62<220 277>
LayerCount: 2
Fore
SplineSet
53 277 m 25
 118 277 l 25
 116 220 l 25
 55 220 l 25
 53 277 l 25
EndSplineSet
EndChar
StartChar: guillemotright
Encoding: 187 187 158
Width: 472
VWidth: 0
Flags: HW
VStem: 199 58<49 78>
LayerCount: 2
Fore
SplineSet
242 455 m 1
 265 462 l 1
 287 394 352 338 435 272 c 1
 435 225 l 1
 361 165 273 99 257 35 c 1
 199 51 l 1
 221 137 300 198 368 250 c 1
 297 308 235 364 208 443 c 1
 242 455 l 1
97 460 m 1
 122 384 169 328 252 277 c 1
 252 227 l 1
 174 180 110 96 87 36 c 1
 31 58 l 1
 55 123 112 197 183 252 c 1
 113 303 65 365 40 441 c 1
 97 460 l 1
EndSplineSet
EndChar
StartChar: questiondown
Encoding: 191 191 172
Width: 418
VWidth: 0
Flags: HW
HStem: -149 57<132 282> 441 57<196 258>
VStem: 29 57<-46 84> 197 57<242 376 441 498> 334 56<-44 85>
LayerCount: 2
Fore
SplineSet
259 441 m 25
 195 441 l 25
 196 498 l 25
 258 498 l 25
 259 441 l 25
215 -149 m 1
 209 -149 203 -149 197 -149 c 0
 174 -148 150 -144 128 -134 c 0
 78 -110 29 -59 29 12 c 0
 29 59 43 94 65 122 c 0
 87 149 114 171 143 201 c 0
 177 239 197 261 197 316 c 2
 197 330 l 1
 197 376 l 1
 254 376 l 1
 254 317 l 2
 254 244 227 209 184 162 c 0
 153 129 126 108 110 87 c 0
 94 66 86 48 86 12 c 0
 86 -33 117 -66 152 -83 c 0
 160 -88 181 -91 201 -92 c 0
 204 -92 209 -92 212 -92 c 0
 228 -92 241 -90 246 -88 c 0
 276 -80 318 -52 330 -12 c 0
 332 -1 334 8 334 18 c 0
 334 40 325 57 313 75 c 1
 360 109 l 1
 380 84 390 52 390 17 c 0
 390 2 389 -12 384 -28 c 0
 364 -93 309 -130 262 -143 c 0
 249 -148 232 -149 215 -149 c 1
EndSplineSet
EndChar
StartChar: Aring
Encoding: 197 197 76
Width: 583
VWidth: 0
Flags: HW
HStem: 242 58<199 391> 750 42<248 344>
VStem: 187 52<671 740> 353 53<672 740>
LayerCount: 2
Fore
SplineSet
239 706 m 0
 239 682 264 661 295 661 c 0
 326 661 353 682 353 706 c 0
 353 730 326 750 295 750 c 0
 264 750 239 730 239 706 c 0
187 706 m 0
 187 753 234 792 295 792 c 0
 356 792 406 753 406 706 c 0
 406 670 375 637 334 625 c 1
 560 6 l 1
 506 -13 l 1
 412 243 l 1
 390 243 349 243 304 242 c 0
 271 241 238 239 211 237 c 0
 196 236 182 233 174 231 c 1
 83 -11 l 1
 30 8 l 1
 262 624 l 1
 219 635 187 668 187 706 c 0
297 557 m 1
 199 294 l 1
 201 294 203 294 205 294 c 0
 234 296 270 299 303 300 c 0
 314 300 324 300 334 300 c 0
 356 300 375 300 391 300 c 1
 297 557 l 1
EndSplineSet
EndChar
StartChar: AE
Encoding: 198 198 82
Width: 684
VWidth: 0
Flags: HW
HStem: 0 56<400 642> 240 61<199 321> 344 56<375 528> 592 57<356 632>
VStem: 300 56<400 562>
LayerCount: 2
Fore
SplineSet
320 317 m 2
 314 378 308 442 305 487 c 0
 303 532 300 554 300 562 c 1
 199 294 l 2
 198 292 203 294 205 294 c 0
 234 296 270 299 303 300 c 0
 308 300 315 300 321 300 c 1
 320 317 l 2
326 241 m 2
 326 241 325 241 325 240 c 0
 292 240 238 239 211 237 c 0
 196 236 182 233 174 231 c 1
 83 -11 l 1
 30 8 l 1
 270 648 l 1
 305 648 l 2
 341 649 395 649 451 649 c 2
 506 649 l 2
 581 649 591 648 632 648 c 1
 632 592 l 1
 586 592 525 592 460 592 c 0
 426 592 391 592 356 592 c 1
 356 581 356 571 356 560 c 0
 356 547 366 433 369 397 c 1
 397 397 431 399 479 399 c 2
 528 399 l 1
 529 344 l 1
 479 344 l 2
 431 344 402 341 375 341 c 1
 375 331 378 325 378 317 c 0
 393 198 400 87 402 56 c 1
 583 56 l 1
 613 57 622 59 643 65 c 1
 659 12 l 1
 638 6 618 1 583 0 c 1
 399 0 l 1
 346 -2 l 1
 341 51 l 1
 326 241 l 2
EndSplineSet
EndChar
StartChar: Ccedilla
Encoding: 199 199 83
Width: 535
VWidth: 0
Flags: HW
HStem: -160 42<241 340> -52 30<317 338> 517 10G<406 441> 596 58<216 373>
VStem: 36 57<186 449> 264 53<-22 4> 343 52<-114 -56>
LayerCount: 2
Fore
SplineSet
317 1 m 1
 317 -11 317 -12 318 -22 c 1
 326 -22 346 -22 358 -27 c 0
 369 -33 395 -42 395 -88 c 0
 395 -91 395 -95 395 -98 c 1
 392 -143 358 -160 318 -160 c 0
 290 -160 257 -152 232 -136 c 1
 237 -121 241 -112 243 -102 c 1
 256 -109 281 -117 303 -117 c 0
 324 -117 342 -108 343 -83 c 0
 343 -83 l 0
 343 -59 316 -52 293 -52 c 0
 278 -52 266 -55 263 -57 c 1
 263 -44 263 -14 264 1 c 1
 218 4 173 21 132 57 c 0
 89 97 50 167 42 225 c 0
 37 256 36 285 36 312 c 0
 36 440 81 518 108 557 c 1
 142 603 202 643 272 651 c 0
 280 652 291 654 299 654 c 0
 362 653 428 621 474 546 c 1
 425 517 l 1
 387 578 343 596 300 596 c 0
 294 596 287 596 280 595 c 0
 229 589 178 555 154 524 c 0
 154 523 l 0
 130 489 93 429 93 316 c 0
 93 291 96 262 99 232 c 0
 104 196 143 124 171 99 c 0
 209 65 243 57 288 57 c 0
 291 57 295 57 298 57 c 0
 369 59 421 93 449 150 c 1
 500 125 l 1
 465 56 400 9 317 1 c 1
EndSplineSet
EndChar
StartChar: Eth
Encoding: 208 208 152
Width: 595
VWidth: 0
Flags: HW
HStem: -5 57<159 412> -3 10G<101 134> 390 55<23 105 163 343> 604 57<160 348>
VStem: 105 57<56 390 445 602> 514 58<155 414>
LayerCount: 2
Fore
SplineSet
223 604 m 0xbc
 200 604 177 602 160 601 c 1
 160 596 161 592 161 587 c 0
 162 548 163 498 163 443 c 1
 216 443 269 445 343 445 c 1
 343 389 l 1
 272 390 216 390 163 390 c 1
 163 241 159 81 159 56 c 1
 211 55 247 52 280 52 c 0
 302 52 322 54 344 56 c 0
 415 63 484 101 505 194 c 0
 511 221 514 249 514 277 c 0
 514 358 491 439 455 489 c 0
 410 551 361 590 295 600 c 0
 272 603 246 604 223 604 c 0xbc
223 662 m 0
 248 662 275 659 303 656 c 0
 388 644 451 591 501 522 c 0
 546 460 572 372 572 282 c 0
 572 248 568 215 561 182 c 0
 536 64 438 7 350 -1 c 0
 322 -3 297 -5 269 -5 c 0xbc
 233 -5 192 -3 134 -1 c 1
 101 -3 l 1x7c
 101 -3 101 17 102 55 c 0
 102 80 105 241 105 390 c 1
 78 391 51 392 21 393 c 1
 23 448 l 1
 53 447 80 446 105 445 c 1
 105 500 105 548 104 586 c 0
 103 620 99 654 99 654 c 1
 142 658 l 2
 159 659 184 662 212 662 c 0
 215 662 220 662 223 662 c 0
EndSplineSet
EndChar
StartChar: multiply
Encoding: 215 215 128
Width: 481
VWidth: 0
Flags: HW
LayerCount: 2
Fore
SplineSet
65 461 m 5
 77 450 99 433 120 413 c 4
 123 411 128 405 136 397 c 4
 144 389 155 377 168 364 c 4
 189 343 212 319 239 291 c 5
 240 292 242 294 243 295 c 4
 331 380 414 458 414 458 c 5
 453 416 l 6
 453 416 371 339 283 254 c 4
 281 252 280 252 278 250 c 5
 342 184 406 116 418 104 c 4
 419 103 418 104 419 103 c 4
 441 82 452 69 452 69 c 5
 409 35 l 5
 409 35 402 44 380 65 c 5
 379 65 l 6
 366 78 303 144 239 212 c 5
 165 139 96 68 78 45 c 5
 31 80 l 5
 56 113 127 181 200 252 c 5
 173 280 149 306 128 327 c 4
 115 340 105 352 97 360 c 4
 83 374 l 6
 63 392 44 409 29 421 c 5
 65 461 l 5
EndSplineSet
EndChar
StartChar: Oslash
Encoding: 216 216 127
Width: 609
VWidth: 0
Flags: HW
HStem: -2 57<208 408> 593 58<234 393>
VStem: 28 57<182 423> 521 56<189 462>
LayerCount: 2
Fore
SplineSet
318 593 m 0
 258 591 200 560 171 530 c 0
 138 494 85 428 85 287 c 0
 85 274 85 260 86 245 c 0
 88 210 126 136 155 108 c 0
 156 107 159 105 160 103 c 1
 185 155 230 245 273 335 c 0
 303 397 333 458 356 504 c 0
 374 542 389 571 394 581 c 1
 372 589 350 593 328 593 c 0
 325 593 321 593 318 593 c 0
316 651 m 0
 319 651 323 651 326 651 c 0
 356 651 388 646 417 633 c 1
 422 643 427 653 429 661 c 1
 479 639 l 1
 474 629 470 617 464 604 c 1
 488 586 509 562 527 532 c 0
 562 471 576 407 576 334 c 0
 576 326 576 318 576 310 c 0
 574 253 569 182 523 106 c 0
 481 36 398 -2 305 -2 c 0
 302 -2 296 -2 293 -2 c 0
 254 -1 217 5 182 22 c 1
 172 1 166 -10 166 -10 c 2
 119 20 l 1
 119 20 123 28 133 50 c 1
 127 55 121 59 115 65 c 0
 70 107 32 180 29 241 c 0
 28 257 28 272 28 285 c 0
 28 442 92 528 128 569 c 1
 129 570 l 1
 170 613 240 648 316 651 c 0
207 73 m 1
 234 61 262 56 295 55 c 0
 300 55 304 55 309 55 c 0
 384 55 443 85 474 137 c 0
 513 201 518 256 520 312 c 0
 520 320 521 331 521 339 c 0
 521 401 509 454 479 504 c 0
 467 524 454 540 441 552 c 1
 434 539 422 513 406 479 c 0
 383 433 352 373 322 311 c 0
 277 218 231 123 207 73 c 1
EndSplineSet
EndChar
StartChar: germandbls
Encoding: 223 223 167
Width: 1239
VWidth: 0
Flags: HW
HStem: 0 56<233 374> 343 57<154 272> 596 56<138 276>
VStem: 52 56<119 483> 152 57<78 139> 316 56<437 558> 419 57<104 270>
LayerCount: 2
Fore
SplineSet
194 651 m 0
 228 651 260 648 288 632 c 0
 319 615 361 583 371 527 c 0
 372 520 372 511 372 504 c 0
 372 486 369 468 364 451 c 0
 356 426 341 400 317 384 c 1
 353 373 386 357 416 332 c 0
 456 299 472 251 475 209 c 0
 476 201 476 192 476 185 c 0
 476 152 469 125 461 104 c 0
 443 58 393 0 313 0 c 0
 271 0 232 6 201 29 c 0
 171 51 152 91 152 139 c 1
 209 139 l 1
 209 101 219 86 235 74 c 0
 251 63 277 56 313 56 c 0
 365 56 397 95 409 126 c 0
 414 137 419 162 419 190 c 0
 419 195 419 200 419 205 c 0
 417 238 404 268 380 290 c 0
 324 335 269 343 154 343 c 1
 154 372 l 1
 154 400 l 1
 194 400 215 400 230 403 c 0
 246 406 260 413 285 430 c 0
 297 437 305 450 310 467 c 0
 313 479 316 491 316 502 c 0
 316 508 316 514 315 517 c 0
 310 548 284 572 262 583 c 0
 247 591 222 596 194 596 c 0
 171 596 145 582 133 570 c 0
 110 547 103 517 103 489 c 0
 105 414 108 315 108 229 c 0
 108 187 107 147 106 116 c 0
 105 86 104 67 101 50 c 1
 100 33 90 20 80 10 c 0
 70 0 60 -7 50 -13 c 1
 22 35 l 1
 28 38 37 45 40 50 c 0
 45 53 45 57 45 55 c 2
 45 58 l 1
 46 62 l 2
 46 63 50 88 51 118 c 0
 51 148 52 187 52 229 c 0
 52 314 49 413 47 487 c 0
 47 489 47 491 47 493 c 0
 47 532 58 575 93 610 c 0
 116 632 153 651 194 651 c 0
EndSplineSet
EndChar
StartChar: aring
Encoding: 229 229 64
Width: 482
VWidth: 0
Flags: HW
HStem: 0 56<99 257> 257 55<139 335> 444 75<177 273> 608 42<177 274>
VStem: 16 55<85 200> 118 51<530 598> 282 53<529 598> 353 57<137 237 288 391>
LayerCount: 2
Fore
SplineSet
70 144 m 0
 70 88 110 56 168 56 c 0
 197 56 228 63 246 71 c 0
 310 102 344 152 354 169 c 1
 354 186 355 204 355 224 c 1
 348 227 337 235 325 240 c 0
 300 250 266 257 230 257 c 0
 167 257 70 220 70 144 c 0
230 312 m 0
 275 312 315 303 346 291 c 0
 347 291 351 289 353 288 c 1
 353 296 351 306 351 317 c 0
 344 404 303 444 223 444 c 0
 155 444 117 424 74 351 c 1
 28 379 l 1
 67 444 112 480 169 493 c 5
 138 508 118 534 118 565 c 4
 118 611 166 650 227 650 c 4
 288 650 335 611 335 565 c 4
 335 534 314 507 281 492 c 5
 355 472 400 414 406 321 c 0
 408 291 410 243 410 225 c 0
 410 186 408 173 408 151 c 0
 408 140 409 128 410 108 c 0
 411 86 414 77 420 70 c 0
 425 64 437 55 454 43 c 1
 420 -1 l 1
 404 11 387 21 375 38 c 0
 365 50 359 66 357 86 c 1
 319 46 254 0 171 0 c 0
 140 0 109 6 80 24 c 0
 39 51 16 98 16 146 c 0
 16 182 30 219 60 248 c 0
 110 295 172 312 230 312 c 0
168 564 m 4
 168 540 194 520 225 520 c 4
 256 520 282 540 282 564 c 4
 282 588 256 608 225 608 c 4
 194 608 168 588 168 564 c 4
EndSplineSet
EndChar
StartChar: ae
Encoding: 230 230 65
Width: 729
VWidth: 0
Flags: HW
HStem: -3 58<97 257 411 591> 240 56<429 650> 257 57<135 334> 447 56<134 303 431 578>
VStem: 11 56<86 200> 344 56<122 233 292 404> 650 57<295 380>
LayerCount: 2
Fore
SplineSet
345 322 m 0xbe
 339 413 302 447 222 447 c 0
 154 447 118 429 73 354 c 1
 24 381 l 1
 75 467 141 501 222 502 c 0
 260 502 301 497 336 469 c 0
 348 461 359 448 367 435 c 1
 390 469 438 501 506 501 c 0
 557 501 620 481 666 425 c 0
 693 394 702 353 705 322 c 0
 706 309 708 297 708 287 c 0
 708 275 706 267 706 267 c 1
 706 240 l 1
 679 240 l 1xde
 679 240 620 240 551 239 c 0
 493 238 437 234 401 232 c 1
 401 204 399 175 399 150 c 0
 399 129 401 111 402 98 c 0
 403 92 403 85 404 83 c 0
 419 63 446 57 481 57 c 0
 508 57 536 61 560 66 c 0
 625 81 664 126 664 126 c 1
 706 91 l 1
 706 91 658 32 572 12 c 0
 545 6 514 1 481 1 c 2
 464 1 l 1
 428 3 391 17 364 47 c 1
 363 46 l 1
 360 50 l 1
 361 51 l 1
 355 58 351 63 350 69 c 1
 350 70 l 1
 312 37 242 -3 167 -3 c 0
 136 -3 103 4 75 22 c 0
 34 49 11 95 11 143 c 0
 11 181 26 218 57 248 c 0
 108 296 172 314 230 314 c 0
 273 314 315 304 346 292 c 1
 346 302 345 312 345 322 c 0xbe
402 288 m 1
 454 291 595 295 650 295 c 1
 650 330 641 367 623 389 c 0
 589 430 540 444 505 444 c 2
 497 444 l 2
 492 444 487 444 482 443 c 0
 427 433 415 416 407 391 c 0
 402 376 402 357 402 335 c 2
 402 288 l 1
345 230 m 1
 317 245 280 257 237 257 c 2
 231 257 l 2xbe
 183 257 133 245 94 207 c 0
 74 189 66 166 66 144 c 0
 66 114 82 85 106 69 c 0
 122 58 145 55 167 55 c 0
 196 55 226 62 246 70 c 0
 288 90 312 111 328 127 c 0
 335 135 342 143 344 146 c 0
 344 147 344 148 344 149 c 0
 344 174 345 202 345 230 c 1
EndSplineSet
EndChar
StartChar: ccedilla
Encoding: 231 231 81
Width: 485
VWidth: 0
Flags: HW
HStem: -160 42<203 303> -52 30<281 300> 2 53<155 227 280 351> 443 55<155 335>
VStem: 18 55<142 360> 305 52<-114 -56>
LayerCount: 2
Fore
SplineSet
255 498 m 1
 276 498 297 493 317 488 c 0
 368 476 397 443 414 398 c 1
 363 376 l 1
 348 415 342 425 304 435 c 0
 286 438 266 443 246 443 c 0
 196 443 144 426 110 385 c 0
 94 364 73 326 73 253 c 0
 73 232 77 208 80 179 c 0
 83 155 114 104 137 87 c 0
 172 64 205 56 247 56 c 0
 250 56 255 56 258 56 c 0
 328 57 376 84 403 124 c 1
 449 93 l 1
 415 42 355 8 281 2 c 1
 280 -11 280 -12 281 -22 c 1
 289 -22 309 -22 321 -27 c 0
 332 -33 357 -42 357 -88 c 0
 357 -91 357 -95 357 -98 c 1
 354 -143 321 -160 281 -160 c 0
 253 -160 220 -152 195 -136 c 1
 200 -121 204 -112 206 -102 c 1
 219 -109 243 -117 265 -117 c 0
 286 -117 304 -108 305 -83 c 0
 305 -83 l 0
 305 -59 278 -52 255 -52 c 0
 240 -52 228 -55 225 -57 c 1
 225 -44 226 -13 227 2 c 1
 185 4 144 15 104 42 c 0
 61 73 31 125 24 171 c 0
 19 201 18 229 18 252 c 0
 18 338 43 389 66 420 c 0
 113 477 182 498 245 498 c 0
 248 498 252 498 255 498 c 1
EndSplineSet
EndChar
StartChar: idieresis
Encoding: 239 239 80
Width: 244
VWidth: 0
Flags: HW
HStem: -1 10<154 170> 585 64<26 89 148 211>
VStem: 26 63<586 649> 92 56<64 500> 148 63<586 649>
LayerCount: 2
Fore
SplineSet
148 649 m 5
 211 649 l 5
 211 586 l 5
 148 585 l 5
 148 649 l 5
26 649 m 5
 89 649 l 5
 89 586 l 5
 26 585 l 5
 26 649 l 5
EndSplineSet
Refer: 178 305 N 1 0 0 1 0 0 3
EndChar
StartChar: divide
Encoding: 247 247 146
Width: 469
VWidth: 0
Flags: HW
HStem: 0 57<200 261> 224 55<39 432> 442 56<205 267>
VStem: 200 62<0 57 442 498>
LayerCount: 2
Fore
SplineSet
204 498 m 25
 268 498 l 25
 267 442 l 25
 205 442 l 25
 204 498 l 25
199 57 m 25
 263 57 l 25
 261 0 l 25
 200 0 l 25
 199 57 l 25
36 250 m 1
 36 276 l 1
 126 278 178 279 218 279 c 0
 287 279 319 277 434 276 c 1
 432 220 l 1
 316 221 286 224 217 224 c 0
 178 224 126 222 39 220 c 1
 36 250 l 1
EndSplineSet
EndChar
StartChar: oslash
Encoding: 248 248 140
Width: 532
VWidth: 0
Flags: HW
HStem: -3 56<178 343> 444 57<194 353> 500 10G<461 480>
VStem: 46 57<140 337> 434 57<156 358>
LayerCount: 2
Fore
SplineSet
302 442 m 0xd8
 291 443 281 444 271 444 c 0
 233 444 201 432 177 411 c 0
 134 376 103 306 103 223 c 0
 103 192 108 162 119 139 c 1
 159 180 210 235 262 290 c 0
 302 332 342 373 375 407 c 1
 354 425 331 437 302 442 c 0xd8
469 510 m 1xb8
 510 474 l 1
 497 459 477 435 454 411 c 1
 449 406 l 1
 451 403 455 398 457 395 c 0
 479 356 491 310 491 263 c 0
 491 245 488 225 485 207 c 0
 464 97 395 -3 264 -3 c 0
 198 -3 146 18 111 52 c 1
 103 44 97 37 94 34 c 0
 93 34 l 1
 69 7 55 -6 55 -6 c 1
 18 35 l 2
 18 35 28 44 52 71 c 1
 53 71 l 1
 53 73 l 1
 56 76 65 84 76 96 c 1
 74 101 71 105 69 110 c 0
 53 144 46 182 46 223 c 0
 46 326 82 407 142 455 c 0
 176 483 218 501 264 501 c 0xd8
 329 501 378 482 414 448 c 1
 435 471 454 494 469 510 c 1xb8
150 93 m 1
 177 69 216 52 267 52 c 0
 307 52 336 65 363 87 c 0
 402 121 434 184 434 263 c 0
 434 301 425 335 409 363 c 1
 378 330 340 292 302 252 c 0
 246 194 190 135 150 93 c 1
EndSplineSet
EndChar
StartChar: aogonek
Encoding: 261 261 223
Width: 501
VWidth: 0
Flags: HW
HStem: -208 54<305 394> -2 56<117 277> 257 56<157 342> 447 55<156 320>
VStem: 34 55<83 199> 245 59<-151 -89> 362 56<125 235 290 406>
LayerCount: 2
Fore
SplineSet
280 311 m 4
 314 309 338 302 362 290 c 5
 362 320 l 6
 362 374 349 403 326 421 c 5
 303 438 271 447 242 447 c 4
 173 446 135 427 92 353 c 5
 46 380 l 5
 96 465 158 500 241 501 c 4
 243 501 246 501 248 501 c 4
 283 501 324 493 358 466 c 5
 396 438 418 392 418 323 c 6
 418 106 l 6
 418 89 423 76 429 69 c 4
 434 63 446 53 463 41 c 5
 429 -3 l 5
 399 -40 327 -68 306 -120 c 4
 305 -124 304 -127 304 -130 c 4
 304 -151 334 -154 348 -154 c 4
 367 -154 383 -147 406 -121 c 5
 442 -159 l 5
 410 -194 386 -208 345 -208 c 4
 296 -208 245 -183 245 -133 c 4
 245 -123 247 -114 251 -102 c 4
 271 -49 347 -8 386 33 c 5
 384 35 l 4
 376 48 368 65 366 85 c 5
 345 63 328 37 290 20 c 4
 263 8 226 -2 190 -2 c 4
 159 -2 127 4 98 22 c 5
 57 49 34 96 34 144 c 4
 34 180 48 219 78 248 c 4
 128 295 192 312 250 312 c 4
 260 312 270 312 280 311 c 4
362 224 m 5
 355 227 343 235 331 240 c 4
 311 247 300 253 273 255 c 4
 266 256 257 257 250 257 c 4
 203 257 154 242 116 206 c 5
 96 188 88 165 88 143 c 4
 88 113 103 83 126 68 c 4
 142 58 165 53 187 53 c 4
 216 53 247 61 265 69 c 4
 330 100 352 139 362 156 c 5
 362 224 l 5
EndSplineSet
EndChar
StartChar: cdotaccent
Encoding: 267 267 186
Width: 472
VWidth: 0
Flags: HW
HStem: -5 57<161 361> 454 57<164 347> 584 64<208 271>
VStem: 18 57<144 365> 208 63<585 648>
LayerCount: 2
Fore
SplineSet
208 648 m 5
 271 648 l 5
 271 585 l 5
 208 584 l 5
 208 648 l 5
EndSplineSet
Refer: 2 99 N 1 0 0 1 0 0 3
EndChar
StartChar: Ccaron
Encoding: 268 268 187
Width: 535
VWidth: 0
Flags: HW
HStem: 0 57<199 382> 517 10<406 441> 596 58<216 373>
VStem: 36 57<186 449>
LayerCount: 2
Fore
SplineSet
285 684 m 1
 141 790 l 1
 168 831 l 1
 285 753 l 1
 401 831 l 1
 429 790 l 1
 285 684 l 1
EndSplineSet
Refer: 28 67 N 1 0 0 1 0 0 3
EndChar
StartChar: ccaron
Encoding: 269 269 188
Width: 472
VWidth: 0
Flags: HW
HStem: -5 57<161 361> 454 57<164 347> 562 10G<234 271>
VStem: 18 57<144 365>
LayerCount: 2
Fore
SplineSet
248 562 m 5
 102 667 l 5
 131 708 l 5
 248 631 l 5
 363 708 l 5
 392 667 l 5
 344 632 296 603 248 562 c 5
EndSplineSet
Refer: 2 99 N 1 0 0 1 0 0 3
EndChar
StartChar: Dcaron
Encoding: 270 270 189
Width: 570
VWidth: 0
Flags: HW
HStem: -3 57<109 362> 596 57<112 307>
VStem: 56 57<57 594> 464 58<156 415>
LayerCount: 2
Fore
SplineSet
220 690 m 1
 76 795 l 1
 104 837 l 1
 220 759 l 1
 336 837 l 1
 364 795 l 1
 220 690 l 1
EndSplineSet
Refer: 29 68 N 1 0 0 1 0 0 3
EndChar
StartChar: eogonek
Encoding: 281 281 224
Width: 507
VWidth: 0
Flags: HW
HStem: -211 54<300 391> -7 56<174 317> 231 62<97 418> 453 56<181 345>
VStem: 34 61<137 223> 242 59<-155 -86> 418 58<297 379>
LayerCount: 2
Fore
SplineSet
94 283 m 1
 137 286 208 291 283 293 c 0
 353 295 398 297 418 297 c 1
 418 305 418 307 417 319 c 1
 406 401 346 453 265 453 c 0
 160 453 97 374 94 283 c 1
265 509 m 0
 390 509 458 429 474 322 c 1
 475 304 476 286 476 275 c 2
 476 264 l 1
 474 239 l 1
 447 238 l 1
 447 238 364 233 278 231 c 1
 204 228 136 224 95 222 c 1
 101 167 119 117 149 88 c 1
 182 58 222 49 263 49 c 0
 281 49 304 52 322 55 c 0
 390 70 429 119 429 119 c 1
 475 83 l 1
 435 31 358 0 303 -124 c 0
 302 -128 300 -131 300 -134 c 0
 300 -155 331 -158 345 -158 c 0
 364 -158 379 -151 402 -125 c 1
 439 -163 l 1
 407 -198 382 -211 341 -211 c 0
 292 -211 242 -187 242 -137 c 0
 242 -127 243 -116 248 -105 c 0
 268 -61 292 -28 317 -2 c 1
 299 -4 282 -7 262 -7 c 0
 211 -7 155 7 110 49 c 0
 58 99 34 174 34 257 c 0
 34 265 34 273 35 281 c 1
 41 403 127 509 265 509 c 0
EndSplineSet
EndChar
StartChar: dotlessi
Encoding: 305 305 178
Width: 244
VWidth: 0
Flags: HW
HStem: -1 10G<154 170>
VStem: 92 56<64 500>
AnchorPoint: "accents" 120 586 basechar 0
LayerCount: 2
Fore
SplineSet
146 502 m 1
 146 502 147 485 147 458 c 0
 147 438 147 410 147 380 c 0
 147 297 147 189 146 103 c 0
 148 82 151 72 157 64 c 0
 163 57 174 48 191 36 c 9
 162 -1 l 17
 145 6 123 16 111 33 c 0
 99 50 92 71 90 99 c 2
 90 101 l 1
 91 187 92 297 92 380 c 0
 92 410 92 438 92 458 c 0
 92 500 l 1
 146 502 l 1
EndSplineSet
EndChar
StartChar: OE
Encoding: 338 338 149
Width: 682
VWidth: 0
Flags: HW
HStem: 1 1<585 590> 58 0<586 593> 345 56<398 569> 593 57<234 344 398 636>
VStem: 28 57<182 424> 341 57<57 345 401 593>
LayerCount: 2
Fore
SplineSet
494 650 m 2
 636 650 l 1
 636 595 l 1
 567 595 505 594 399 593 c 1
 398 582 398 572 398 561 c 2
 398 401 l 1
 426 401 418 401 465 401 c 0
 518 401 566 401 569 401 c 1
 570 345 l 1
 558 345 518 345 465 345 c 0
 417 345 425 345 398 345 c 1
 398 335 398 330 398 320 c 0
 398 205 397 87 397 57 c 1
 424 57 489 57 552 57 c 0
 593 57 l 0
 586 58 l 0
 586 58 586 59 588 59 c 0
 589 59 591 59 593 59 c 0
 601 59 618 60 646 68 c 1
 663 15 l 1
 642 9 622 3 587 2 c 0
 585 2 l 0
 590 1 l 0
 590 1 583 1 552 1 c 0
 507 1 461 1 430 1 c 0
 413 1 401 1 394 1 c 2
 349 -1 l 1
 340 -1 l 1
 324 -2 309 -2 293 -2 c 0
 230 0 168 15 115 65 c 0
 70 107 32 180 29 241 c 0
 28 257 28 271 28 286 c 0
 28 442 90 531 129 570 c 1
 170 612 241 653 322 653 c 0
 335 653 349 651 362 649 c 1
 398 650 446 650 494 650 c 2
344 593 m 1
 339 593 335 593 330 593 c 0
 264 593 201 561 171 530 c 1
 138 494 85 428 85 287 c 0
 85 274 85 260 86 245 c 0
 88 210 126 136 155 108 c 0
 196 69 239 57 295 55 c 0
 300 55 306 55 309 55 c 0
 321 55 331 55 341 56 c 1
 341 320 l 2
 341 380 343 438 343 483 c 0
 343 528 343 555 343 563 c 0
 343 573 343 583 344 593 c 1
EndSplineSet
EndChar
StartChar: oe
Encoding: 339 339 95
Width: 721
VWidth: 0
Flags: HW
HStem: 2 55<149 312 412 587> 232 53<404 542> 441 57<172 322 428 583>
VStem: 17 64<127 337> 345 57<87 234 286 416> 650 48<293 376>
LayerCount: 2
Fore
SplineSet
335 33 m 1
 305 15 268 2 227 2 c 0
 214 2 200 4 187 6 c 0
 116 19 65 61 40 114 c 0
 24 148 17 185 17 225 c 0
 17 248 19 273 24 297 c 0
 36 361 66 417 111 453 c 0
 146 481 191 498 239 498 c 0
 252 498 264 496 277 494 c 0
 302 489 329 480 351 462 c 0
 358 457 364 452 369 446 c 1
 389 470 419 489 464 497 c 0
 470 498 477 499 485 499 c 1
 488 499 495 499 498 499 c 0
 550 499 612 479 658 424 c 0
 683 393 691 353 696 322 c 0
 698 302 699 287 699 277 c 0
 699 267 l 1
 697 240 l 1
 671 240 l 1
 671 240 610 240 542 239 c 0
 484 238 438 234 402 232 c 1
 402 204 402 175 402 150 c 0
 402 129 403 111 404 98 c 0
 405 92 407 87 407 85 c 0
 420 68 432 59 461 57 c 0
 463 57 468 57 470 57 c 0
 497 57 527 61 552 66 c 0
 617 81 655 127 655 127 c 1
 697 91 l 1
 697 91 649 33 564 13 c 0
 537 7 506 2 475 2 c 0
 469 2 464 2 458 2 c 0
 422 4 383 18 356 48 c 1
 356 47 335 33 335 33 c 1
497 442 m 0
 492 442 485 441 482 441 c 0
 427 430 415 413 408 389 c 0
 402 369 402 344 402 316 c 0
 402 306 402 296 402 286 c 1
 442 288 493 291 550 292 c 0
 603 293 630 293 650 293 c 1
 650 301 650 301 649 312 c 0
 646 337 638 368 623 386 c 0
 589 427 540 442 505 442 c 0
 503 442 499 442 497 442 c 0
343 120 m 0
 345 128 345 141 345 148 c 0
 345 161 345 175 345 188 c 0
 345 221 345 256 346 285 c 0
 346 296 346 309 346 321 c 0
 346 334 347 348 348 361 c 1
 346 377 342 405 326 417 c 0
 311 429 296 435 276 437 c 0
 264 439 252 441 241 441 c 0
 207 440 178 428 154 407 c 0
 121 382 97 340 87 285 c 0
 84 264 81 244 81 224 c 0
 81 191 87 161 98 136 c 0
 116 96 147 70 204 60 c 0
 215 59 225 57 235 57 c 0
 265 57 290 65 313 78 c 1
 321 85 338 100 343 120 c 0
EndSplineSet
EndChar
StartChar: ogonek
Encoding: 731 731 222
Width: 1000
VWidth: 0
Flags: HW
HStem: -204 54<666 735>
VStem: 607 57<-149 -78>
LayerCount: 2
Fore
SplineSet
716 12 m 9
 781 2 l 17
 747 -32 672 -71 665 -116 c 0
 665 -118 665 -121 665 -123 c 0
 665 -141 676 -150 691 -150 c 0
 710 -150 721 -144 744 -118 c 9
 780 -156 l 17
 748 -191 738 -204 688 -204 c 1
 639 -204 607 -177 607 -132 c 0
 607 -123 609 -113 611 -103 c 0
 627 -41 686 -15 716 12 c 9
EndSplineSet
EndChar
StartChar: gravecomb
Encoding: 768 768 202
Width: 0
VWidth: 0
Flags: HW
HStem: 567 142
VStem: -3 234
AnchorPoint: "accents" 114 586 mark 0
LayerCount: 2
Fore
SplineSet
27 709 m 5
 88 662 160 635 230 613 c 5
 213 567 l 5
 140 588 54 618 -3 665 c 5
 27 709 l 5
EndSplineSet
EndChar
StartChar: acutecomb
Encoding: 769 769 203
Width: 0
VWidth: 0
Flags: HW
HStem: 575 142
VStem: -2 233
AnchorPoint: "accents" 108 585 mark 0
LayerCount: 2
Fore
SplineSet
201 716 m 9
 231 672 l 17
 174 625 88 596 15 575 c 9
 -2 621 l 17
 68 643 140 669 201 716 c 9
EndSplineSet
EndChar
StartChar: uni0302
Encoding: 770 770 204
Width: 0
VWidth: 0
Flags: HW
HStem: 566 146
VStem: 27 288
AnchorPoint: "accents" 173 585 mark 0
LayerCount: 2
Fore
SplineSet
171 712 m 5
 315 608 l 5
 288 566 l 5
 171 644 l 5
 55 566 l 5
 27 608 l 5
 171 712 l 5
EndSplineSet
EndChar
StartChar: tildecomb
Encoding: 771 771 205
Width: 0
VWidth: 0
Flags: HW
HStem: 578 53<214 307> 623 55<110 199>
VStem: 54 304
AnchorPoint: "accents" 206 586 mark 0
LayerCount: 2
Fore
SplineSet
54 611 m 21x60
 82 661 110 678 139 678 c 7x60
 189 678 236 631 272 631 c 7
 290 631 306 643 318 674 c 13
 357 640 l 21
 328 593 299 578 270 578 c 7xa0
 223 578 177 623 141 623 c 7
 125 623 112 612 100 583 c 13
 54 611 l 21x60
EndSplineSet
EndChar
StartChar: uni0304
Encoding: 772 772 206
Width: 0
VWidth: 0
Flags: HW
HStem: 606 50<33 264>
VStem: 33 231<608 656>
LayerCount: 2
Fore
SplineSet
264 656 m 9
 264 608 l 17
 233 608 193 606 152 606 c 0
 111 606 69 607 33 608 c 9
 33 658 l 17
 62 657 103 656 144 656 c 0
 187 656 233 656 264 656 c 9
EndSplineSet
EndChar
StartChar: uni0305
Encoding: 773 773 207
Width: 0
VWidth: 0
Flags: HW
HStem: 606 50<33 389>
LayerCount: 2
Fore
SplineSet
389 656 m 13
 389 608 l 21
 358 608 193 606 152 606 c 0
 111 606 69 607 33 608 c 9
 33 658 l 17
 62 657 103 656 144 656 c 0
 187 656 358 656 389 656 c 13
EndSplineSet
EndChar
StartChar: uni0306
Encoding: 774 774 208
Width: 0
Flags: HW
HStem: 663 53<173 324>
VStem: 75 53<763 798> 370 56<758 793>
AnchorPoint: "accents" 246 585 mark 0
LayerCount: 2
Fore
SplineSet
250 638 m 0
 316 638 366 679 370 730 c 1
 426 714 l 1
 414 628 330 585 249 585 c 0
 187 585 98 609 75 719 c 1
 128 736 l 1
 144 660 193 638 250 638 c 0
EndSplineSet
EndChar
StartChar: uni0307
Encoding: 775 775 209
Width: 0
Flags: HW
HStem: 586 64<79 143>
VStem: 79 63<587 650>
AnchorPoint: "accents" 112 585 mark 0
LayerCount: 2
Fore
SplineSet
79 650 m 1
 143 650 l 1
 143 587 l 1
 79 586 l 1
 79 650 l 1
EndSplineSet
EndChar
StartChar: uni0308
Encoding: 776 776 210
Width: 0
VWidth: 0
Flags: HW
HStem: 587 63<108 172 275 338>
VStem: 108 63<587 650> 275 63<588 651>
AnchorPoint: "accents" 228 585 mark 0
LayerCount: 2
Fore
SplineSet
275 651 m 1
 338 651 l 1
 338 588 l 1
 275 587 l 1
 275 651 l 1
108 650 m 1
 172 650 l 1
 172 587 l 1
 108 585 l 1
 108 650 l 1
EndSplineSet
EndChar
StartChar: uni030A
Encoding: 778 778 212
Width: 0
VWidth: 0
Flags: HW
HStem: 476 41<181 274> 606 42<179 276>
VStem: 119 52<528 596> 285 53<528 596>
LayerCount: 2
Fore
SplineSet
119 562 m 0
 119 609 168 649 229 649 c 0
 290 649 338 609 338 562 c 0
 338 515 290 476 229 476 c 0
 168 476 119 515 119 562 c 0
171 563 m 4
 171 539 197 517 228 517 c 4
 259 517 285 539 285 563 c 4
 285 587 259 606 228 606 c 4
 197 606 171 587 171 563 c 4
EndSplineSet
EndChar
StartChar: uni030C
Encoding: 780 780 214
Width: 0
Flags: HW
HStem: 595 198
LayerCount: 2
Fore
SplineSet
254 595 m 1
 83 732 l 1
 125 792 l 1
 254 693 l 1
 384 792 l 1
 427 732 l 1
 254 595 l 1
EndSplineSet
EndChar
StartChar: uni030E
Encoding: 782 782 216
Width: 0
Flags: HW
HStem: 625 170<158 235 287 364>
VStem: 158 78<625 795> 287 78<625 795>
LayerCount: 2
Fore
SplineSet
287 795 m 1
 364 795 l 1
 364 625 l 1
 287 625 l 1
 287 795 l 1
158 795 m 1
 235 795 l 1
 235 625 l 1
 158 625 l 1
 158 795 l 1
EndSplineSet
EndChar
StartChar: uni0311
Encoding: 785 785 219
Width: 0
Flags: HW
HStem: 603 205
VStem: 188 74<734 793>
LayerCount: 2
Fore
SplineSet
135 626 m 1
 154 681 166 734 188 808 c 1
 263 792 l 1
 254 723 240 653 230 603 c 1
 135 626 l 1
EndSplineSet
EndChar
StartChar: uni0313
Encoding: 787 787 221
Width: 0
Flags: HW
HStem: 537 243
VStem: 201 107<672 780> 201 80<611 672>
LayerCount: 2
Fore
SplineSet
308 780 m 1xc0
 308 672 l 1xc0
 280 672 l 1xa0
 280 624 293 613 322 599 c 1
 296 537 l 1
 233 564 201 601 201 675 c 2
 201 780 l 1
 308 780 l 1xc0
EndSplineSet
EndChar
StartChar: quoteright
Encoding: 8217 8217 225
Width: 227
VWidth: 0
Flags: HW
HStem: 425 265
VStem: 101 57<538 681>
LayerCount: 2
Fore
SplineSet
154 690 m 1
 156 675 158 661 158 646 c 0
 158 607 149 568 138 534 c 0
 122 486 103 448 75 425 c 1
 39 471 l 1
 47 477 70 511 83 551 c 0
 93 582 101 617 101 650 c 0
 101 661 99 671 98 681 c 1
 154 690 l 1
EndSplineSet
EndChar
StartChar: uniE038
Encoding: 57400 57400 199
Width: 334
VWidth: 0
Flags: HW
HStem: 0 10G<73 128> 442 56<24 70 127 305> 646 51<166 311>
VStem: 73 56<0 442 499 610>
LayerCount: 2
Fore
SplineSet
316 693 m 0
 310 638 l 1
 286 643 264 646 247 646 c 0
 201 646 177 631 161 621 c 1
 141 605 124 577 124 534 c 0
 124 531 124 521 124 499 c 1
 151 499 204 498 245 498 c 0
 287 497 317 489 317 489 c 1
 305 436 l 1
 305 436 284 444 245 444 c 0
 240 444 232 445 224 445 c 0
 208 445 189 444 176 444 c 0
 165 444 l 0
 152 444 138 443 126 442 c 1
 126 397 128 122 128 28 c 0
 128 15 128 5 128 0 c 1
 73 0 l 1
 73 1 73 28 73 68 c 0
 73 147 73 278 73 363 c 0
 73 405 73 435 73 442 c 1
 58 442 42 442 24 442 c 1
 24 498 l 1
 41 498 57 498 70 498 c 1
 70 520 69 527 69 530 c 0
 69 533 69 535 69 542 c 0
 71 599 94 641 127 665 c 0
 160 689 198 696 231 696 c 0
 232 696 295 695 316 693 c 0
EndSplineSet
EndChar
StartChar: f_t
Encoding: 57401 57401 198
Width: 715
VWidth: 0
Flags: HW
HStem: -3 57<461 617> 442 56<24 70 126 374 435 650> 642 55<161 284>
VStem: 73 56<0 442 499 610> 369 56<93 432> 378 57<220 441 498 597>
LayerCount: 2
Fore
SplineSet
283 638 m 0xf8
 267 640 253 642 240 642 c 0
 202 642 176 632 161 621 c 0
 141 605 124 577 124 534 c 0
 124 531 124 521 124 499 c 1
 151 499 176 498 217 498 c 1
 248 498 357 498 378 497 c 1
 378 530 379 564 379 598 c 0
 435 597 l 1
 435 566 435 531 435 498 c 1xf4
 462 498 488 498 515 498 c 0
 589 498 652 497 652 497 c 1
 650 441 l 1
 650 441 588 442 515 442 c 0
 488 442 458 441 431 441 c 0
 431 440 431 438 431 437 c 1
 426 332 427 262 425 211 c 1
 425 204 425 196 425 190 c 0
 425 151 429 126 441 101 c 0
 456 72 480 58 521 55 c 0
 528 55 534 54 541 54 c 0
 575 54 586 57 602 65 c 0
 635 81 647 113 647 113 c 1
 699 92 l 1
 699 92 680 43 627 16 c 0
 599 1 585 -3 543 -3 c 0
 535 -3 525 -3 517 -2 c 0
 465 3 416 23 391 76 c 0
 374 111 369 147 369 190 c 0
 369 197 369 205 369 212 c 1
 371 267 371 337 374 441 c 1
 363 441 199 443 146 443 c 0
 135 443 128 442 126 442 c 1
 126 397 128 122 128 28 c 0
 128 15 128 5 128 0 c 1
 73 0 l 1
 73 1 73 28 73 68 c 0
 73 147 73 278 73 363 c 0
 73 405 73 435 73 442 c 1
 58 442 42 442 24 442 c 1
 24 498 l 1
 41 498 57 498 70 498 c 1
 70 520 69 527 69 530 c 0
 69 533 69 535 69 542 c 0
 71 599 94 641 127 665 c 0
 160 689 198 696 231 696 c 1
 234 696 240 696 247 696 c 0
 260 696 278 696 290 693 c 1
 283 638 l 0xf8
EndSplineSet
Ligature2: "'liga' Standard Ligatures in Latin lookup 0-1" f t
EndChar
StartChar: t_t
Encoding: 57404 57404 197
Width: 742
VWidth: 0
Flags: HW
HStem: -3 57<161 344 487 648> 441 57<25 76 134 401 459 676>
VStem: 70 56
LayerCount: 2
Fore
SplineSet
402 498 m 1xd0
 402 531 403 564 403 598 c 0
 460 597 l 1
 460 566 459 531 459 498 c 1
 486 498 512 498 539 498 c 0
 613 498 677 497 677 497 c 1
 676 441 l 1
 676 441 612 442 539 442 c 0
 512 442 484 441 457 441 c 0
 457 440 457 438 457 437 c 1xd4
 452 332 452 262 450 211 c 1
 450 204 450 196 450 190 c 0
 450 151 455 126 467 101 c 0
 482 72 505 58 546 55 c 0
 553 55 559 54 566 54 c 0
 600 54 613 55 629 63 c 0
 662 79 675 110 675 110 c 1
 727 90 l 1
 727 90 707 40 654 13 c 0
 626 -2 610 -3 568 -3 c 0
 560 -3 549 -3 541 -2 c 0
 489 3 440 23 415 76 c 0
 398 111 395 147 395 190 c 0
 395 197 395 205 395 212 c 1xc8
 397 267 398 335 401 439 c 1
 401 439 287 442 214 442 c 0
 187 442 159 441 132 441 c 0
 132 440 132 438 132 437 c 1
 127 332 128 262 126 211 c 1
 126 204 126 196 126 190 c 0
 126 151 130 126 142 101 c 0
 157 72 181 58 222 55 c 0
 229 55 235 54 242 54 c 0
 276 54 329 61 345 69 c 1
 357 45 371 20 371 20 c 1
 343 5 285 -3 243 -3 c 0
 235 -3 225 -3 217 -2 c 0
 165 3 116 23 91 76 c 0
 74 111 70 147 70 190 c 0
 70 197 70 205 70 212 c 1xe4
 72 267 73 335 76 439 c 1
 54 438 36 436 24 435 c 1
 17 490 l 1
 33 492 54 494 78 495 c 1
 78 528 79 564 79 598 c 0
 136 597 l 1
 136 566 134 531 134 498 c 1
 161 498 375 498 402 498 c 1xd0
EndSplineSet
Ligature2: "'liga' Standard Ligatures in Latin lookup 0-1" t t
EndChar
StartChar: t_y
Encoding: 57405 57405 201
Width: 881
VWidth: 0
Flags: HW
HStem: -192 56<461 565> -3 57<161 318> 442 56<25 76 134 411>
VStem: 70 56
LayerCount: 2
Fore
SplineSet
438 -80 m 1xec
 443 -90 449 -99 454 -106 c 0
 469 -126 483 -134 507 -137 c 0
 510 -137 514 -137 517 -137 c 0
 533 -137 546 -132 559 -121 c 0
 575 -108 590 -87 602 -60 c 0
 613 -35 623 -9 635 18 c 1
 607 86 564 176 519 257 c 0
 472 342 421 415 396 438 c 0
 394 440 390 441 385 442 c 0
 379 443 368 443 358 443 c 1
 214 442 l 0
 187 442 159 441 132 441 c 0
 132 440 132 438 132 437 c 1
 127 332 128 262 126 211 c 1
 126 204 126 196 126 190 c 0
 126 151 130 126 142 101 c 0
 157 72 181 58 222 55 c 0
 229 55 235 54 242 54 c 0
 276 54 287 57 303 65 c 0
 336 81 349 113 349 113 c 1
 399 92 l 1
 399 92 380 43 327 16 c 0
 299 1 285 -3 243 -3 c 0
 235 -3 225 -3 217 -2 c 0
 165 3 116 23 91 76 c 0
 74 111 70 147 70 190 c 0
 70 197 70 205 70 212 c 1xf4
 72 267 73 335 76 439 c 1
 54 438 36 436 24 435 c 1
 17 490 l 1
 33 492 54 494 78 495 c 1
 78 528 79 564 79 598 c 0
 136 597 l 1
 136 566 134 531 134 498 c 1
 161 498 187 498 214 498 c 0
 358 498 l 1
 373 498 386 498 398 496 c 0
 410 494 422 489 433 479 c 0
 474 443 519 370 567 283 c 0
 603 218 638 148 666 86 c 1
 717 202 768 322 798 431 c 0
 799 436 801 450 802 462 c 0
 803 474 804 489 804 489 c 2
 858 497 l 1
 858 494 858 488 858 485 c 0
 858 475 858 468 857 458 c 0
 856 443 854 429 851 417 c 0
 806 255 720 73 651 -83 c 0
 636 -116 619 -143 594 -164 c 0
 572 -181 545 -192 516 -192 c 0
 511 -192 505 -192 500 -191 c 0
 464 -186 432 -168 410 -139 c 0
 402 -129 396 -118 390 -105 c 1
 438 -80 l 1xec
EndSplineSet
Ligature2: "'dlig' Ligature facoltativa dans Latin lookup 1-1" t y
EndChar
StartChar: f_f
Encoding: 64256 64256 192
Width: 642
VWidth: 0
Flags: HW
HStem: 0 10G<73 128> 442 56<24 70 126 349 406 556> 627 53<167 360> 643 55<439 570>
VStem: 73 56<0 442 499 593> 348 55<1 444 501 605>
LayerCount: 2
Fore
SplineSet
126 499 m 1xec
 349 500 l 1
 349 507 349 512 349 517 c 0
 349 542 348 529 348 542 c 1
 349 565 354 587 361 605 c 1
 340 622 302 626 280 627 c 0
 277 627 270 627 264 627 c 0
 237 627 196 623 166 605 c 1
 145 592 127 573 126 527 c 1
 126 499 l 1xec
133 649 m 0
 172 678 243 681 277 681 c 0xec
 302 681 359 673 389 651 c 1
 394 657 400 661 406 666 c 0
 439 690 477 698 510 698 c 0
 511 698 514 698 515 698 c 0
 553 698 597 684 626 636 c 1
 579 609 l 1
 561 640 537 643 509 643 c 0xdc
 487 643 459 638 439 623 c 0
 419 607 402 578 402 535 c 0
 402 532 403 523 403 501 c 1
 430 501 456 501 497 501 c 0
 539 500 568 493 568 493 c 1
 556 439 l 1
 556 439 528 444 522 444 c 0
 505 445 481 445 458 445 c 0
 436 445 415 445 406 444 c 1
 406 399 408 123 408 29 c 0
 408 16 407 6 407 1 c 1
 353 1 l 1
 353 2 353 29 353 69 c 0
 353 188 352 424 351 444 c 1
 338 444 138 443 126 442 c 1
 126 397 128 122 128 28 c 0
 128 15 128 5 128 0 c 1
 73 0 l 1
 73 1 73 28 73 68 c 0
 73 147 73 278 73 363 c 0
 73 405 73 435 73 442 c 1
 58 442 42 442 24 442 c 1
 24 498 l 1
 41 498 57 498 70 498 c 1
 70 530 l 1
 73 593 100 625 133 649 c 0
EndSplineSet
Ligature2: "'liga' Standard Ligatures in Latin lookup 0-1" f f
EndChar
StartChar: f_i
Encoding: 64257 64257 193
Width: 481
VWidth: 0
Flags: HW
HStem: 0 8G<73 128 428 445> 444 56<24 70 127 367> 584 64<363 426> 642 55<161 284>
VStem: 73 56<0 442 500 610> 367 57<63 444 585 648>
LayerCount: 2
Fore
SplineSet
161 621 m 0xdc
 141 605 124 577 124 534 c 0
 124 531 124 522 124 500 c 1
 151 500 240 500 281 500 c 1
 421 501 l 1
 421 501 424 484 424 457 c 0
 424 437 424 409 424 379 c 0
 424 296 422 188 421 102 c 0
 423 81 426 71 432 63 c 0
 438 56 449 47 466 35 c 9
 437 -2 l 17
 420 5 398 14 386 31 c 0
 374 48 368 70 366 98 c 2
 366 99 l 1
 367 150 367 232 367 308 c 0
 367 361 367 410 367 444 c 1
 360 444 335 446 305 446 c 0
 249 446 175 444 165 444 c 0
 152 444 138 443 126 442 c 1
 126 397 128 122 128 28 c 0
 128 15 128 5 128 0 c 1
 73 0 l 1
 73 1 73 28 73 68 c 0
 73 147 73 278 73 363 c 0
 73 404 73 436 73 442 c 1
 58 442 42 442 24 442 c 1
 24 498 l 1
 41 498 57 498 70 498 c 1
 70 520 69 527 69 530 c 0
 69 533 69 535 69 542 c 0
 71 599 94 641 127 665 c 0
 160 689 198 696 231 696 c 1
 234 696 240 696 247 696 c 0
 260 696 278 696 290 693 c 1
 283 638 l 0
 267 640 253 642 240 642 c 0
 202 642 176 632 161 621 c 0xdc
363 648 m 1xec
 426 648 l 1
 426 585 l 1
 363 584 l 1
 363 648 l 1xec
EndSplineSet
Ligature2: "'liga' Standard Ligatures in Latin lookup 0-1" f i
EndChar
StartChar: f_l
Encoding: 64258 64258 194
Width: 469
VWidth: 0
Flags: HW
HStem: 0 8G<73 128 408 425> 442 56<24 70 127 250> 646 50<167 345>
VStem: 73 56<0 442 499 609> 346 56<62 644>
LayerCount: 2
Fore
SplineSet
127 665 m 0
 157 689 207 696 275 696 c 0
 311 696 352 693 398 691 c 1
 401 670 403 655 403 628 c 0
 403 606 403 562 403 506 c 0
 403 373 403 182 402 99 c 1
 403 79 407 70 412 62 c 1
 418 55 429 46 446 34 c 1
 418 -2 l 1
 398 5 379 13 367 30 c 0
 355 47 348 69 346 97 c 1
 346 98 l 2
 347 181 348 374 348 507 c 0
 348 562 346 622 346 644 c 1
 324 645 305 646 288 646 c 0
 205 646 177 633 161 621 c 0
 141 605 124 577 124 534 c 0
 124 531 124 521 124 499 c 1
 151 499 209 499 250 499 c 0
 250 442 l 0
 230 443 180 444 165 444 c 0
 152 444 138 443 126 442 c 1
 126 397 128 122 128 28 c 0
 128 15 128 5 128 0 c 1
 73 0 l 1
 73 1 73 28 73 68 c 0
 73 147 73 278 73 363 c 0
 73 405 73 435 73 442 c 1
 58 442 42 442 24 442 c 1
 24 498 l 1
 41 498 57 498 70 498 c 1
 70 520 69 527 69 530 c 0
 69 533 69 535 69 542 c 0
 71 599 96 640 127 665 c 0
EndSplineSet
Ligature2: "'liga' Standard Ligatures in Latin lookup 0-1" f l
EndChar
StartChar: f_f_i
Encoding: 64259 64259 195
Width: 755
VWidth: 0
Flags: HW
HStem: 0 10G<73 128> 442 56<24 70 126 354 410 639> 542 64<637 700> 625 55<165 363> 642 52<442 567>
VStem: 73 56<0 442 499 591> 356 56<1 444 501 605> 639 57<60 442 544 606>
LayerCount: 2
Fore
SplineSet
444 623 m 0xef
 424 607 407 578 407 535 c 0
 407 532 407 523 407 501 c 1
 434 501 460 501 501 501 c 1
 695 498 l 1
 695 498 696 480 696 453 c 0
 696 433 696 405 696 375 c 0
 696 292 696 184 695 98 c 0
 697 77 699 68 705 60 c 0
 711 53 722 43 739 31 c 9
 709 -6 l 17
 692 1 671 11 659 28 c 0
 647 45 641 66 639 94 c 2
 639 96 l 1
 639 113 640 134 640 156 c 0
 640 201 639 254 639 305 c 0
 639 358 639 408 639 442 c 1
 619 443 512 446 497 446 c 0
 490 446 482 447 476 447 c 0
 466 447 456 447 448 447 c 0
 435 447 421 445 409 444 c 1
 409 399 412 123 412 29 c 0
 412 16 412 6 412 1 c 1
 356 1 l 1
 356 2 356 29 356 69 c 0
 356 148 356 280 356 365 c 0
 356 407 356 437 356 444 c 1
 343 444 138 443 126 442 c 1
 126 397 128 122 128 28 c 0
 128 15 128 5 128 0 c 1
 73 0 l 1
 73 1 73 28 73 68 c 0
 73 147 73 278 73 363 c 0
 73 405 73 435 73 442 c 1
 58 442 42 442 24 442 c 1
 24 498 l 1
 41 498 57 498 70 498 c 1
 70 530 l 1
 73 593 100 625 133 649 c 0
 166 673 231 680 264 680 c 0
 265 680 268 680 269 680 c 0xf7
 296 680 364 673 394 651 c 1
 399 657 405 661 411 666 c 0
 435 684 466 694 516 694 c 0
 533 694 551 692 573 690 c 0
 567 639 l 0
 550 640 535 642 523 642 c 0
 480 642 459 634 444 623 c 0xef
637 606 m 1
 700 606 l 1
 700 544 l 1
 637 542 l 1
 637 606 l 1
126 499 m 1
 354 500 l 1
 354 522 353 529 353 532 c 0
 353 535 353 535 353 542 c 0
 354 565 357 587 364 605 c 1
 343 622 286 625 264 625 c 0
 242 625 187 620 167 605 c 0
 147 589 127 574 126 528 c 1
 126 499 l 1
EndSplineSet
Ligature2: "'liga' Standard Ligatures in Latin lookup 0-1" f f i
EndChar
StartChar: f_f_l
Encoding: 64260 64260 196
Width: 744
VWidth: 0
Flags: HW
HStem: 0 8G<73 128 689 706> 442 56<24 70 126 351 410 538> 625 55<165 362> 646 50<447 627>
VStem: 73 56<0 442 499 590> 355 56<1 444 501 605> 627 56<62 644>
LayerCount: 2
Fore
SplineSet
126 499 m 1xee
 351 500 l 1
 351 522 351 529 351 532 c 0
 351 535 351 535 351 542 c 0
 352 565 356 587 363 605 c 1
 342 622 284 625 262 625 c 0
 240 625 187 620 167 605 c 0
 147 589 127 573 126 527 c 1
 126 499 l 1xee
408 665 m 0
 441 689 479 696 512 696 c 1
 519 696 532 696 545 696 c 0
 584 696 639 696 679 691 c 1
 682 670 684 655 684 628 c 0
 684 606 684 562 684 506 c 0
 684 373 684 182 683 99 c 1
 684 79 688 70 693 62 c 1
 699 55 710 46 727 34 c 1
 699 -2 l 1
 679 5 660 13 648 30 c 0
 636 47 629 69 627 97 c 1
 627 98 l 2
 628 181 628 374 628 507 c 0
 628 562 627 622 627 644 c 1
 605 645 586 646 569 646 c 0xde
 486 646 458 633 442 621 c 0
 422 605 406 578 406 535 c 0
 406 532 407 523 407 501 c 1
 434 501 498 501 539 501 c 0
 538 444 l 1
 518 445 463 447 448 447 c 0
 435 447 421 445 409 444 c 1
 409 399 411 123 411 29 c 0
 411 16 411 6 411 1 c 1
 355 1 l 1
 355 2 355 29 355 69 c 0
 355 188 355 424 354 444 c 1
 341 444 138 443 126 442 c 1
 126 397 128 122 128 28 c 0
 128 15 128 5 128 0 c 1
 73 0 l 1
 73 1 73 28 73 68 c 0
 73 147 73 278 73 363 c 0
 73 405 73 435 73 442 c 1
 58 442 42 442 24 442 c 1
 24 498 l 1
 41 498 57 498 70 498 c 1
 70 529 l 1
 73 592 100 625 133 649 c 0
 166 673 229 680 262 680 c 0
 263 680 266 680 267 680 c 0
 294 680 363 673 393 651 c 1
 398 657 402 660 408 665 c 0
EndSplineSet
Ligature2: "'liga' Standard Ligatures in Latin lookup 0-1" f f l
EndChar
